Playwrite-Rg00ShortSlow.ufo
<glyph name="ampersand" format="2">
  <advance width="853"/>
  <unicode hex="0026"/>
  <outline>
    <contour>
      <point x="344" y="-19" type="curve" smooth="yes"/>
      <point x="432" y="-19"/>
      <point x="529" y="18"/>
      <point x="605" y="93" type="curve"/>
      <point x="704" y="-14" type="line"/>
      <point x="718" y="-27"/>
      <point x="734" y="-24"/>
      <point x="755" y="-4" type="curve" smooth="yes"/>
      <point x="775" y="16"/>
      <point x="780" y="34"/>
      <point x="768" y="46" type="curve" smooth="yes"/>
      <point x="661" y="160" type="line"/>
      <point x="710" y="233"/>
      <point x="741" y="328"/>
      <point x="741" y="446" type="curve" smooth="yes"/>
      <point x="741" y="465"/>
      <point x="726" y="474"/>
      <point x="698" y="474" type="curve" smooth="yes"/>
      <point x="669" y="474"/>
      <point x="654" y="465"/>
      <point x="654" y="446" type="curve" smooth="yes"/>
      <point x="654" y="355"/>
      <point x="634" y="281"/>
      <point x="601" y="223" type="curve"/>
      <point x="366" y="472" type="line"/>
      <point x="469" y="523"/>
      <point x="573" y="574"/>
      <point x="573" y="701" type="curve" smooth="yes"/>
      <point x="573" y="810"/>
      <point x="488" y="890"/>
      <point x="363" y="890" type="curve" smooth="yes"/>
      <point x="230" y="890"/>
      <point x="146" y="796"/>
      <point x="146" y="683" type="curve" smooth="yes"/>
      <point x="146" y="604"/>
      <point x="184" y="549"/>
      <point x="235" y="491" type="curve"/>
      <point x="149" y="444"/>
      <point x="73" y="380"/>
      <point x="73" y="251" type="curve" smooth="yes"/>
      <point x="73" y="91"/>
      <point x="185" y="-19"/>
    </contour>
    <contour>
      <point x="346" y="64" type="curve" smooth="yes"/>
      <point x="243" y="64"/>
      <point x="165" y="134"/>
      <point x="165" y="251" type="curve" smooth="yes"/>
      <point x="165" y="341"/>
      <point x="220" y="392"/>
      <point x="290" y="432" type="curve"/>
      <point x="549" y="153" type="line"/>
      <point x="490" y="93"/>
      <point x="415" y="64"/>
    </contour>
    <contour>
      <point x="312" y="529" type="curve"/>
      <point x="265" y="579"/>
      <point x="239" y="620"/>
      <point x="239" y="681" type="curve" smooth="yes"/>
      <point x="239" y="760"/>
      <point x="289" y="808"/>
      <point x="363" y="808" type="curve" smooth="yes"/>
      <point x="429" y="808"/>
      <point x="480" y="770"/>
      <point x="480" y="701" type="curve" smooth="yes"/>
      <point x="480" y="612"/>
      <point x="400" y="572"/>
    </contour>
  </outline>
</glyph>
<glyph name="quotesingle" format="2">
  <advance width="169"/>
  <unicode hex="0027"/>
  <outline>
    <contour>
      <point x="89" y="648" type="curve" smooth="yes"/>
      <point x="114" y="648"/>
      <point x="119" y="663"/>
      <point x="120" y="679" type="curve" smooth="yes"/>
      <point x="135" y="880" type="line" smooth="yes"/>
      <point x="136" y="901"/>
      <point x="124" y="920"/>
      <point x="89" y="920" type="curve" smooth="yes"/>
      <point x="54" y="920"/>
      <point x="41" y="901"/>
      <point x="43" y="880" type="curve" smooth="yes"/>
      <point x="58" y="679" type="line" smooth="yes"/>
      <point x="59" y="663"/>
      <point x="63" y="648"/>
    </contour>
  </outline>
</glyph>
<glyph name="parenright" format="2">
  <advance width="286"/>
  <unicode hex="0029"/>
  <outline>
    <contour>
      <point x="48" y="-21" type="curve" smooth="yes"/>
      <point x="33" y="-54"/>
      <point x="40" y="-62"/>
      <point x="68" y="-74" type="curve" smooth="yes"/>
      <point x="98" y="-86"/>
      <point x="108" y="-82"/>
      <point x="119" y="-59" type="curve" smooth="yes"/>
      <point x="199" y="110"/>
      <point x="230" y="274"/>
      <point x="230" y="438" type="curve" smooth="yes"/>
      <point x="230" y="601"/>
      <point x="199" y="765"/>
      <point x="119" y="934" type="curve" smooth="yes"/>
      <point x="108" y="958"/>
      <point x="98" y="961"/>
      <point x="68" y="949" type="curve" smooth="yes"/>
      <point x="40" y="938"/>
      <point x="33" y="929"/>
      <point x="48" y="896" type="curve" smooth="yes"/>
      <point x="109" y="765"/>
      <point x="143" y="601"/>
      <point x="143" y="438" type="curve" smooth="yes"/>
      <point x="143" y="274"/>
      <point x="109" y="110"/>
    </contour>
  </outline>
</glyph>
<glyph name="plus" format="2">
  <advance width="763"/>
  <unicode hex="002B"/>
  <outline>
    <contour>
      <point x="381" y="155" type="curve" smooth="yes"/>
      <point x="410" y="155"/>
      <point x="424" y="164"/>
      <point x="424" y="181" type="curve" smooth="yes"/>
      <point x="424" y="691" type="line" smooth="yes"/>
      <point x="424" y="709"/>
      <point x="410" y="718"/>
      <point x="381" y="718" type="curve" smooth="yes"/>
      <point x="353" y="718"/>
      <point x="339" y="709"/>
      <point x="339" y="691" type="curve" smooth="yes"/>
      <point x="339" y="181" type="line" smooth="yes"/>
      <point x="339" y="164"/>
      <point x="353" y="155"/>
    </contour>
    <component base="minus"/>
  </outline>
</glyph>
<glyph name="comma" format="2">
  <advance width="313"/>
  <unicode hex="002C"/>
  <outline>
    <contour>
      <point x="103" y="-189" type="curve" smooth="yes"/>
      <point x="116" y="-189"/>
      <point x="125" y="-180"/>
      <point x="131" y="-172" type="curve" smooth="yes"/>
      <point x="184" y="-109"/>
      <point x="204" y="-26"/>
      <point x="204" y="44" type="curve" smooth="yes"/>
      <point x="204" y="69"/>
      <point x="185" y="84"/>
      <point x="155" y="84" type="curve" smooth="yes"/>
      <point x="126" y="84"/>
      <point x="108" y="71"/>
      <point x="108" y="46" type="curve" smooth="yes"/>
      <point x="108" y="-46"/>
      <point x="103" y="-74"/>
      <point x="74" y="-132" type="curve" smooth="yes"/>
      <point x="68" y="-144"/>
      <point x="64" y="-152"/>
      <point x="64" y="-157" type="curve" smooth="yes"/>
      <point x="64" y="-175"/>
      <point x="84" y="-189"/>
    </contour>
  </outline>
</glyph>
<glyph name="zero" format="2">
  <advance width="763"/>
  <unicode hex="0030"/>
  <outline>
    <contour>
      <point x="384" y="-19" type="curve" smooth="yes"/>
      <point x="569" y="-19"/>
      <point x="708" y="121"/>
      <point x="708" y="436" type="curve" smooth="yes"/>
      <point x="708" y="750"/>
      <point x="569" y="890"/>
      <point x="384" y="890" type="curve" smooth="yes"/>
      <point x="194" y="890"/>
      <point x="55" y="750"/>
      <point x="55" y="436" type="curve" smooth="yes"/>
      <point x="55" y="121"/>
      <point x="194" y="-19"/>
    </contour>
    <contour>
      <point x="381" y="66" type="curve" smooth="yes"/>
      <point x="245" y="66"/>
      <point x="149" y="183"/>
      <point x="149" y="436" type="curve" smooth="yes"/>
      <point x="149" y="690"/>
      <point x="245" y="805"/>
      <point x="381" y="805" type="curve" smooth="yes"/>
      <point x="518" y="805"/>
      <point x="614" y="690"/>
      <point x="614" y="436" type="curve" smooth="yes"/>
      <point x="614" y="183"/>
      <point x="518" y="66"/>
    </contour>
  </outline>
</glyph>
<glyph name="three" format="2">
  <advance width="663"/>
  <unicode hex="0033"/>
  <outline>
    <contour>
      <point x="313" y="-19" type="curve" smooth="yes"/>
      <point x="499" y="-19"/>
      <point x="605" y="83"/>
      <point x="605" y="245" type="curve" smooth="yes"/>
      <point x="605" y="348"/>
      <point x="545" y="443"/>
      <point x="418" y="473" type="curve"/>
      <point x="524" y="506"/>
      <point x="568" y="586"/>
      <point x="568" y="669" type="curve" smooth="yes"/>
      <point x="568" y="814"/>
      <point x="453" y="890"/>
      <point x="309" y="890" type="curve" smooth="yes"/>
      <point x="204" y="890"/>
      <point x="111" y="839"/>
      <point x="60" y="786" type="curve" smooth="yes"/>
      <point x="46" y="773"/>
      <point x="40" y="755"/>
      <point x="63" y="734" type="curve" smooth="yes"/>
      <point x="81" y="715"/>
      <point x="95" y="716"/>
      <point x="119" y="734" type="curve" smooth="yes"/>
      <point x="175" y="778"/>
      <point x="238" y="810"/>
      <point x="309" y="810" type="curve" smooth="yes"/>
      <point x="388" y="810"/>
      <point x="478" y="766"/>
      <point x="478" y="666" type="curve" smooth="yes"/>
      <point x="478" y="588"/>
      <point x="423" y="511"/>
      <point x="299" y="511" type="curve" smooth="yes"/>
      <point x="241" y="511" type="line" smooth="yes"/>
      <point x="223" y="511"/>
      <point x="214" y="503"/>
      <point x="214" y="474" type="curve" smooth="yes"/>
      <point x="214" y="446"/>
      <point x="219" y="431"/>
      <point x="241" y="431" type="curve" smooth="yes"/>
      <point x="296" y="431" type="line" smooth="yes"/>
      <point x="429" y="431"/>
      <point x="514" y="351"/>
      <point x="514" y="248" type="curve" smooth="yes"/>
      <point x="514" y="125"/>
      <point x="431" y="61"/>
      <point x="311" y="61" type="curve" smooth="yes"/>
      <point x="233" y="61"/>
      <point x="154" y="106"/>
      <point x="91" y="180" type="curve" smooth="yes"/>
      <point x="74" y="201"/>
      <point x="56" y="199"/>
      <point x="36" y="181" type="curve" smooth="yes"/>
      <point x="13" y="160"/>
      <point x="20" y="143"/>
      <point x="33" y="128" type="curve" smooth="yes"/>
      <point x="111" y="29"/>
      <point x="213" y="-19"/>
    </contour>
  </outline>
</glyph>
<glyph name="six" format="2">
  <advance width="713"/>
  <unicode hex="0036"/>
  <guideline x="-20" y="349" angle="0"/>
  <guideline x="290"/>
  <guideline x="70"/>
  <guideline x="500"/>
  <outline>
    <contour>
      <point x="375" y="-19" type="curve" smooth="yes"/>
      <point x="553" y="-19"/>
      <point x="663" y="98"/>
      <point x="663" y="275" type="curve" smooth="yes"/>
      <point x="663" y="446"/>
      <point x="553" y="553"/>
      <point x="379" y="553" type="curve" smooth="yes"/>
      <point x="255" y="553"/>
      <point x="150" y="476"/>
      <point x="115" y="366" type="curve"/>
      <point x="145" y="320" type="line"/>
      <point x="183" y="406"/>
      <point x="270" y="473"/>
      <point x="378" y="473" type="curve" smooth="yes"/>
      <point x="496" y="473"/>
      <point x="571" y="395"/>
      <point x="571" y="273" type="curve" smooth="yes"/>
      <point x="571" y="145"/>
      <point x="499" y="61"/>
      <point x="375" y="61" type="curve" smooth="yes"/>
      <point x="258" y="61"/>
      <point x="166" y="160"/>
      <point x="166" y="350" type="curve" smooth="yes"/>
      <point x="166" y="629"/>
      <point x="281" y="790"/>
      <point x="539" y="810" type="curve" smooth="yes"/>
      <point x="564" y="813"/>
      <point x="570" y="824"/>
      <point x="568" y="855" type="curve" smooth="yes"/>
      <point x="565" y="883"/>
      <point x="556" y="890"/>
      <point x="505" y="886" type="curve" smooth="yes"/>
      <point x="241" y="864"/>
      <point x="75" y="695"/>
      <point x="75" y="350" type="curve" smooth="yes"/>
      <point x="75" y="130"/>
      <point x="181" y="-19"/>
    </contour>
  </outline>
</glyph>
<glyph name="question" format="2">
  <advance width="498"/>
  <unicode hex="003F"/>
  <guideline x="361"/>
  <guideline x="15"/>
  <outline>
    <contour>
      <point x="195" y="215" type="curve" smooth="yes"/>
      <point x="224" y="215"/>
      <point x="239" y="224"/>
      <point x="239" y="243" type="curve" smooth="yes"/>
      <point x="239" y="383" type="line"/>
      <point x="360" y="404"/>
      <point x="485" y="473"/>
      <point x="485" y="644" type="curve" smooth="yes"/>
      <point x="485" y="806"/>
      <point x="373" y="890"/>
      <point x="240" y="890" type="curve" smooth="yes"/>
      <point x="165" y="890"/>
      <point x="83" y="856"/>
      <point x="24" y="800" type="curve" smooth="yes"/>
      <point x="9" y="786"/>
      <point x="14" y="771"/>
      <point x="29" y="755" type="curve" smooth="yes"/>
      <point x="46" y="738"/>
      <point x="60" y="734"/>
      <point x="76" y="748" type="curve" smooth="yes"/>
      <point x="113" y="780"/>
      <point x="160" y="810"/>
      <point x="240" y="810" type="curve" smooth="yes"/>
      <point x="341" y="810"/>
      <point x="395" y="741"/>
      <point x="395" y="646" type="curve" smooth="yes"/>
      <point x="395" y="506"/>
      <point x="304" y="460"/>
      <point x="185" y="460" type="curve" smooth="yes"/>
      <point x="163" y="460"/>
      <point x="151" y="449"/>
      <point x="151" y="433" type="curve" smooth="yes"/>
      <point x="151" y="243" type="line" smooth="yes"/>
      <point x="151" y="224"/>
      <point x="166" y="215"/>
    </contour>
    <contour>
      <point x="195" y="-14" type="curve" smooth="yes"/>
      <point x="231" y="-14"/>
      <point x="250" y="6"/>
      <point x="250" y="49" type="curve" smooth="yes"/>
      <point x="250" y="91"/>
      <point x="231" y="113"/>
      <point x="195" y="113" type="curve" smooth="yes"/>
      <point x="158" y="113"/>
      <point x="139" y="91"/>
      <point x="139" y="49" type="curve" smooth="yes"/>
      <point x="139" y="6"/>
      <point x="158" y="-14"/>
    </contour>
  </outline>
</glyph>
<glyph name="G" format="2">
  <advance width="875"/>
  <unicode hex="0047"/>
  <anchor x="438" y="0" name="bottom"/>
  <anchor x="450" y="838" name="top"/>
  <outline>
    <contour>
      <point x="451" y="-19" type="curve" smooth="yes"/>
      <point x="638" y="-20"/>
      <point x="789" y="106"/>
      <point x="789" y="428" type="curve" smooth="yes"/>
      <point x="789" y="458"/>
      <point x="781" y="468"/>
      <point x="761" y="468" type="curve" smooth="yes"/>
      <point x="473" y="468" type="line" smooth="yes"/>
      <point x="453" y="468"/>
      <point x="445" y="458"/>
      <point x="445" y="428" type="curve" smooth="yes"/>
      <point x="445" y="398"/>
      <point x="453" y="388"/>
      <point x="473" y="388" type="curve" smooth="yes"/>
      <point x="699" y="388" type="line"/>
      <point x="695" y="161"/>
      <point x="615" y="66"/>
      <point x="451" y="66" type="curve" smooth="yes"/>
      <point x="296" y="66"/>
      <point x="175" y="201"/>
      <point x="175" y="436" type="curve" smooth="yes"/>
      <point x="175" y="670"/>
      <point x="296" y="805"/>
      <point x="464" y="805" type="curve" smooth="yes"/>
      <point x="544" y="805"/>
      <point x="615" y="775"/>
      <point x="666" y="724" type="curve" smooth="yes"/>
      <point x="679" y="711"/>
      <point x="691" y="714"/>
      <point x="710" y="730" type="curve" smooth="yes"/>
      <point x="726" y="744"/>
      <point x="733" y="755"/>
      <point x="721" y="771" type="curve" smooth="yes"/>
      <point x="655" y="866"/>
      <point x="555" y="890"/>
      <point x="464" y="890" type="curve" smooth="yes"/>
      <point x="230" y="890"/>
      <point x="81" y="700"/>
      <point x="81" y="436" type="curve" smooth="yes"/>
      <point x="81" y="173"/>
      <point x="230" y="-17"/>
    </contour>
  </outline>
</glyph>
<glyph name="J" format="2">
  <advance width="650"/>
  <unicode hex="004A"/>
  <anchor x="300" y="0" name="bottom"/>
  <anchor x="500" y="838" name="top"/>
  <outline>
    <contour>
      <point x="289" y="-19" type="curve" smooth="yes"/>
      <point x="434" y="-19"/>
      <point x="544" y="84"/>
      <point x="544" y="273" type="curve" smooth="yes"/>
      <point x="544" y="863" type="line" smooth="yes"/>
      <point x="544" y="881"/>
      <point x="529" y="890"/>
      <point x="500" y="890" type="curve" smooth="yes"/>
      <point x="471" y="890"/>
      <point x="456" y="881"/>
      <point x="456" y="863" type="curve" smooth="yes"/>
      <point x="456" y="273" type="line" smooth="yes"/>
      <point x="456" y="124"/>
      <point x="380" y="66"/>
      <point x="289" y="66" type="curve" smooth="yes"/>
      <point x="179" y="66"/>
      <point x="139" y="106"/>
      <point x="108" y="185" type="curve" smooth="yes"/>
      <point x="101" y="203"/>
      <point x="83" y="201"/>
      <point x="64" y="195" type="curve" smooth="yes"/>
      <point x="44" y="189"/>
      <point x="31" y="179"/>
      <point x="36" y="161" type="curve" smooth="yes"/>
      <point x="74" y="43"/>
      <point x="166" y="-19"/>
    </contour>
  </outline>
</glyph>
<glyph name="Q" format="2">
  <advance width="925"/>
  <unicode hex="0051"/>
  <anchor x="463" y="0" name="bottom"/>
  <anchor x="463" y="438" name="center"/>
  <anchor x="591" y="6" name="ogonek"/>
  <anchor x="463" y="838" name="top"/>
  <anchor x="568" y="875" name="topright"/>
  <outline>
    <contour>
      <point x="709" y="-174" type="curve" smooth="yes"/>
      <point x="729" y="-157"/>
      <point x="730" y="-139"/>
      <point x="719" y="-121" type="curve" smooth="yes"/>
      <point x="511" y="171" type="line" smooth="yes"/>
      <point x="496" y="191"/>
      <point x="474" y="194"/>
      <point x="456" y="178" type="curve" smooth="yes"/>
      <point x="434" y="160"/>
      <point x="433" y="141"/>
      <point x="444" y="124" type="curve" smooth="yes"/>
      <point x="654" y="-170" type="line" smooth="yes"/>
      <point x="668" y="-187"/>
      <point x="686" y="-189"/>
    </contour>
    <component base="O"/>
  </outline>
</glyph>
<glyph name="T" format="2">
  <advance width="690"/>
  <unicode hex="0054"/>
  <anchor x="345" y="0" name="bottom"/>
  <anchor x="345" y="438" name="center"/>
  <anchor x="345" y="838" name="top"/>
  <outline>
    <contour>
      <point x="345" y="-15" type="curve" smooth="yes"/>
      <point x="374" y="-15"/>
      <point x="389" y="-6"/>
      <point x="389" y="13" type="curve" smooth="yes"/>
      <point x="389" y="795" type="line"/>
      <point x="648" y="795" type="line" smooth="yes"/>
      <point x="668" y="795"/>
      <point x="675" y="805"/>
      <point x="675" y="835" type="curve" smooth="yes"/>
      <point x="675" y="865"/>
      <point x="668" y="875"/>
      <point x="648" y="875" type="curve" smooth="yes"/>
      <point x="43" y="875" type="line" smooth="yes"/>
      <point x="23" y="875"/>
      <point x="15" y="865"/>
      <point x="15" y="835" type="curve" smooth="yes"/>
      <point x="15" y="805"/>
      <point x="23" y="795"/>
      <point x="43" y="795" type="curve" smooth="yes"/>
      <point x="301" y="795" type="line"/>
      <point x="301" y="13" type="line" smooth="yes"/>
      <point x="301" y="-6"/>
      <point x="316" y="-15"/>
    </contour>
  </outline>
</glyph>
<glyph name="U" format="2">
  <advance width="863"/>
  <unicode hex="0055"/>
  <anchor x="431" y="0" name="bottom"/>
  <anchor x="588" y="13" name="ogonek"/>
  <anchor x="431" y="838" name="top"/>
  <anchor x="708" y="888" name="topright"/>
  <outline>
    <contour>
      <point x="434" y="-19" type="curve" smooth="yes"/>
      <point x="623" y="-19"/>
      <point x="738" y="91"/>
      <point x="738" y="273" type="curve" smooth="yes"/>
      <point x="738" y="863" type="line" smooth="yes"/>
      <point x="738" y="881"/>
      <point x="723" y="890"/>
      <point x="694" y="890" type="curve" smooth="yes"/>
      <point x="665" y="890"/>
      <point x="650" y="881"/>
      <point x="650" y="863" type="curve" smooth="yes"/>
      <point x="650" y="273" type="line" smooth="yes"/>
      <point x="650" y="144"/>
      <point x="569" y="66"/>
      <point x="434" y="66" type="curve" smooth="yes"/>
      <point x="296" y="66"/>
      <point x="213" y="144"/>
      <point x="213" y="273" type="curve" smooth="yes"/>
      <point x="213" y="863" type="line" smooth="yes"/>
      <point x="213" y="881"/>
      <point x="198" y="890"/>
      <point x="169" y="890" type="curve" smooth="yes"/>
      <point x="140" y="890"/>
      <point x="125" y="881"/>
      <point x="125" y="863" type="curve" smooth="yes"/>
      <point x="125" y="273" type="line" smooth="yes"/>
      <point x="125" y="91"/>
      <point x="243" y="-19"/>
    </contour>
  </outline>
</glyph>
<glyph name="a" format="2">
  <advance width="624"/>
  <unicode hex="0061"/>
  <anchor x="280" y="0" name="bottom"/>
  <anchor x="579" y="0" name="ogonek"/>
  <anchor x="306" y="500" name="top"/>
  <outline>
    <contour>
      <point x="258" y="-17" type="curve" smooth="yes"/>
      <point x="310" y="-17"/>
      <point x="370" y="0"/>
      <point x="416" y="75" type="curve"/>
      <point x="416" y="70"/>
      <point x="418" y="64"/>
      <point x="418" y="63" type="curve" smooth="yes"/>
      <point x="425" y="11"/>
      <point x="454" y="-17"/>
      <point x="515" y="-17" type="curve" smooth="yes"/>
      <point x="554" y="-17"/>
      <point x="596" y="1"/>
      <point x="619" y="33" type="curve" smooth="yes"/>
      <point x="626" y="44"/>
      <point x="625" y="59"/>
      <point x="613" y="73" type="curve" smooth="yes"/>
      <point x="601" y="84"/>
      <point x="588" y="88"/>
      <point x="579" y="80" type="curve" smooth="yes"/>
      <point x="561" y="66"/>
      <point x="554" y="58"/>
      <point x="534" y="58" type="curve" smooth="yes"/>
      <point x="515" y="58"/>
      <point x="503" y="69"/>
      <point x="503" y="96" type="curve" smooth="yes"/>
      <point x="503" y="488" type="line" smooth="yes"/>
      <point x="503" y="506"/>
      <point x="489" y="515"/>
      <point x="460" y="515" type="curve" smooth="yes"/>
      <point x="431" y="515"/>
      <point x="416" y="506"/>
      <point x="416" y="486" type="curve" smooth="yes"/>
      <point x="416" y="481" type="line"/>
      <point x="376" y="504"/>
      <point x="329" y="519"/>
      <point x="286" y="519" type="curve" smooth="yes"/>
      <point x="146" y="519"/>
      <point x="63" y="409"/>
      <point x="63" y="235" type="curve" smooth="yes"/>
      <point x="63" y="65"/>
      <point x="143" y="-17"/>
    </contour>
    <contour>
      <point x="151" y="239" type="curve" smooth="yes"/>
      <point x="151" y="374"/>
      <point x="209" y="440"/>
      <point x="295" y="440" type="curve" smooth="yes"/>
      <point x="338" y="440"/>
      <point x="375" y="433"/>
      <point x="416" y="408" type="curve"/>
      <point x="416" y="166" type="line"/>
      <point x="379" y="91"/>
      <point x="328" y="63"/>
      <point x="270" y="63" type="curve" smooth="yes"/>
      <point x="190" y="63"/>
      <point x="151" y="129"/>
    </contour>
  </outline>
</glyph>
<glyph name="b" format="2">
  <advance width="598"/>
  <unicode hex="0062"/>
  <anchor x="323" y="0" name="bottom"/>
  <anchor x="323" y="250" name="center"/>
  <anchor x="323" y="500" name="top"/>
  <outline>
    <contour>
      <point x="143" y="-15" type="curve" smooth="yes"/>
      <point x="171" y="-15"/>
      <point x="186" y="-6"/>
      <point x="186" y="11" type="curve" smooth="yes"/>
      <point x="186" y="15" type="line"/>
      <point x="221" y="-6"/>
      <point x="260" y="-17"/>
      <point x="304" y="-17" type="curve" smooth="yes"/>
      <point x="451" y="-17"/>
      <point x="535" y="93"/>
      <point x="535" y="266" type="curve" smooth="yes"/>
      <point x="535" y="436"/>
      <point x="455" y="519"/>
      <point x="340" y="519" type="curve" smooth="yes"/>
      <point x="290" y="519"/>
      <point x="233" y="503"/>
      <point x="186" y="436" type="curve"/>
      <point x="186" y="861" type="line" smooth="yes"/>
      <point x="186" y="881"/>
      <point x="171" y="890"/>
      <point x="143" y="890" type="curve" smooth="yes"/>
      <point x="114" y="890"/>
      <point x="100" y="881"/>
      <point x="100" y="864" type="curve" smooth="yes"/>
      <point x="100" y="11" type="line" smooth="yes"/>
      <point x="100" y="-6"/>
      <point x="114" y="-15"/>
    </contour>
    <contour>
      <point x="186" y="91" type="curve"/>
      <point x="186" y="348" type="line"/>
      <point x="224" y="413"/>
      <point x="274" y="439"/>
      <point x="328" y="439" type="curve" smooth="yes"/>
      <point x="408" y="439"/>
      <point x="446" y="373"/>
      <point x="446" y="263" type="curve" smooth="yes"/>
      <point x="446" y="128"/>
      <point x="390" y="58"/>
      <point x="304" y="58" type="curve" smooth="yes"/>
      <point x="264" y="58"/>
      <point x="226" y="68"/>
    </contour>
  </outline>
</glyph>
<glyph name="i" format="2">
  <advance width="304"/>
  <unicode hex="0069"/>
  <anchor x="195" y="0" name="bottom"/>
  <anchor x="250" y="0" name="ogonek"/>
  <outline>
    <contour>
      <point x="193" y="-17" type="curve" smooth="yes"/>
      <point x="231" y="-17"/>
      <point x="273" y="1"/>
      <point x="295" y="33" type="curve" smooth="yes"/>
      <point x="303" y="44"/>
      <point x="301" y="58"/>
      <point x="291" y="70" type="curve" smooth="yes"/>
      <point x="283" y="81"/>
      <point x="266" y="88"/>
      <point x="258" y="81" type="curve" smooth="yes"/>
      <point x="241" y="69"/>
      <point x="233" y="58"/>
      <point x="211" y="58" type="curve" smooth="yes"/>
      <point x="193" y="58"/>
      <point x="180" y="69"/>
      <point x="180" y="96" type="curve" smooth="yes"/>
      <point x="180" y="489" type="line" smooth="yes"/>
      <point x="180" y="506"/>
      <point x="165" y="515"/>
      <point x="136" y="515" type="curve" smooth="yes"/>
      <point x="108" y="515"/>
      <point x="94" y="506"/>
      <point x="94" y="489" type="curve" smooth="yes"/>
      <point x="94" y="86" type="line" smooth="yes"/>
      <point x="94" y="21"/>
      <point x="123" y="-17"/>
    </contour>
    <contour>
      <point x="138" y="669" type="curve" smooth="yes"/>
      <point x="174" y="669"/>
      <point x="194" y="689"/>
      <point x="193" y="731" type="curve" smooth="yes"/>
      <point x="193" y="774"/>
      <point x="174" y="795"/>
      <point x="138" y="795" type="curve" smooth="yes"/>
      <point x="100" y="795"/>
      <point x="81" y="774"/>
      <point x="81" y="731" type="curve" smooth="yes"/>
      <point x="81" y="689"/>
      <point x="100" y="669"/>
    </contour>
  </outline>
</glyph>
<glyph name="l" format="2">
  <advance width="306"/>
  <unicode hex="006C"/>
  <anchor x="147" y="438" name="CAT"/>
  <anchor x="201" y="0" name="bottom"/>
  <anchor x="135" y="438" name="center"/>
  <anchor x="131" y="838" name="top"/>
  <anchor x="150" y="875" name="topright"/>
  <outline>
    <contour>
      <point x="194" y="-17" type="curve" smooth="yes"/>
      <point x="232" y="-17"/>
      <point x="276" y="1"/>
      <point x="299" y="35" type="curve" smooth="yes"/>
      <point x="306" y="46"/>
      <point x="301" y="60"/>
      <point x="294" y="70" type="curve" smooth="yes"/>
      <point x="282" y="84"/>
      <point x="269" y="88"/>
      <point x="259" y="80" type="curve" smooth="yes"/>
      <point x="244" y="69"/>
      <point x="234" y="58"/>
      <point x="212" y="58" type="curve" smooth="yes"/>
      <point x="194" y="58"/>
      <point x="181" y="69"/>
      <point x="181" y="96" type="curve" smooth="yes"/>
      <point x="181" y="864" type="line" smooth="yes"/>
      <point x="181" y="881"/>
      <point x="166" y="890"/>
      <point x="137" y="890" type="curve" smooth="yes"/>
      <point x="109" y="890"/>
      <point x="95" y="881"/>
      <point x="95" y="864" type="curve" smooth="yes"/>
      <point x="95" y="86" type="line" smooth="yes"/>
      <point x="95" y="21"/>
      <point x="124" y="-17"/>
    </contour>
  </outline>
</glyph>
<glyph name="m" format="2">
  <advance width="963"/>
  <unicode hex="006D"/>
  <anchor x="469" y="0" name="bottom"/>
  <anchor x="474" y="500" name="top"/>
  <outline>
    <contour>
      <point x="856" y="-17" type="curve" smooth="yes"/>
      <point x="895" y="-17"/>
      <point x="938" y="1"/>
      <point x="960" y="33" type="curve" smooth="yes"/>
      <point x="968" y="44"/>
      <point x="964" y="59"/>
      <point x="956" y="69" type="curve" smooth="yes"/>
      <point x="945" y="83"/>
      <point x="930" y="86"/>
      <point x="921" y="80" type="curve" smooth="yes"/>
      <point x="905" y="68"/>
      <point x="898" y="58"/>
      <point x="875" y="58" type="curve" smooth="yes"/>
      <point x="856" y="58"/>
      <point x="844" y="69"/>
      <point x="844" y="96" type="curve" smooth="yes"/>
      <point x="844" y="334" type="line" smooth="yes"/>
      <point x="844" y="465"/>
      <point x="770" y="519"/>
      <point x="668" y="519" type="curve" smooth="yes"/>
      <point x="542" y="519"/>
      <point x="455" y="410"/>
      <point x="455" y="259" type="curve"/>
      <point x="481" y="259" type="line"/>
      <point x="509" y="396"/>
      <point x="586" y="439"/>
      <point x="656" y="439" type="curve" smooth="yes"/>
      <point x="730" y="439"/>
      <point x="758" y="396"/>
      <point x="758" y="326" type="curve" smooth="yes"/>
      <point x="758" y="86" type="line" smooth="yes"/>
      <point x="758" y="21"/>
      <point x="786" y="-17"/>
    </contour>
    <contour>
      <point x="136" y="-15" type="curve" smooth="yes"/>
      <point x="165" y="-15"/>
      <point x="180" y="-6"/>
      <point x="180" y="11" type="curve" smooth="yes"/>
      <point x="180" y="329" type="line"/>
      <point x="216" y="411"/>
      <point x="276" y="439"/>
      <point x="323" y="439" type="curve" smooth="yes"/>
      <point x="398" y="439"/>
      <point x="426" y="398"/>
      <point x="426" y="326" type="curve" smooth="yes"/>
      <point x="426" y="11" type="line" smooth="yes"/>
      <point x="426" y="-6"/>
      <point x="440" y="-15"/>
      <point x="469" y="-15" type="curve" smooth="yes"/>
      <point x="498" y="-15"/>
      <point x="513" y="-6"/>
      <point x="513" y="11" type="curve" smooth="yes"/>
      <point x="513" y="334" type="line" smooth="yes"/>
      <point x="513" y="465"/>
      <point x="436" y="519"/>
      <point x="335" y="519" type="curve" smooth="yes"/>
      <point x="286" y="519"/>
      <point x="223" y="496"/>
      <point x="180" y="430" type="curve"/>
      <point x="180" y="489" type="line" smooth="yes"/>
      <point x="180" y="506"/>
      <point x="165" y="515"/>
      <point x="136" y="515" type="curve" smooth="yes"/>
      <point x="108" y="515"/>
      <point x="94" y="506"/>
      <point x="94" y="489" type="curve" smooth="yes"/>
      <point x="94" y="11" type="line" smooth="yes"/>
      <point x="94" y="-6"/>
      <point x="108" y="-15"/>
    </contour>
  </outline>
</glyph>
<glyph name="q" format="2">
  <advance width="598"/>
  <unicode hex="0071"/>
  <outline>
    <contour>
      <point x="258" y="-17" type="curve" smooth="yes"/>
      <point x="309" y="-17"/>
      <point x="370" y="-1"/>
      <point x="418" y="68" type="curve"/>
      <point x="418" y="-364" type="line" smooth="yes"/>
      <point x="418" y="-381"/>
      <point x="433" y="-390"/>
      <point x="461" y="-390" type="curve" smooth="yes"/>
      <point x="490" y="-390"/>
      <point x="504" y="-381"/>
      <point x="504" y="-364" type="curve" smooth="yes"/>
      <point x="504" y="489" type="line" smooth="yes"/>
      <point x="504" y="506"/>
      <point x="490" y="515"/>
      <point x="461" y="515" type="curve" smooth="yes"/>
      <point x="433" y="515"/>
      <point x="418" y="506"/>
      <point x="418" y="489" type="curve" smooth="yes"/>
      <point x="418" y="484" type="line"/>
      <point x="378" y="506"/>
      <point x="330" y="519"/>
      <point x="286" y="519" type="curve" smooth="yes"/>
      <point x="146" y="519"/>
      <point x="63" y="409"/>
      <point x="63" y="235" type="curve" smooth="yes"/>
      <point x="63" y="65"/>
      <point x="143" y="-17"/>
    </contour>
    <contour>
      <point x="151" y="239" type="curve" smooth="yes"/>
      <point x="151" y="374"/>
      <point x="209" y="440"/>
      <point x="295" y="440" type="curve" smooth="yes"/>
      <point x="338" y="440"/>
      <point x="376" y="430"/>
      <point x="418" y="404" type="curve"/>
      <point x="418" y="166" type="line"/>
      <point x="380" y="91"/>
      <point x="328" y="63"/>
      <point x="270" y="63" type="curve" smooth="yes"/>
      <point x="190" y="63"/>
      <point x="151" y="129"/>
    </contour>
  </outline>
</glyph>
<glyph name="copyright" format="2">
  <advance width="905"/>
  <unicode hex="00A9"/>
  <outline>
    <contour>
      <point x="453" y="65" type="curve" smooth="yes"/>
      <point x="656" y="65"/>
      <point x="819" y="228"/>
      <point x="819" y="431" type="curve" smooth="yes"/>
      <point x="819" y="635"/>
      <point x="656" y="798"/>
      <point x="453" y="798" type="curve" smooth="yes"/>
      <point x="249" y="798"/>
      <point x="86" y="635"/>
      <point x="86" y="431" type="curve" smooth="yes"/>
      <point x="86" y="228"/>
      <point x="249" y="65"/>
    </contour>
    <contour>
      <point x="453" y="115" type="curve" smooth="yes"/>
      <point x="279" y="115"/>
      <point x="136" y="258"/>
      <point x="136" y="431" type="curve" smooth="yes"/>
      <point x="136" y="605"/>
      <point x="279" y="748"/>
      <point x="453" y="748" type="curve" smooth="yes"/>
      <point x="626" y="748"/>
      <point x="769" y="605"/>
      <point x="769" y="431" type="curve" smooth="yes"/>
      <point x="769" y="258"/>
      <point x="626" y="115"/>
    </contour>
    <contour>
      <point x="451" y="229" type="curve" smooth="yes"/>
      <point x="504" y="229"/>
      <point x="559" y="259"/>
      <point x="598" y="318" type="curve" smooth="yes"/>
      <point x="603" y="326"/>
      <point x="600" y="335"/>
      <point x="585" y="346" type="curve" smooth="yes"/>
      <point x="574" y="355"/>
      <point x="559" y="363"/>
      <point x="554" y="356" type="curve" smooth="yes"/>
      <point x="521" y="319"/>
      <point x="490" y="300"/>
      <point x="459" y="300" type="curve" smooth="yes"/>
      <point x="400" y="300"/>
      <point x="354" y="343"/>
      <point x="354" y="434" type="curve" smooth="yes"/>
      <point x="354" y="525"/>
      <point x="400" y="568"/>
      <point x="455" y="568" type="curve" smooth="yes"/>
      <point x="490" y="568"/>
      <point x="519" y="553"/>
      <point x="545" y="531" type="curve" smooth="yes"/>
      <point x="551" y="526"/>
      <point x="560" y="530"/>
      <point x="575" y="543" type="curve" smooth="yes"/>
      <point x="589" y="554"/>
      <point x="594" y="561"/>
      <point x="586" y="573" type="curve" smooth="yes"/>
      <point x="550" y="625"/>
      <point x="495" y="638"/>
      <point x="455" y="638" type="curve" smooth="yes"/>
      <point x="350" y="638"/>
      <point x="276" y="544"/>
      <point x="276" y="434" type="curve" smooth="yes"/>
      <point x="276" y="325"/>
      <point x="338" y="229"/>
    </contour>
  </outline>
</glyph>
<glyph name="plusminus" format="2">
  <advance width="763"/>
  <unicode hex="00B1"/>
  <outline>
    <contour>
      <point x="381" y="218" type="curve" smooth="yes"/>
      <point x="410" y="218"/>
      <point x="424" y="226"/>
      <point x="424" y="244" type="curve" smooth="yes"/>
      <point x="424" y="704" type="line" smooth="yes"/>
      <point x="424" y="721"/>
      <point x="410" y="730"/>
      <point x="381" y="730" type="curve" smooth="yes"/>
      <point x="353" y="730"/>
      <point x="339" y="721"/>
      <point x="339" y="704" type="curve" smooth="yes"/>
      <point x="339" y="244" type="line" smooth="yes"/>
      <point x="339" y="226"/>
      <point x="353" y="218"/>
    </contour>
    <component base="minus" yOffset="-315"/>
    <component base="minus" yOffset="38"/>
  </outline>
</glyph>
<glyph name="AE" format="2">
  <advance width="964"/>
  <unicode hex="00C6"/>
  <anchor x="669" y="838" name="top"/>
  <outline>
    <contour>
      <point x="899" y="0" type="line" smooth="yes"/>
      <point x="919" y="0"/>
      <point x="926" y="10"/>
      <point x="926" y="40" type="curve" smooth="yes"/>
      <point x="926" y="70"/>
      <point x="919" y="80"/>
      <point x="899" y="80" type="curve" smooth="yes"/>
      <point x="564" y="80" type="line"/>
      <point x="564" y="398" type="line"/>
      <point x="836" y="398" type="line" smooth="yes"/>
      <point x="856" y="398"/>
      <point x="864" y="408"/>
      <point x="864" y="438" type="curve" smooth="yes"/>
      <point x="864" y="468"/>
      <point x="856" y="478"/>
      <point x="836" y="478" type="curve" smooth="yes"/>
      <point x="564" y="478" type="line"/>
      <point x="564" y="795" type="line"/>
      <point x="899" y="795" type="line" smooth="yes"/>
      <point x="919" y="795"/>
      <point x="926" y="805"/>
      <point x="926" y="835" type="curve" smooth="yes"/>
      <point x="926" y="865"/>
      <point x="919" y="875"/>
      <point x="899" y="875" type="curve" smooth="yes"/>
      <point x="469" y="875" type="line" smooth="yes"/>
      <point x="431" y="875"/>
      <point x="424" y="870"/>
      <point x="409" y="840" type="curve" smooth="yes"/>
      <point x="15" y="36" type="line" smooth="yes"/>
      <point x="6" y="18"/>
      <point x="15" y="0"/>
      <point x="36" y="-10" type="curve" smooth="yes"/>
      <point x="61" y="-21"/>
      <point x="81" y="-16"/>
      <point x="90" y="1" type="curve" smooth="yes"/>
      <point x="282" y="398" type="line"/>
      <point x="476" y="398" type="line"/>
      <point x="476" y="40" type="line" smooth="yes"/>
      <point x="476" y="13"/>
      <point x="491" y="0"/>
      <point x="520" y="0" type="curve" smooth="yes"/>
    </contour>
    <contour>
      <point x="321" y="478" type="line"/>
      <point x="476" y="798" type="line"/>
      <point x="476" y="478" type="line"/>
    </contour>
  </outline>
</glyph>
<glyph name="thorn" format="2">
  <advance width="598"/>
  <unicode hex="00FE"/>
  <outline>
    <contour>
      <point x="143" y="-390" type="curve" smooth="yes"/>
      <point x="171" y="-390"/>
      <point x="186" y="-381"/>
      <point x="186" y="-364" type="curve" smooth="yes"/>
      <point x="186" y="14" type="line"/>
      <point x="220" y="-6"/>
      <point x="261" y="-17"/>
      <point x="303" y="-17" type="curve" smooth="yes"/>
      <point x="451" y="-17"/>
      <point x="535" y="93"/>
      <point x="535" y="266" type="curve" smooth="yes"/>
      <point x="535" y="436"/>
      <point x="455" y="519"/>
      <point x="340" y="519" type="curve" smooth="yes"/>
      <point x="290" y="519"/>
      <point x="233" y="503"/>
      <point x="186" y="433" type="curve"/>
      <point x="186" y="864" type="line" smooth="yes"/>
      <point x="186" y="881"/>
      <point x="171" y="890"/>
      <point x="143" y="890" type="curve" smooth="yes"/>
      <point x="114" y="890"/>
      <point x="100" y="881"/>
      <point x="100" y="864" type="curve" smooth="yes"/>
      <point x="100" y="-364" type="line" smooth="yes"/>
      <point x="100" y="-381"/>
      <point x="114" y="-390"/>
    </contour>
    <contour>
      <point x="186" y="95" type="curve"/>
      <point x="186" y="343" type="line"/>
      <point x="224" y="411"/>
      <point x="274" y="439"/>
      <point x="328" y="439" type="curve" smooth="yes"/>
      <point x="408" y="439"/>
      <point x="446" y="373"/>
      <point x="446" y="263" type="curve" smooth="yes"/>
      <point x="446" y="128"/>
      <point x="389" y="61"/>
      <point x="303" y="61" type="curve" smooth="yes"/>
      <point x="264" y="61"/>
      <point x="226" y="71"/>
    </contour>
  </outline>
</glyph>
<glyph name="Eng" format="2">
  <advance width="888"/>
  <unicode hex="014A"/>
  <outline>
    <contour>
      <point x="763" y="-109" type="curve" smooth="yes"/>
      <point x="763" y="863" type="line" smooth="yes"/>
      <point x="763" y="881"/>
      <point x="748" y="890"/>
      <point x="719" y="890" type="curve" smooth="yes"/>
      <point x="690" y="890"/>
      <point x="675" y="881"/>
      <point x="675" y="863" type="curve" smooth="yes"/>
      <point x="675" y="171" type="line"/>
      <point x="219" y="863" type="line" smooth="yes"/>
      <point x="206" y="881"/>
      <point x="193" y="890"/>
      <point x="169" y="890" type="curve" smooth="yes"/>
      <point x="140" y="890"/>
      <point x="125" y="881"/>
      <point x="125" y="863" type="curve" smooth="yes"/>
      <point x="125" y="14" type="line" smooth="yes"/>
      <point x="125" y="-5"/>
      <point x="140" y="-14"/>
      <point x="169" y="-14" type="curve" smooth="yes"/>
      <point x="198" y="-14"/>
      <point x="213" y="-5"/>
      <point x="213" y="14" type="curve" smooth="yes"/>
      <point x="213" y="716" type="line"/>
      <point x="676" y="11" type="line"/>
      <point x="676" y="-115" type="line" smooth="yes"/>
      <point x="676" y="-155"/>
      <point x="668" y="-180"/>
      <point x="635" y="-180" type="curve" smooth="yes"/>
      <point x="613" y="-180"/>
      <point x="600" y="-169"/>
      <point x="583" y="-147" type="curve" smooth="yes"/>
      <point x="569" y="-130"/>
      <point x="555" y="-124"/>
      <point x="531" y="-137" type="curve" smooth="yes"/>
      <point x="511" y="-149"/>
      <point x="501" y="-164"/>
      <point x="511" y="-184" type="curve" smooth="yes"/>
      <point x="531" y="-222"/>
      <point x="574" y="-255"/>
      <point x="635" y="-255" type="curve" smooth="yes"/>
      <point x="703" y="-255"/>
      <point x="763" y="-220"/>
    </contour>
  </outline>
</glyph>
<glyph name="Ohorn" format="2">
  <advance width="925"/>
  <unicode hex="01A0"/>
  <anchor x="463" y="0" name="bottom"/>
  <anchor x="463" y="438" name="center"/>
  <anchor x="591" y="6" name="ogonek"/>
  <anchor x="463" y="838" name="top"/>
  <outline>
    <contour>
      <point x="464" y="-19" type="curve" smooth="yes"/>
      <point x="696" y="-19"/>
      <point x="844" y="173"/>
      <point x="844" y="436" type="curve" smooth="yes"/>
      <point x="844" y="609"/>
      <point x="781" y="750"/>
      <point x="672" y="827" type="curve"/>
      <point x="845" y="849"/>
      <point x="852" y="963"/>
      <point x="789" y="1067" type="curve" smooth="yes"/>
      <point x="762" y="1112"/>
      <point x="687" y="1070"/>
      <point x="713" y="1024" type="curve" smooth="yes"/>
      <point x="761" y="939"/>
      <point x="753" y="882"/>
      <point x="571" y="875" type="curve"/>
      <point x="538" y="885"/>
      <point x="502" y="890"/>
      <point x="464" y="890" type="curve" smooth="yes"/>
      <point x="230" y="890"/>
      <point x="81" y="700"/>
      <point x="81" y="436" type="curve" smooth="yes"/>
      <point x="81" y="173"/>
      <point x="230" y="-19"/>
    </contour>
    <contour>
      <point x="464" y="66" type="curve" smooth="yes"/>
      <point x="296" y="66"/>
      <point x="175" y="201"/>
      <point x="175" y="436" type="curve" smooth="yes"/>
      <point x="175" y="670"/>
      <point x="296" y="805"/>
      <point x="464" y="805" type="curve" smooth="yes"/>
      <point x="630" y="805"/>
      <point x="750" y="670"/>
      <point x="750" y="436" type="curve" smooth="yes"/>
      <point x="750" y="201"/>
      <point x="630" y="66"/>
    </contour>
  </outline>
</glyph>
<glyph name="jdotless" format="2">
  <advance width="268"/>
  <unicode hex="0237"/>
  <anchor x="130" y="500" name="top"/>
  <outline>
    <contour>
      <point x="49" y="-394" type="curve" smooth="yes"/>
      <point x="116" y="-394"/>
      <point x="175" y="-359"/>
      <point x="175" y="-247" type="curve" smooth="yes"/>
      <point x="175" y="489" type="line" smooth="yes"/>
      <point x="175" y="506"/>
      <point x="160" y="515"/>
      <point x="131" y="515" type="curve" smooth="yes"/>
      <point x="103" y="515"/>
      <point x="89" y="506"/>
      <point x="89" y="489" type="curve" smooth="yes"/>
      <point x="89" y="-251" type="line" smooth="yes"/>
      <point x="89" y="-290"/>
      <point x="81" y="-319"/>
      <point x="49" y="-319" type="curve" smooth="yes"/>
      <point x="25" y="-319"/>
      <point x="16" y="-311"/>
      <point x="1" y="-286" type="curve" smooth="yes"/>
      <point x="-10" y="-267"/>
      <point x="-25" y="-264"/>
      <point x="-50" y="-276" type="curve" smooth="yes"/>
      <point x="-67" y="-285"/>
      <point x="-80" y="-300"/>
      <point x="-71" y="-320" type="curve" smooth="yes"/>
      <point x="-51" y="-361"/>
      <point x="-12" y="-394"/>
    </contour>
  </outline>
</glyph>
<glyph name="circumflexcomb" format="2">
  <unicode hex="0302"/>
  <anchor x="0" y="500" name="_top"/>
  <anchor x="0" y="818" name="top"/>
  <outline>
    <contour>
      <point x="-142" y="610" type="curve" smooth="yes"/>
      <point x="-134" y="610"/>
      <point x="-126" y="615"/>
      <point x="-117" y="623" type="curve" smooth="yes"/>
      <point x="0" y="739" type="line"/>
      <point x="118" y="623" type="line" smooth="yes"/>
      <point x="126" y="615"/>
      <point x="134" y="610"/>
      <point x="143" y="610" type="curve" smooth="yes"/>
      <point x="155" y="610"/>
      <point x="178" y="630"/>
      <point x="178" y="644" type="curve" smooth="yes"/>
      <point x="178" y="648"/>
      <point x="178" y="651"/>
      <point x="171" y="660" type="curve" smooth="yes"/>
      <point x="43" y="819" type="line" smooth="yes"/>
      <point x="35" y="828"/>
      <point x="25" y="839"/>
      <point x="0" y="839" type="curve" smooth="yes"/>
      <point x="-26" y="839"/>
      <point x="-36" y="828"/>
      <point x="-44" y="819" type="curve" smooth="yes"/>
      <point x="-171" y="660" type="line" smooth="yes"/>
      <point x="-177" y="651"/>
      <point x="-177" y="648"/>
      <point x="-177" y="644" type="curve" smooth="yes"/>
      <point x="-177" y="630"/>
      <point x="-155" y="610"/>
    </contour>
  </outline>
</glyph>
<glyph name="dieresiscomb" format="2">
  <unicode hex="0308"/>
  <anchor x="0" y="500" name="_top"/>
  <anchor x="0" y="731" name="top"/>
  <outline>
    <contour>
      <point x="-114" y="669" type="curve" smooth="yes"/>
      <point x="-77" y="669"/>
      <point x="-57" y="689"/>
      <point x="-59" y="731" type="curve" smooth="yes"/>
      <point x="-59" y="774"/>
      <point x="-77" y="795"/>
      <point x="-114" y="795" type="curve" smooth="yes"/>
      <point x="-151" y="795"/>
      <point x="-170" y="774"/>
      <point x="-170" y="731" type="curve" smooth="yes"/>
      <point x="-170" y="689"/>
      <point x="-151" y="669"/>
    </contour>
    <contour>
      <point x="115" y="669" type="curve" smooth="yes"/>
      <point x="151" y="669"/>
      <point x="171" y="689"/>
      <point x="170" y="731" type="curve" smooth="yes"/>
      <point x="170" y="774"/>
      <point x="151" y="795"/>
      <point x="115" y="795" type="curve" smooth="yes"/>
      <point x="78" y="795"/>
      <point x="59" y="774"/>
      <point x="59" y="731" type="curve" smooth="yes"/>
      <point x="59" y="689"/>
      <point x="78" y="669"/>
    </contour>
  </outline>
</glyph>
<glyph name="hookabovecomb" format="2">
  <unicode hex="0309"/>
  <anchor x="0" y="500" name="_top"/>
  <anchor x="0" y="818" name="top"/>
  <outline>
    <contour>
      <point x="5" y="860" type="curve" smooth="yes"/>
      <point x="-37" y="860"/>
      <point x="-75" y="846"/>
      <point x="-100" y="828" type="curve" smooth="yes"/>
      <point x="-112" y="818"/>
      <point x="-114" y="803"/>
      <point x="-106" y="789" type="curve" smooth="yes"/>
      <point x="-95" y="769"/>
      <point x="-81" y="761"/>
      <point x="-64" y="773" type="curve" smooth="yes"/>
      <point x="-52" y="780"/>
      <point x="-29" y="788"/>
      <point x="-11" y="788" type="curve" smooth="yes"/>
      <point x="6" y="788"/>
      <point x="20" y="780"/>
      <point x="20" y="768" type="curve" smooth="yes"/>
      <point x="20" y="758"/>
      <point x="15" y="748"/>
      <point x="-5" y="734" type="curve" smooth="yes"/>
      <point x="-30" y="716"/>
      <point x="-47" y="690"/>
      <point x="-35" y="655" type="curve" smooth="yes"/>
      <point x="-24" y="625" type="line" smooth="yes"/>
      <point x="-12" y="596"/>
      <point x="51" y="613"/>
      <point x="45" y="641" type="curve" smooth="yes"/>
      <point x="43" y="653" type="line" smooth="yes"/>
      <point x="40" y="665"/>
      <point x="45" y="675"/>
      <point x="63" y="689" type="curve" smooth="yes"/>
      <point x="98" y="715"/>
      <point x="114" y="738"/>
      <point x="114" y="774" type="curve" smooth="yes"/>
      <point x="114" y="825"/>
      <point x="71" y="860"/>
    </contour>
  </outline>
</glyph>
<glyph name="hungarumlautcomb" format="2">
  <unicode hex="030B"/>
  <anchor x="0" y="500" name="_top"/>
  <anchor x="65" y="818" name="top"/>
  <outline>
    <contour>
      <point x="-90" y="610" type="curve" smooth="yes"/>
      <point x="-82" y="610"/>
      <point x="-77" y="614"/>
      <point x="-70" y="625" type="curve" smooth="yes"/>
      <point x="26" y="778" type="line" smooth="yes"/>
      <point x="33" y="788"/>
      <point x="34" y="793"/>
      <point x="34" y="799" type="curve" smooth="yes"/>
      <point x="34" y="820"/>
      <point x="-5" y="839"/>
      <point x="-26" y="839" type="curve" smooth="yes"/>
      <point x="-41" y="839"/>
      <point x="-46" y="831"/>
      <point x="-51" y="820" type="curve" smooth="yes"/>
      <point x="-130" y="655" type="line" smooth="yes"/>
      <point x="-134" y="648"/>
      <point x="-134" y="644"/>
      <point x="-134" y="640" type="curve" smooth="yes"/>
      <point x="-134" y="623"/>
      <point x="-106" y="610"/>
    </contour>
    <contour>
      <point x="78" y="610" type="curve" smooth="yes"/>
      <point x="85" y="610"/>
      <point x="90" y="614"/>
      <point x="98" y="625" type="curve" smooth="yes"/>
      <point x="201" y="778" type="line" smooth="yes"/>
      <point x="208" y="788"/>
      <point x="209" y="793"/>
      <point x="209" y="799" type="curve" smooth="yes"/>
      <point x="209" y="820"/>
      <point x="170" y="839"/>
      <point x="149" y="839" type="curve" smooth="yes"/>
      <point x="134" y="839"/>
      <point x="130" y="831"/>
      <point x="124" y="820" type="curve" smooth="yes"/>
      <point x="38" y="655" type="line" smooth="yes"/>
      <point x="34" y="648"/>
      <point x="34" y="644"/>
      <point x="34" y="640" type="curve" smooth="yes"/>
      <point x="34" y="623"/>
      <point x="61" y="610"/>
    </contour>
  </outline>
</glyph>
<glyph name="slashlongcomb" format="2">
  <unicode hex="0338"/>
  <anchor x="0" y="268" name="_center"/>
  <outline>
    <contour>
      <point x="-136" y="-47" type="curve" smooth="yes"/>
      <point x="196" y="538" type="line" smooth="yes"/>
      <point x="204" y="551"/>
      <point x="195" y="566"/>
      <point x="179" y="576" type="curve" smooth="yes"/>
      <point x="160" y="588"/>
      <point x="141" y="583"/>
      <point x="134" y="570" type="curve" smooth="yes"/>
      <point x="-196" y="-11" type="line" smooth="yes"/>
      <point x="-206" y="-30"/>
      <point x="-199" y="-45"/>
      <point x="-182" y="-54" type="curve" smooth="yes"/>
      <point x="-166" y="-62"/>
      <point x="-145" y="-62"/>
    </contour>
  </outline>
</glyph>
<glyph name="quoteright" format="2">
  <advance width="219"/>
  <unicode hex="2019"/>
  <outline>
    <contour>
      <point x="126" y="920" type="curve" smooth="yes"/>
      <point x="98" y="920"/>
      <point x="79" y="908"/>
      <point x="79" y="883" type="curve" smooth="yes"/>
      <point x="79" y="790"/>
      <point x="74" y="763"/>
      <point x="45" y="704" type="curve" smooth="yes"/>
      <point x="39" y="693"/>
      <point x="35" y="684"/>
      <point x="35" y="679" type="curve" smooth="yes"/>
      <point x="35" y="662"/>
      <point x="55" y="648"/>
      <point x="74" y="648" type="curve" smooth="yes"/>
      <point x="88" y="648"/>
      <point x="96" y="657"/>
      <point x="103" y="664" type="curve" smooth="yes"/>
      <point x="155" y="728"/>
      <point x="175" y="810"/>
      <point x="175" y="880" type="curve" smooth="yes"/>
      <point x="175" y="905"/>
      <point x="156" y="920"/>
    </contour>
  </outline>
</glyph>
<glyph name="minute" format="2">
  <advance width="240"/>
  <unicode hex="2032"/>
  <outline>
    <contour>
      <point x="105" y="648" type="curve" smooth="yes"/>
      <point x="122" y="648"/>
      <point x="133" y="656"/>
      <point x="138" y="672" type="curve" smooth="yes"/>
      <point x="193" y="872" type="line" smooth="yes"/>
      <point x="202" y="904"/>
      <point x="187" y="920"/>
      <point x="148" y="920" type="curve" smooth="yes"/>
      <point x="113" y="920"/>
      <point x="105" y="901"/>
      <point x="102" y="880" type="curve" smooth="yes"/>
      <point x="77" y="679" type="line" smooth="yes"/>
      <point x="75" y="657"/>
      <point x="83" y="648"/>
    </contour>
  </outline>
</glyph>
<glyph name="notequal" format="2">
  <advance width="763"/>
  <unicode hex="2260"/>
  <outline>
    <contour>
      <point x="291" y="54" type="curve" smooth="yes"/>
      <point x="316" y="54"/>
      <point x="328" y="63"/>
      <point x="333" y="83" type="curve" smooth="yes"/>
      <point x="514" y="776" type="line" smooth="yes"/>
      <point x="523" y="808"/>
      <point x="509" y="819"/>
      <point x="466" y="819" type="curve" smooth="yes"/>
      <point x="446" y="819"/>
      <point x="434" y="810"/>
      <point x="429" y="790" type="curve" smooth="yes"/>
      <point x="248" y="96" type="line" smooth="yes"/>
      <point x="239" y="65"/>
      <point x="253" y="54"/>
    </contour>
    <component base="equal"/>
  </outline>
</glyph>
<glyph name="A.cur" format="2">
  <advance width="979"/>
  <anchor x="390" y="0" name="bottom"/>
  <anchor x="915" y="13" name="ogonek"/>
  <anchor x="459" y="838" name="top"/>
  <outline>
    <contour>
      <point x="389" y="-17" type="curve" smooth="yes"/>
      <point x="514" y="-17"/>
      <point x="621" y="74"/>
      <point x="686" y="230" type="curve"/>
      <point x="686" y="151" type="line" smooth="yes"/>
      <point x="686" y="44"/>
      <point x="734" y="-17"/>
      <point x="824" y="-17" type="curve" smooth="yes"/>
      <point x="878" y="-17"/>
      <point x="926" y="13"/>
      <point x="956" y="65" type="curve" smooth="yes"/>
      <point x="970" y="88"/>
      <point x="970" y="106"/>
      <point x="946" y="121" type="curve" smooth="yes"/>
      <point x="923" y="136"/>
      <point x="910" y="128"/>
      <point x="894" y="106" type="curve" smooth="yes"/>
      <point x="876" y="83"/>
      <point x="856" y="68"/>
      <point x="828" y="68" type="curve" smooth="yes"/>
      <point x="790" y="68"/>
      <point x="773" y="98"/>
      <point x="773" y="153" type="curve" smooth="yes"/>
      <point x="774" y="478" type="line" smooth="yes"/>
      <point x="774" y="496"/>
      <point x="759" y="505"/>
      <point x="730" y="505" type="curve" smooth="yes"/>
      <point x="701" y="505"/>
      <point x="686" y="496"/>
      <point x="686" y="478" type="curve"/>
      <point x="645" y="176"/>
      <point x="520" y="68"/>
      <point x="393" y="68" type="curve" smooth="yes"/>
      <point x="236" y="68"/>
      <point x="148" y="198"/>
      <point x="148" y="421" type="curve" smooth="yes"/>
      <point x="148" y="648"/>
      <point x="278" y="805"/>
      <point x="460" y="805" type="curve" smooth="yes"/>
      <point x="555" y="805"/>
      <point x="645" y="769"/>
      <point x="696" y="663" type="curve" smooth="yes"/>
      <point x="706" y="641"/>
      <point x="718" y="621"/>
      <point x="754" y="641" type="curve" smooth="yes"/>
      <point x="785" y="659"/>
      <point x="773" y="684"/>
      <point x="763" y="705" type="curve" smooth="yes"/>
      <point x="708" y="831"/>
      <point x="598" y="890"/>
      <point x="461" y="890" type="curve" smooth="yes"/>
      <point x="224" y="890"/>
      <point x="56" y="694"/>
      <point x="56" y="420" type="curve" smooth="yes"/>
      <point x="56" y="146"/>
      <point x="183" y="-17"/>
    </contour>
  </outline>
</glyph>
<glyph name="A.dec" format="2">
  <advance width="938"/>
  <anchor x="503" y="0" name="bottom"/>
  <anchor x="843" y="0" name="ogonek"/>
  <anchor x="553" y="838" name="top"/>
  <outline>
    <contour>
      <point x="133" y="-17" type="curve" smooth="yes"/>
      <point x="293" y="-17"/>
      <point x="422" y="149"/>
      <point x="557" y="763" type="curve"/>
      <point x="610" y="516"/>
      <point x="683" y="267"/>
      <point x="780" y="8" type="curve" smooth="yes"/>
      <point x="788" y="-15"/>
      <point x="808" y="-21"/>
      <point x="833" y="-12" type="curve" smooth="yes"/>
      <point x="861" y="-2"/>
      <point x="868" y="14"/>
      <point x="861" y="31" type="curve" smooth="yes"/>
      <point x="759" y="311"/>
      <point x="679" y="588"/>
      <point x="626" y="843" type="curve" smooth="yes"/>
      <point x="619" y="883"/>
      <point x="596" y="890"/>
      <point x="559" y="890" type="curve" smooth="yes"/>
      <point x="523" y="890"/>
      <point x="498" y="881"/>
      <point x="490" y="843" type="curve" smooth="yes"/>
      <point x="355" y="195"/>
      <point x="246" y="64"/>
      <point x="136" y="64" type="curve" smooth="yes"/>
      <point x="101" y="64"/>
      <point x="86" y="68"/>
      <point x="61" y="76" type="curve" smooth="yes"/>
      <point x="46" y="81"/>
      <point x="31" y="73"/>
      <point x="24" y="49" type="curve" smooth="yes"/>
      <point x="16" y="26"/>
      <point x="25" y="10"/>
      <point x="43" y="1" type="curve" smooth="yes"/>
      <point x="69" y="-12"/>
      <point x="104" y="-17"/>
    </contour>
    <contour>
      <point x="789" y="8" type="curve"/>
      <point x="844" y="31" type="line"/>
      <point x="698" y="379"/>
      <point x="545" y="430"/>
      <point x="395" y="430" type="curve" smooth="yes"/>
      <point x="279" y="430"/>
      <point x="183" y="365"/>
      <point x="183" y="268" type="curve" smooth="yes"/>
      <point x="183" y="166"/>
      <point x="278" y="103"/>
      <point x="460" y="103" type="curve" smooth="yes"/>
      <point x="650" y="103"/>
      <point x="813" y="190"/>
      <point x="901" y="344" type="curve" smooth="yes"/>
      <point x="914" y="366"/>
      <point x="901" y="386"/>
      <point x="884" y="395" type="curve" smooth="yes"/>
      <point x="866" y="405"/>
      <point x="845" y="405"/>
      <point x="833" y="383" type="curve" smooth="yes"/>
      <point x="755" y="249"/>
      <point x="614" y="180"/>
      <point x="460" y="180" type="curve" smooth="yes"/>
      <point x="333" y="180"/>
      <point x="271" y="214"/>
      <point x="271" y="273" type="curve" smooth="yes"/>
      <point x="271" y="325"/>
      <point x="319" y="353"/>
      <point x="396" y="353" type="curve" smooth="yes"/>
      <point x="536" y="353"/>
      <point x="650" y="304"/>
    </contour>
  </outline>
</glyph>
<glyph name="A.dec_locl.ini" format="2">
  <advance width="975"/>
  <anchor x="503" y="0" name="bottom"/>
  <anchor x="975" y="0" name="cnct"/>
  <anchor x="929" y="0" name="ogonek"/>
  <anchor x="553" y="838" name="top"/>
  <outline>
    <contour>
      <point x="133" y="-17" type="curve" smooth="yes"/>
      <point x="236" y="-17"/>
      <point x="327" y="52"/>
      <point x="414" y="266" type="curve"/>
      <point x="680" y="266" type="line"/>
      <point x="688" y="240"/>
      <point x="697" y="215"/>
      <point x="706" y="189" type="curve" smooth="yes"/>
      <point x="759" y="44"/>
      <point x="816" y="-17"/>
      <point x="900" y="-17" type="curve" smooth="yes"/>
      <point x="950" y="-17"/>
      <point x="969" y="56"/>
      <point x="919" y="58" type="curve" smooth="yes"/>
      <point x="856" y="59"/>
      <point x="828" y="108"/>
      <point x="788" y="221" type="curve" smooth="yes"/>
      <point x="693" y="496"/>
      <point x="640" y="779"/>
      <point x="626" y="843" type="curve" smooth="yes"/>
      <point x="619" y="883"/>
      <point x="596" y="890"/>
      <point x="559" y="890" type="curve" smooth="yes"/>
      <point x="523" y="890"/>
      <point x="498" y="881"/>
      <point x="490" y="843" type="curve" smooth="yes"/>
      <point x="355" y="195"/>
      <point x="246" y="64"/>
      <point x="136" y="64" type="curve" smooth="yes"/>
      <point x="101" y="64"/>
      <point x="86" y="68"/>
      <point x="61" y="76" type="curve" smooth="yes"/>
      <point x="46" y="81"/>
      <point x="31" y="73"/>
      <point x="24" y="49" type="curve" smooth="yes"/>
      <point x="16" y="26"/>
      <point x="25" y="10"/>
      <point x="43" y="1" type="curve" smooth="yes"/>
      <point x="69" y="-12"/>
      <point x="104" y="-17"/>
    </contour>
    <contour>
      <point x="443" y="344" type="line"/>
      <point x="481" y="453"/>
      <point x="519" y="591"/>
      <point x="557" y="765" type="curve"/>
      <point x="579" y="655"/>
      <point x="609" y="506"/>
      <point x="656" y="344" type="curve"/>
    </contour>
  </outline>
</glyph>
<glyph name="AE.cur" format="2">
  <advance width="1287"/>
  <anchor x="745" y="838" name="top"/>
  <outline>
    <contour>
      <point x="118" y="-17" type="curve" smooth="yes"/>
      <point x="212" y="-17"/>
      <point x="270" y="28"/>
      <point x="380" y="263" type="curve"/>
      <point x="651" y="263" type="line"/>
      <point x="657" y="229"/>
      <point x="664" y="194"/>
      <point x="671" y="158" type="curve" smooth="yes"/>
      <point x="676" y="134"/>
      <point x="694" y="124"/>
      <point x="720" y="130" type="curve" smooth="yes"/>
      <point x="750" y="138"/>
      <point x="760" y="151"/>
      <point x="755" y="175" type="curve" smooth="yes"/>
      <point x="708" y="431"/>
      <point x="681" y="624"/>
      <point x="673" y="834" type="curve" smooth="yes"/>
      <point x="671" y="875"/>
      <point x="650" y="890"/>
      <point x="611" y="890" type="curve" smooth="yes"/>
      <point x="575" y="890"/>
      <point x="550" y="881"/>
      <point x="535" y="843" type="curve" smooth="yes"/>
      <point x="261" y="163"/>
      <point x="201" y="64"/>
      <point x="116" y="64" type="curve" smooth="yes"/>
      <point x="96" y="64"/>
      <point x="83" y="66"/>
      <point x="61" y="75" type="curve" smooth="yes"/>
      <point x="46" y="81"/>
      <point x="31" y="71"/>
      <point x="24" y="48" type="curve" smooth="yes"/>
      <point x="16" y="25"/>
      <point x="25" y="10"/>
      <point x="43" y="0" type="curve" smooth="yes"/>
      <point x="66" y="-12"/>
      <point x="89" y="-17"/>
    </contour>
    <contour>
      <point x="416" y="343" type="line"/>
      <point x="464" y="451"/>
      <point x="521" y="591"/>
      <point x="592" y="770" type="curve"/>
      <point x="600" y="626"/>
      <point x="613" y="492"/>
      <point x="637" y="343" type="curve"/>
    </contour>
    <contour>
      <point x="936" y="-19" type="curve" smooth="yes"/>
      <point x="1044" y="-19"/>
      <point x="1161" y="28"/>
      <point x="1234" y="115" type="curve" smooth="yes"/>
      <point x="1255" y="140"/>
      <point x="1250" y="156"/>
      <point x="1225" y="175" type="curve" smooth="yes"/>
      <point x="1205" y="189"/>
      <point x="1193" y="184"/>
      <point x="1171" y="161" type="curve" smooth="yes"/>
      <point x="1106" y="94"/>
      <point x="1021" y="69"/>
      <point x="938" y="69" type="curve" smooth="yes"/>
      <point x="819" y="69"/>
      <point x="755" y="123"/>
      <point x="755" y="229" type="curve" smooth="yes"/>
      <point x="755" y="339"/>
      <point x="844" y="419"/>
      <point x="966" y="419" type="curve" smooth="yes"/>
      <point x="1090" y="419" type="line" smooth="yes"/>
      <point x="1110" y="419"/>
      <point x="1118" y="429"/>
      <point x="1118" y="459" type="curve" smooth="yes"/>
      <point x="1118" y="489"/>
      <point x="1110" y="499"/>
      <point x="1090" y="499" type="curve" smooth="yes"/>
      <point x="963" y="499" type="line" smooth="yes"/>
      <point x="859" y="499"/>
      <point x="814" y="564"/>
      <point x="814" y="655" type="curve" smooth="yes"/>
      <point x="814" y="744"/>
      <point x="883" y="803"/>
      <point x="980" y="803" type="curve" smooth="yes"/>
      <point x="1044" y="803"/>
      <point x="1105" y="781"/>
      <point x="1150" y="751" type="curve" smooth="yes"/>
      <point x="1173" y="736"/>
      <point x="1186" y="730"/>
      <point x="1204" y="744" type="curve" smooth="yes"/>
      <point x="1228" y="763"/>
      <point x="1231" y="783"/>
      <point x="1204" y="808" type="curve" smooth="yes"/>
      <point x="1143" y="865"/>
      <point x="1064" y="890"/>
      <point x="983" y="890" type="curve" smooth="yes"/>
      <point x="841" y="890"/>
      <point x="724" y="791"/>
      <point x="724" y="654" type="curve" smooth="yes"/>
      <point x="724" y="564"/>
      <point x="759" y="490"/>
      <point x="858" y="460" type="curve"/>
      <point x="740" y="435"/>
      <point x="664" y="343"/>
      <point x="664" y="225" type="curve" smooth="yes"/>
      <point x="664" y="69"/>
      <point x="764" y="-19"/>
    </contour>
  </outline>
</glyph>
<glyph name="D.dec" format="2">
  <advance width="1015"/>
  <anchor x="526" y="-12" name="bottom"/>
  <anchor x="363" y="425" name="center"/>
  <anchor x="538" y="825" name="top"/>
  <outline>
    <contour>
      <point x="168" y="-17" type="curve" smooth="yes"/>
      <point x="285" y="-17"/>
      <point x="339" y="61"/>
      <point x="339" y="173" type="curve" smooth="yes"/>
      <point x="339" y="705" type="line" smooth="yes"/>
      <point x="339" y="724"/>
      <point x="324" y="733"/>
      <point x="295" y="733" type="curve" smooth="yes"/>
      <point x="266" y="733"/>
      <point x="251" y="724"/>
      <point x="251" y="705" type="curve" smooth="yes"/>
      <point x="251" y="178" type="line" smooth="yes"/>
      <point x="251" y="105"/>
      <point x="230" y="63"/>
      <point x="171" y="63" type="curve" smooth="yes"/>
      <point x="144" y="63"/>
      <point x="131" y="75"/>
      <point x="131" y="91" type="curve" smooth="yes"/>
      <point x="131" y="109"/>
      <point x="141" y="123"/>
      <point x="174" y="123" type="curve" smooth="yes"/>
      <point x="274" y="123"/>
      <point x="336" y="-12"/>
      <point x="544" y="-12" type="curve" smooth="yes"/>
      <point x="774" y="-12"/>
      <point x="941" y="180"/>
      <point x="941" y="445" type="curve" smooth="yes"/>
      <point x="941" y="703"/>
      <point x="753" y="890"/>
      <point x="438" y="890" type="curve" smooth="yes"/>
      <point x="284" y="890"/>
      <point x="74" y="846"/>
      <point x="46" y="673" type="curve" smooth="yes"/>
      <point x="43" y="651"/>
      <point x="51" y="636"/>
      <point x="75" y="631" type="curve" smooth="yes"/>
      <point x="101" y="626"/>
      <point x="114" y="635"/>
      <point x="120" y="659" type="curve" smooth="yes"/>
      <point x="153" y="788"/>
      <point x="326" y="805"/>
      <point x="438" y="805" type="curve" smooth="yes"/>
      <point x="700" y="805"/>
      <point x="850" y="655"/>
      <point x="850" y="448" type="curve" smooth="yes"/>
      <point x="850" y="229"/>
      <point x="721" y="70"/>
      <point x="544" y="70" type="curve" smooth="yes"/>
      <point x="366" y="70"/>
      <point x="300" y="203"/>
      <point x="170" y="203" type="curve" smooth="yes"/>
      <point x="96" y="203"/>
      <point x="39" y="159"/>
      <point x="39" y="86" type="curve" smooth="yes"/>
      <point x="39" y="26"/>
      <point x="93" y="-17"/>
    </contour>
  </outline>
</glyph>
<glyph name="E.cur.ini" format="2">
  <advance width="690"/>
  <anchor x="368" y="0" name="bottom"/>
  <anchor x="690" y="0" name="cnct"/>
  <anchor x="499" y="0" name="ogonek"/>
  <anchor x="386" y="838" name="top"/>
  <outline>
    <contour>
      <point x="381" y="-17" type="curve" smooth="yes"/>
      <point x="421" y="-17"/>
      <point x="421" y="58"/>
      <point x="381" y="58" type="curve" smooth="yes"/>
      <point x="247" y="58"/>
      <point x="166" y="125"/>
      <point x="166" y="234" type="curve" smooth="yes"/>
      <point x="166" y="344"/>
      <point x="255" y="419"/>
      <point x="378" y="419" type="curve" smooth="yes"/>
      <point x="501" y="419" type="line" smooth="yes"/>
      <point x="521" y="419"/>
      <point x="529" y="429"/>
      <point x="529" y="459" type="curve" smooth="yes"/>
      <point x="529" y="489"/>
      <point x="521" y="499"/>
      <point x="501" y="499" type="curve" smooth="yes"/>
      <point x="374" y="499" type="line" smooth="yes"/>
      <point x="270" y="499"/>
      <point x="203" y="568"/>
      <point x="203" y="659" type="curve" smooth="yes"/>
      <point x="203" y="753"/>
      <point x="265" y="803"/>
      <point x="381" y="803" type="curve" smooth="yes"/>
      <point x="458" y="803"/>
      <point x="516" y="784"/>
      <point x="561" y="751" type="curve" smooth="yes"/>
      <point x="584" y="735"/>
      <point x="598" y="730"/>
      <point x="615" y="744" type="curve" smooth="yes"/>
      <point x="639" y="763"/>
      <point x="643" y="783"/>
      <point x="615" y="808" type="curve" smooth="yes"/>
      <point x="554" y="864"/>
      <point x="473" y="890"/>
      <point x="384" y="890" type="curve" smooth="yes"/>
      <point x="224" y="890"/>
      <point x="113" y="800"/>
      <point x="113" y="658" type="curve" smooth="yes"/>
      <point x="113" y="568"/>
      <point x="170" y="490"/>
      <point x="269" y="460" type="curve"/>
      <point x="151" y="435"/>
      <point x="75" y="348"/>
      <point x="75" y="230" type="curve" smooth="yes"/>
      <point x="75" y="77"/>
      <point x="190" y="-17"/>
    </contour>
  </outline>
</glyph>
<glyph name="F.cur" format="2">
  <advance width="741"/>
  <guideline x="573"/>
  <guideline x="523"/>
  <outline>
    <contour>
      <point x="199" y="-17" type="curve" smooth="yes"/>
      <point x="304" y="-17"/>
      <point x="351" y="61"/>
      <point x="351" y="173" type="curve" smooth="yes"/>
      <point x="351" y="398" type="line"/>
      <point x="641" y="398" type="line" smooth="yes"/>
      <point x="659" y="398"/>
      <point x="666" y="411"/>
      <point x="666" y="438" type="curve" smooth="yes"/>
      <point x="666" y="464"/>
      <point x="659" y="478"/>
      <point x="641" y="478" type="curve" smooth="yes"/>
      <point x="351" y="478" type="line"/>
      <point x="351" y="795" type="line"/>
      <point x="704" y="795" type="line" smooth="yes"/>
      <point x="721" y="795"/>
      <point x="729" y="809"/>
      <point x="729" y="835" type="curve" smooth="yes"/>
      <point x="729" y="861"/>
      <point x="721" y="875"/>
      <point x="704" y="875" type="curve" smooth="yes"/>
      <point x="273" y="875" type="line" smooth="yes"/>
      <point x="149" y="875"/>
      <point x="83" y="831"/>
      <point x="34" y="768" type="curve" smooth="yes"/>
      <point x="19" y="748"/>
      <point x="14" y="731"/>
      <point x="35" y="713" type="curve" smooth="yes"/>
      <point x="58" y="693"/>
      <point x="73" y="695"/>
      <point x="94" y="716" type="curve" smooth="yes"/>
      <point x="136" y="761"/>
      <point x="179" y="795"/>
      <point x="258" y="795" type="curve" smooth="yes"/>
      <point x="264" y="795" type="line"/>
      <point x="264" y="178" type="line" smooth="yes"/>
      <point x="264" y="101"/>
      <point x="245" y="68"/>
      <point x="201" y="68" type="curve" smooth="yes"/>
      <point x="159" y="68"/>
      <point x="136" y="86"/>
      <point x="110" y="110" type="curve" smooth="yes"/>
      <point x="90" y="128"/>
      <point x="78" y="136"/>
      <point x="54" y="121" type="curve" smooth="yes"/>
      <point x="30" y="106"/>
      <point x="30" y="88"/>
      <point x="46" y="65" type="curve" smooth="yes"/>
      <point x="61" y="44"/>
      <point x="115" y="-17"/>
    </contour>
  </outline>
</glyph>
<glyph name="F.cur_locl" format="2">
  <advance width="841"/>
  <outline>
    <contour>
      <point x="263" y="-17" type="curve" smooth="yes"/>
      <point x="458" y="-17"/>
      <point x="664" y="215"/>
      <point x="664" y="541" type="curve" smooth="yes"/>
      <point x="664" y="775"/>
      <point x="551" y="890"/>
      <point x="360" y="890" type="curve" smooth="yes"/>
      <point x="251" y="890"/>
      <point x="176" y="853"/>
      <point x="96" y="795" type="curve" smooth="yes"/>
      <point x="74" y="779"/>
      <point x="71" y="760"/>
      <point x="86" y="738" type="curve" smooth="yes"/>
      <point x="101" y="718"/>
      <point x="119" y="714"/>
      <point x="139" y="728" type="curve" smooth="yes"/>
      <point x="208" y="778"/>
      <point x="276" y="805"/>
      <point x="360" y="805" type="curve" smooth="yes"/>
      <point x="498" y="805"/>
      <point x="573" y="719"/>
      <point x="573" y="541" type="curve" smooth="yes"/>
      <point x="573" y="261"/>
      <point x="405" y="65"/>
      <point x="263" y="65" type="curve" smooth="yes"/>
      <point x="190" y="65"/>
      <point x="146" y="108"/>
      <point x="146" y="178" type="curve" smooth="yes"/>
      <point x="146" y="340"/>
      <point x="374" y="476"/>
      <point x="750" y="539" type="curve"/>
      <point x="750" y="468" type="line" smooth="yes"/>
      <point x="750" y="448"/>
      <point x="764" y="438"/>
      <point x="793" y="438" type="curve" smooth="yes"/>
      <point x="821" y="438"/>
      <point x="835" y="448"/>
      <point x="835" y="468" type="curve" smooth="yes"/>
      <point x="835" y="584" type="line" smooth="yes"/>
      <point x="835" y="614"/>
      <point x="814" y="638"/>
      <point x="778" y="630" type="curve" smooth="yes"/>
      <point x="329" y="556"/>
      <point x="55" y="384"/>
      <point x="55" y="178" type="curve" smooth="yes"/>
      <point x="55" y="56"/>
      <point x="134" y="-17"/>
    </contour>
  </outline>
</glyph>
<glyph name="G.cur.ini" format="2">
  <advance width="863"/>
  <anchor x="372" y="0" name="bottom"/>
  <anchor x="863" y="0" name="cnct"/>
  <anchor x="450" y="838" name="top"/>
  <outline>
    <contour>
      <point x="585" y="-394" type="curve" smooth="yes"/>
      <point x="704" y="-394"/>
      <point x="766" y="-312"/>
      <point x="766" y="-161" type="curve" smooth="yes"/>
      <point x="766" y="428" type="line" smooth="yes"/>
      <point x="766" y="446"/>
      <point x="751" y="455"/>
      <point x="723" y="455" type="curve" smooth="yes"/>
      <point x="694" y="455"/>
      <point x="679" y="446"/>
      <point x="679" y="428" type="curve"/>
      <point x="658" y="291"/>
      <point x="559" y="96"/>
      <point x="393" y="96" type="curve" smooth="yes"/>
      <point x="250" y="96"/>
      <point x="148" y="225"/>
      <point x="148" y="421" type="curve" smooth="yes"/>
      <point x="148" y="648"/>
      <point x="278" y="805"/>
      <point x="460" y="805" type="curve" smooth="yes"/>
      <point x="533" y="805"/>
      <point x="604" y="786"/>
      <point x="681" y="716" type="curve" smooth="yes"/>
      <point x="696" y="704"/>
      <point x="711" y="700"/>
      <point x="731" y="720" type="curve" smooth="yes"/>
      <point x="751" y="741"/>
      <point x="750" y="754"/>
      <point x="736" y="768" type="curve" smooth="yes"/>
      <point x="655" y="854"/>
      <point x="575" y="890"/>
      <point x="461" y="890" type="curve" smooth="yes"/>
      <point x="224" y="890"/>
      <point x="56" y="694"/>
      <point x="56" y="420" type="curve" smooth="yes"/>
      <point x="56" y="174"/>
      <point x="196" y="11"/>
      <point x="389" y="11" type="curve" smooth="yes"/>
      <point x="510" y="11"/>
      <point x="614" y="89"/>
      <point x="679" y="225" type="curve"/>
      <point x="679" y="-172" type="line" smooth="yes"/>
      <point x="679" y="-265"/>
      <point x="650" y="-316"/>
      <point x="591" y="-316" type="curve" smooth="yes"/>
      <point x="545" y="-316"/>
      <point x="524" y="-294"/>
      <point x="524" y="-257" type="curve" smooth="yes"/>
      <point x="524" y="-207"/>
      <point x="436" y="-216"/>
      <point x="436" y="-266" type="curve" smooth="yes"/>
      <point x="436" y="-344"/>
      <point x="494" y="-394"/>
    </contour>
  </outline>
</glyph>
<glyph name="G.cur_locl.ini" format="2">
  <advance width="876"/>
  <anchor x="338" y="0" name="bottom"/>
  <anchor x="876" y="0" name="cnct"/>
  <anchor x="450" y="838" name="top"/>
  <outline>
    <contour>
      <point x="599" y="-394" type="curve" smooth="yes"/>
      <point x="718" y="-394"/>
      <point x="780" y="-312"/>
      <point x="780" y="-161" type="curve" smooth="yes"/>
      <point x="780" y="396" type="line" smooth="yes"/>
      <point x="780" y="415"/>
      <point x="765" y="424"/>
      <point x="736" y="424" type="curve" smooth="yes"/>
      <point x="708" y="424"/>
      <point x="693" y="415"/>
      <point x="693" y="396" type="curve"/>
      <point x="653" y="219"/>
      <point x="530" y="99"/>
      <point x="403" y="99" type="curve" smooth="yes"/>
      <point x="279" y="99"/>
      <point x="203" y="196"/>
      <point x="203" y="355" type="curve" smooth="yes"/>
      <point x="203" y="615"/>
      <point x="335" y="806"/>
      <point x="475" y="806" type="curve" smooth="yes"/>
      <point x="541" y="806"/>
      <point x="579" y="768"/>
      <point x="579" y="701" type="curve" smooth="yes"/>
      <point x="579" y="525"/>
      <point x="351" y="303"/>
      <point x="61" y="159" type="curve" smooth="yes"/>
      <point x="38" y="148"/>
      <point x="33" y="129"/>
      <point x="44" y="106" type="curve" smooth="yes"/>
      <point x="58" y="79"/>
      <point x="74" y="75"/>
      <point x="98" y="88" type="curve" smooth="yes"/>
      <point x="429" y="256"/>
      <point x="670" y="491"/>
      <point x="670" y="701" type="curve" smooth="yes"/>
      <point x="670" y="824"/>
      <point x="599" y="890"/>
      <point x="475" y="890" type="curve" smooth="yes"/>
      <point x="283" y="890"/>
      <point x="111" y="664"/>
      <point x="111" y="355" type="curve" smooth="yes"/>
      <point x="111" y="141"/>
      <point x="220" y="11"/>
      <point x="399" y="11" type="curve" smooth="yes"/>
      <point x="514" y="11"/>
      <point x="625" y="89"/>
      <point x="693" y="218" type="curve"/>
      <point x="693" y="-172" type="line" smooth="yes"/>
      <point x="693" y="-265"/>
      <point x="664" y="-316"/>
      <point x="605" y="-316" type="curve" smooth="yes"/>
      <point x="559" y="-316"/>
      <point x="538" y="-294"/>
      <point x="538" y="-257" type="curve" smooth="yes"/>
      <point x="538" y="-207"/>
      <point x="450" y="-216"/>
      <point x="450" y="-266" type="curve" smooth="yes"/>
      <point x="450" y="-344"/>
      <point x="508" y="-394"/>
    </contour>
  </outline>
</glyph>
<glyph name="G.cur_ro" format="2">
  <advance width="745"/>
  <outline>
    <contour>
      <point x="375" y="-20" type="curve" smooth="yes"/>
      <point x="564" y="-20"/>
      <point x="657" y="155"/>
      <point x="657" y="470" type="curve" smooth="yes"/>
      <point x="657" y="489"/>
      <point x="644" y="495"/>
      <point x="625" y="495" type="curve" smooth="yes"/>
      <point x="608" y="495"/>
      <point x="601" y="492"/>
      <point x="573" y="475" type="curve" smooth="yes"/>
      <point x="553" y="464"/>
      <point x="470" y="409"/>
      <point x="361" y="409" type="curve" smooth="yes"/>
      <point x="263" y="409"/>
      <point x="206" y="450"/>
      <point x="206" y="583" type="curve" smooth="yes"/>
      <point x="206" y="707"/>
      <point x="281" y="810"/>
      <point x="384" y="810" type="curve" smooth="yes"/>
      <point x="436" y="810"/>
      <point x="469" y="783"/>
      <point x="469" y="730" type="curve" smooth="yes"/>
      <point x="469" y="638"/>
      <point x="386" y="564"/>
      <point x="278" y="564" type="curve" smooth="yes"/>
      <point x="158" y="564"/>
      <point x="93" y="660"/>
      <point x="93" y="840" type="curve" smooth="yes"/>
      <point x="93" y="861"/>
      <point x="80" y="871"/>
      <point x="54" y="871" type="curve" smooth="yes"/>
      <point x="26" y="871"/>
      <point x="12" y="861"/>
      <point x="12" y="840" type="curve" smooth="yes"/>
      <point x="12" y="612"/>
      <point x="102" y="488"/>
      <point x="277" y="488" type="curve" smooth="yes"/>
      <point x="439" y="488"/>
      <point x="560" y="594"/>
      <point x="560" y="731" type="curve" smooth="yes"/>
      <point x="560" y="836"/>
      <point x="492" y="894"/>
      <point x="385" y="894" type="curve" smooth="yes"/>
      <point x="229" y="894"/>
      <point x="118" y="756"/>
      <point x="118" y="585" type="curve" smooth="yes"/>
      <point x="118" y="419"/>
      <point x="209" y="325"/>
      <point x="357" y="325" type="curve" smooth="yes"/>
      <point x="431" y="325"/>
      <point x="500" y="351"/>
      <point x="570" y="391" type="curve"/>
      <point x="565" y="174"/>
      <point x="497" y="60"/>
      <point x="373" y="60" type="curve" smooth="yes"/>
      <point x="284" y="60"/>
      <point x="242" y="116"/>
      <point x="217" y="169" type="curve" smooth="yes"/>
      <point x="207" y="191"/>
      <point x="194" y="196"/>
      <point x="172" y="186" type="curve" smooth="yes"/>
      <point x="149" y="178"/>
      <point x="140" y="164"/>
      <point x="149" y="140" type="curve" smooth="yes"/>
      <point x="178" y="64"/>
      <point x="238" y="-20"/>
    </contour>
  </outline>
</glyph>
<glyph name="G.dec" format="2">
  <advance width="1049"/>
  <anchor x="588" y="0" name="bottom"/>
  <anchor x="613" y="838" name="top"/>
  <outline>
    <contour>
      <point x="73" y="-12" type="curve" smooth="yes"/>
      <point x="365" y="-12"/>
      <point x="531" y="439"/>
      <point x="531" y="675" type="curve" smooth="yes"/>
      <point x="531" y="821"/>
      <point x="484" y="890"/>
      <point x="384" y="890" type="curve" smooth="yes"/>
      <point x="291" y="890"/>
      <point x="243" y="826"/>
      <point x="243" y="738" type="curve" smooth="yes"/>
      <point x="243" y="610"/>
      <point x="350" y="499"/>
      <point x="511" y="499" type="curve" smooth="yes"/>
      <point x="669" y="499"/>
      <point x="784" y="591"/>
      <point x="875" y="793" type="curve"/>
      <point x="801" y="788" type="line"/>
      <point x="813" y="688"/>
      <point x="823" y="588"/>
      <point x="823" y="485" type="curve" smooth="yes"/>
      <point x="823" y="161"/>
      <point x="728" y="75"/>
      <point x="565" y="75" type="curve" smooth="yes"/>
      <point x="374" y="75"/>
      <point x="215" y="209"/>
      <point x="184" y="435" type="curve"/>
      <point x="164" y="398" type="line"/>
      <point x="395" y="264"/>
      <point x="674" y="205"/>
      <point x="983" y="205" type="curve" smooth="yes"/>
      <point x="1009" y="205"/>
      <point x="1016" y="223"/>
      <point x="1016" y="245" type="curve" smooth="yes"/>
      <point x="1016" y="274"/>
      <point x="1009" y="285"/>
      <point x="983" y="285" type="curve" smooth="yes"/>
      <point x="646" y="285"/>
      <point x="413" y="339"/>
      <point x="173" y="481" type="curve" smooth="yes"/>
      <point x="158" y="490"/>
      <point x="139" y="491"/>
      <point x="119" y="474" type="curve" smooth="yes"/>
      <point x="101" y="459"/>
      <point x="99" y="444"/>
      <point x="103" y="423" type="curve" smooth="yes"/>
      <point x="148" y="175"/>
      <point x="313" y="-12"/>
      <point x="554" y="-12" type="curve" smooth="yes"/>
      <point x="765" y="-12"/>
      <point x="914" y="103"/>
      <point x="914" y="485" type="curve" smooth="yes"/>
      <point x="914" y="590"/>
      <point x="904" y="693"/>
      <point x="893" y="788" type="curve" smooth="yes"/>
      <point x="890" y="808"/>
      <point x="885" y="820"/>
      <point x="855" y="829" type="curve" smooth="yes"/>
      <point x="821" y="838"/>
      <point x="803" y="824"/>
      <point x="795" y="806" type="curve" smooth="yes"/>
      <point x="734" y="661"/>
      <point x="629" y="579"/>
      <point x="518" y="579" type="curve" smooth="yes"/>
      <point x="398" y="579"/>
      <point x="330" y="648"/>
      <point x="330" y="739" type="curve" smooth="yes"/>
      <point x="330" y="788"/>
      <point x="350" y="810"/>
      <point x="384" y="810" type="curve" smooth="yes"/>
      <point x="426" y="810"/>
      <point x="446" y="770"/>
      <point x="446" y="673" type="curve" smooth="yes"/>
      <point x="446" y="463"/>
      <point x="299" y="68"/>
      <point x="73" y="68" type="curve" smooth="yes"/>
      <point x="48" y="68"/>
      <point x="35" y="55"/>
      <point x="35" y="28" type="curve" smooth="yes"/>
      <point x="35" y="-1"/>
      <point x="45" y="-12"/>
    </contour>
  </outline>
</glyph>
<glyph name="G_locl.au" format="2">
  <advance width="875"/>
  <anchor x="466" y="0" name="bottom"/>
  <anchor x="465" y="838" name="top"/>
  <outline>
    <contour>
      <point x="409" y="-17" type="curve" smooth="yes"/>
      <point x="533" y="-17"/>
      <point x="638" y="60"/>
      <point x="701" y="209" type="curve"/>
      <point x="701" y="14" type="line" smooth="yes"/>
      <point x="701" y="-5"/>
      <point x="716" y="-14"/>
      <point x="745" y="-14" type="curve" smooth="yes"/>
      <point x="774" y="-14"/>
      <point x="789" y="-5"/>
      <point x="789" y="14" type="curve" smooth="yes"/>
      <point x="789" y="445" type="line" smooth="yes"/>
      <point x="789" y="464"/>
      <point x="774" y="473"/>
      <point x="745" y="473" type="curve" smooth="yes"/>
      <point x="716" y="473"/>
      <point x="701" y="464"/>
      <point x="701" y="445" type="curve"/>
      <point x="680" y="284"/>
      <point x="583" y="68"/>
      <point x="413" y="68" type="curve" smooth="yes"/>
      <point x="274" y="68"/>
      <point x="173" y="204"/>
      <point x="173" y="406" type="curve" smooth="yes"/>
      <point x="173" y="640"/>
      <point x="301" y="805"/>
      <point x="484" y="805" type="curve" smooth="yes"/>
      <point x="556" y="805"/>
      <point x="626" y="786"/>
      <point x="704" y="716" type="curve" smooth="yes"/>
      <point x="719" y="704"/>
      <point x="734" y="700"/>
      <point x="754" y="720" type="curve" smooth="yes"/>
      <point x="774" y="741"/>
      <point x="773" y="754"/>
      <point x="759" y="768" type="curve" smooth="yes"/>
      <point x="678" y="854"/>
      <point x="599" y="890"/>
      <point x="485" y="890" type="curve" smooth="yes"/>
      <point x="248" y="890"/>
      <point x="81" y="686"/>
      <point x="81" y="405" type="curve" smooth="yes"/>
      <point x="81" y="153"/>
      <point x="220" y="-17"/>
    </contour>
  </outline>
</glyph>
<glyph name="H.cur.ini" format="2">
  <advance width="931"/>
  <anchor x="523" y="0" name="bottom"/>
  <anchor x="528" y="626" name="center"/>
  <anchor x="931" y="0" name="cnct"/>
  <anchor x="523" y="838" name="top"/>
  <outline>
    <contour>
      <point x="223" y="-17" type="curve" smooth="yes"/>
      <point x="325" y="-17"/>
      <point x="364" y="56"/>
      <point x="364" y="203" type="curve" smooth="yes"/>
      <point x="364" y="314" type="line"/>
      <point x="465" y="356"/>
      <point x="583" y="411"/>
      <point x="678" y="458" type="curve"/>
      <point x="678" y="179" type="line" smooth="yes"/>
      <point x="678" y="41"/>
      <point x="734" y="-17"/>
      <point x="856" y="-17" type="curve" smooth="yes"/>
      <point x="906" y="-17"/>
      <point x="925" y="58"/>
      <point x="875" y="58" type="curve" smooth="yes"/>
      <point x="800" y="58"/>
      <point x="765" y="93"/>
      <point x="765" y="180" type="curve" smooth="yes"/>
      <point x="765" y="503" type="line"/>
      <point x="908" y="576"/>
      <point x="959" y="645"/>
      <point x="959" y="731" type="curve" smooth="yes"/>
      <point x="959" y="808"/>
      <point x="906" y="875"/>
      <point x="821" y="875" type="curve" smooth="yes"/>
      <point x="718" y="875"/>
      <point x="678" y="801"/>
      <point x="678" y="655" type="curve" smooth="yes"/>
      <point x="678" y="549" type="line"/>
      <point x="575" y="499"/>
      <point x="470" y="449"/>
      <point x="364" y="405" type="curve"/>
      <point x="364" y="743" type="line" smooth="yes"/>
      <point x="364" y="838"/>
      <point x="320" y="890"/>
      <point x="230" y="890" type="curve" smooth="yes"/>
      <point x="149" y="890"/>
      <point x="93" y="838"/>
      <point x="48" y="770" type="curve" smooth="yes"/>
      <point x="35" y="751"/>
      <point x="31" y="735"/>
      <point x="54" y="720" type="curve" smooth="yes"/>
      <point x="76" y="705"/>
      <point x="90" y="708"/>
      <point x="104" y="728" type="curve" smooth="yes"/>
      <point x="141" y="781"/>
      <point x="183" y="806"/>
      <point x="223" y="806" type="curve" smooth="yes"/>
      <point x="256" y="806"/>
      <point x="276" y="784"/>
      <point x="276" y="743" type="curve" smooth="yes"/>
      <point x="276" y="369" type="line"/>
      <point x="140" y="305"/>
      <point x="84" y="226"/>
      <point x="84" y="136" type="curve" smooth="yes"/>
      <point x="84" y="59"/>
      <point x="135" y="-17"/>
    </contour>
    <contour>
      <point x="223" y="60" type="curve" smooth="yes"/>
      <point x="195" y="60"/>
      <point x="171" y="93"/>
      <point x="171" y="136" type="curve" smooth="yes"/>
      <point x="171" y="199"/>
      <point x="204" y="249"/>
      <point x="276" y="281" type="curve"/>
      <point x="276" y="191" type="line" smooth="yes"/>
      <point x="276" y="89"/>
      <point x="263" y="60"/>
    </contour>
    <contour>
      <point x="765" y="590" type="curve"/>
      <point x="765" y="666" type="line" smooth="yes"/>
      <point x="765" y="769"/>
      <point x="781" y="798"/>
      <point x="821" y="798" type="curve" smooth="yes"/>
      <point x="849" y="798"/>
      <point x="871" y="766"/>
      <point x="871" y="731" type="curve" smooth="yes"/>
      <point x="871" y="666"/>
      <point x="843" y="631"/>
    </contour>
  </outline>
</glyph>
<glyph name="H.dec" format="2">
  <advance width="1103"/>
  <guideline x="506" y="690" angle="90"/>
  <anchor x="633" y="0" name="bottom"/>
  <anchor x="633" y="676" name="center"/>
  <anchor x="633" y="838" name="top"/>
  <outline>
    <contour>
      <point x="379" y="-14" type="curve" smooth="yes"/>
      <point x="408" y="-14"/>
      <point x="423" y="-5"/>
      <point x="423" y="14" type="curve" smooth="yes"/>
      <point x="423" y="863" type="line" smooth="yes"/>
      <point x="423" y="881"/>
      <point x="410" y="890"/>
      <point x="385" y="890" type="curve" smooth="yes"/>
      <point x="369" y="890"/>
      <point x="358" y="885"/>
      <point x="340" y="870" type="curve" smooth="yes"/>
      <point x="326" y="858"/>
      <point x="306" y="846"/>
      <point x="283" y="846" type="curve" smooth="yes"/>
      <point x="241" y="846"/>
      <point x="211" y="870"/>
      <point x="155" y="870" type="curve" smooth="yes"/>
      <point x="73" y="870"/>
      <point x="25" y="815"/>
      <point x="25" y="728" type="curve" smooth="yes"/>
      <point x="25" y="709"/>
      <point x="35" y="695"/>
      <point x="64" y="695" type="curve" smooth="yes"/>
      <point x="94" y="695"/>
      <point x="105" y="709"/>
      <point x="105" y="728" type="curve" smooth="yes"/>
      <point x="105" y="761"/>
      <point x="125" y="786"/>
      <point x="156" y="786" type="curve" smooth="yes"/>
      <point x="194" y="786"/>
      <point x="221" y="763"/>
      <point x="271" y="763" type="curve" smooth="yes"/>
      <point x="296" y="763"/>
      <point x="319" y="770"/>
      <point x="335" y="781" type="curve"/>
      <point x="335" y="14" type="line" smooth="yes"/>
      <point x="335" y="-5"/>
      <point x="350" y="-14"/>
    </contour>
    <contour>
      <point x="843" y="119" type="curve"/>
      <point x="925" y="126" type="line"/>
      <point x="925" y="478"/>
      <point x="735" y="551"/>
      <point x="588" y="551" type="curve" smooth="yes"/>
      <point x="453" y="551"/>
      <point x="356" y="480"/>
      <point x="356" y="379" type="curve" smooth="yes"/>
      <point x="356" y="261"/>
      <point x="446" y="201"/>
      <point x="600" y="201" type="curve" smooth="yes"/>
      <point x="789" y="201"/>
      <point x="943" y="274"/>
      <point x="1055" y="449" type="curve" smooth="yes"/>
      <point x="1068" y="469"/>
      <point x="1063" y="485"/>
      <point x="1040" y="499" type="curve" smooth="yes"/>
      <point x="1020" y="511"/>
      <point x="1004" y="509"/>
      <point x="991" y="491" type="curve" smooth="yes"/>
      <point x="896" y="345"/>
      <point x="773" y="281"/>
      <point x="613" y="281" type="curve" smooth="yes"/>
      <point x="490" y="281"/>
      <point x="423" y="315"/>
      <point x="423" y="379" type="curve" smooth="yes"/>
      <point x="423" y="436"/>
      <point x="485" y="471"/>
      <point x="575" y="471" type="curve" smooth="yes"/>
      <point x="703" y="471"/>
      <point x="843" y="423"/>
    </contour>
    <contour>
      <point x="886" y="-14" type="curve" smooth="yes"/>
      <point x="915" y="-14"/>
      <point x="930" y="-5"/>
      <point x="930" y="14" type="curve" smooth="yes"/>
      <point x="930" y="863" type="line" smooth="yes"/>
      <point x="930" y="881"/>
      <point x="915" y="890"/>
      <point x="886" y="890" type="curve" smooth="yes"/>
      <point x="858" y="890"/>
      <point x="843" y="881"/>
      <point x="843" y="863" type="curve" smooth="yes"/>
      <point x="843" y="14" type="line" smooth="yes"/>
      <point x="843" y="-5"/>
      <point x="858" y="-14"/>
    </contour>
  </outline>
</glyph>
<glyph name="I.dec" format="2">
  <advance width="521"/>
  <anchor x="264" y="0" name="bottom"/>
  <anchor x="312" y="-5" name="ogonek"/>
  <anchor x="268" y="838" name="top"/>
  <outline>
    <contour>
      <point x="226" y="-19" type="curve" smooth="yes"/>
      <point x="351" y="-19"/>
      <point x="450" y="71"/>
      <point x="450" y="249" type="curve" smooth="yes"/>
      <point x="450" y="863" type="line" smooth="yes"/>
      <point x="450" y="881"/>
      <point x="438" y="890"/>
      <point x="413" y="890" type="curve" smooth="yes"/>
      <point x="396" y="890"/>
      <point x="385" y="885"/>
      <point x="368" y="870" type="curve" smooth="yes"/>
      <point x="354" y="858"/>
      <point x="330" y="846"/>
      <point x="306" y="846" type="curve" smooth="yes"/>
      <point x="265" y="846"/>
      <point x="230" y="870"/>
      <point x="174" y="870" type="curve" smooth="yes"/>
      <point x="91" y="870"/>
      <point x="40" y="815"/>
      <point x="40" y="728" type="curve" smooth="yes"/>
      <point x="40" y="709"/>
      <point x="50" y="695"/>
      <point x="79" y="695" type="curve" smooth="yes"/>
      <point x="109" y="695"/>
      <point x="120" y="709"/>
      <point x="120" y="728" type="curve" smooth="yes"/>
      <point x="120" y="761"/>
      <point x="144" y="786"/>
      <point x="175" y="786" type="curve" smooth="yes"/>
      <point x="213" y="786"/>
      <point x="245" y="763"/>
      <point x="295" y="763" type="curve" smooth="yes"/>
      <point x="320" y="763"/>
      <point x="346" y="770"/>
      <point x="363" y="781" type="curve"/>
      <point x="363" y="260" type="line" smooth="yes"/>
      <point x="363" y="111"/>
      <point x="304" y="66"/>
      <point x="229" y="66" type="curve" smooth="yes"/>
      <point x="169" y="66"/>
      <point x="141" y="88"/>
      <point x="119" y="110" type="curve" smooth="yes"/>
      <point x="100" y="129"/>
      <point x="86" y="139"/>
      <point x="63" y="121" type="curve" smooth="yes"/>
      <point x="39" y="104"/>
      <point x="39" y="88"/>
      <point x="54" y="65" type="curve" smooth="yes"/>
      <point x="74" y="35"/>
      <point x="134" y="-19"/>
    </contour>
  </outline>
</glyph>
<glyph name="I_locl" format="2">
  <advance width="375"/>
  <anchor x="188" y="0" name="bottom"/>
  <anchor x="338" y="13" name="ogonek"/>
  <anchor x="188" y="838" name="top"/>
  <outline>
    <contour>
      <point x="48" y="0" type="curve" smooth="yes"/>
      <point x="328" y="0" type="line" smooth="yes"/>
      <point x="348" y="0"/>
      <point x="355" y="10"/>
      <point x="355" y="40" type="curve" smooth="yes"/>
      <point x="355" y="70"/>
      <point x="348" y="80"/>
      <point x="328" y="80" type="curve" smooth="yes"/>
      <point x="231" y="80" type="line"/>
      <point x="231" y="795" type="line"/>
      <point x="328" y="795" type="line" smooth="yes"/>
      <point x="348" y="795"/>
      <point x="355" y="805"/>
      <point x="355" y="835" type="curve" smooth="yes"/>
      <point x="355" y="865"/>
      <point x="348" y="875"/>
      <point x="328" y="875" type="curve" smooth="yes"/>
      <point x="48" y="875" type="line" smooth="yes"/>
      <point x="28" y="875"/>
      <point x="20" y="865"/>
      <point x="20" y="835" type="curve" smooth="yes"/>
      <point x="20" y="805"/>
      <point x="28" y="795"/>
      <point x="48" y="795" type="curve" smooth="yes"/>
      <point x="144" y="795" type="line"/>
      <point x="144" y="80" type="line"/>
      <point x="48" y="80" type="line" smooth="yes"/>
      <point x="28" y="80"/>
      <point x="20" y="70"/>
      <point x="20" y="40" type="curve" smooth="yes"/>
      <point x="20" y="10"/>
      <point x="28" y="0"/>
    </contour>
  </outline>
</glyph>
<glyph name="J.cur" format="2">
  <advance width="763"/>
  <anchor x="403" y="-406" name="bottom"/>
  <anchor x="331" y="838" name="top"/>
  <outline>
    <contour>
      <point x="374" y="-394" type="curve" smooth="yes"/>
      <point x="498" y="-394"/>
      <point x="575" y="-307"/>
      <point x="575" y="-167" type="curve" smooth="yes"/>
      <point x="575" y="49" type="line"/>
      <point x="624" y="84"/>
      <point x="680" y="123"/>
      <point x="743" y="166" type="curve" smooth="yes"/>
      <point x="761" y="179"/>
      <point x="763" y="199"/>
      <point x="748" y="220" type="curve" smooth="yes"/>
      <point x="736" y="239"/>
      <point x="718" y="246"/>
      <point x="700" y="234" type="curve" smooth="yes"/>
      <point x="655" y="203"/>
      <point x="613" y="174"/>
      <point x="575" y="147" type="curve"/>
      <point x="575" y="568" type="line" smooth="yes"/>
      <point x="575" y="790"/>
      <point x="496" y="890"/>
      <point x="351" y="890" type="curve" smooth="yes"/>
      <point x="183" y="890"/>
      <point x="65" y="741"/>
      <point x="65" y="536" type="curve" smooth="yes"/>
      <point x="65" y="343"/>
      <point x="134" y="223"/>
      <point x="339" y="98" type="curve" smooth="yes"/>
      <point x="358" y="86"/>
      <point x="379" y="93"/>
      <point x="393" y="116" type="curve" smooth="yes"/>
      <point x="405" y="139"/>
      <point x="401" y="153"/>
      <point x="383" y="165" type="curve" smooth="yes"/>
      <point x="214" y="274"/>
      <point x="156" y="375"/>
      <point x="156" y="536" type="curve" smooth="yes"/>
      <point x="156" y="694"/>
      <point x="235" y="808"/>
      <point x="351" y="808" type="curve" smooth="yes"/>
      <point x="439" y="808"/>
      <point x="488" y="735"/>
      <point x="488" y="568" type="curve" smooth="yes"/>
      <point x="488" y="84" type="line"/>
      <point x="307" y="-52"/>
      <point x="221" y="-147"/>
      <point x="221" y="-246" type="curve" smooth="yes"/>
      <point x="221" y="-331"/>
      <point x="284" y="-394"/>
    </contour>
    <contour>
      <point x="383" y="-314" type="curve" smooth="yes"/>
      <point x="341" y="-314"/>
      <point x="313" y="-284"/>
      <point x="313" y="-241" type="curve" smooth="yes"/>
      <point x="313" y="-175"/>
      <point x="368" y="-110"/>
      <point x="488" y="-16" type="curve"/>
      <point x="488" y="-170" type="line" smooth="yes"/>
      <point x="488" y="-259"/>
      <point x="448" y="-314"/>
    </contour>
  </outline>
</glyph>
<glyph name="J.cur.ini" format="2">
  <advance width="671"/>
  <anchor x="403" y="-406" name="bottom"/>
  <anchor x="671" y="0" name="cnct"/>
  <anchor x="331" y="838" name="top"/>
  <outline>
    <contour>
      <point x="394" y="-394" type="curve" smooth="yes"/>
      <point x="513" y="-394"/>
      <point x="575" y="-312"/>
      <point x="575" y="-161" type="curve" smooth="yes"/>
      <point x="575" y="568" type="line" smooth="yes"/>
      <point x="575" y="790"/>
      <point x="496" y="890"/>
      <point x="351" y="890" type="curve" smooth="yes"/>
      <point x="183" y="890"/>
      <point x="65" y="741"/>
      <point x="65" y="536" type="curve" smooth="yes"/>
      <point x="65" y="341"/>
      <point x="135" y="221"/>
      <point x="341" y="95" type="curve" smooth="yes"/>
      <point x="360" y="84"/>
      <point x="378" y="90"/>
      <point x="393" y="116" type="curve" smooth="yes"/>
      <point x="406" y="140"/>
      <point x="403" y="158"/>
      <point x="385" y="169" type="curve" smooth="yes"/>
      <point x="215" y="278"/>
      <point x="156" y="376"/>
      <point x="156" y="536" type="curve" smooth="yes"/>
      <point x="156" y="694"/>
      <point x="235" y="808"/>
      <point x="351" y="808" type="curve" smooth="yes"/>
      <point x="439" y="808"/>
      <point x="488" y="735"/>
      <point x="488" y="568" type="curve" smooth="yes"/>
      <point x="488" y="-172" type="line" smooth="yes"/>
      <point x="488" y="-265"/>
      <point x="459" y="-316"/>
      <point x="400" y="-316" type="curve" smooth="yes"/>
      <point x="354" y="-316"/>
      <point x="333" y="-294"/>
      <point x="333" y="-257" type="curve" smooth="yes"/>
      <point x="333" y="-207"/>
      <point x="245" y="-216"/>
      <point x="245" y="-266" type="curve" smooth="yes"/>
      <point x="245" y="-344"/>
      <point x="303" y="-394"/>
    </contour>
  </outline>
</glyph>
<glyph name="J.dec" format="2">
  <advance width="534"/>
  <anchor x="276" y="-406" name="bottom"/>
  <anchor x="330" y="838" name="top"/>
  <outline>
    <contour>
      <point x="269" y="-394" type="curve" smooth="yes"/>
      <point x="379" y="-394"/>
      <point x="438" y="-312"/>
      <point x="438" y="-161" type="curve" smooth="yes"/>
      <point x="438" y="863" type="line" smooth="yes"/>
      <point x="438" y="881"/>
      <point x="425" y="890"/>
      <point x="400" y="890" type="curve" smooth="yes"/>
      <point x="384" y="890"/>
      <point x="373" y="885"/>
      <point x="355" y="870" type="curve" smooth="yes"/>
      <point x="341" y="858"/>
      <point x="318" y="846"/>
      <point x="294" y="846" type="curve" smooth="yes"/>
      <point x="253" y="846"/>
      <point x="218" y="870"/>
      <point x="161" y="870" type="curve" smooth="yes"/>
      <point x="79" y="870"/>
      <point x="28" y="815"/>
      <point x="28" y="728" type="curve" smooth="yes"/>
      <point x="28" y="709"/>
      <point x="38" y="695"/>
      <point x="66" y="695" type="curve" smooth="yes"/>
      <point x="96" y="695"/>
      <point x="108" y="709"/>
      <point x="108" y="728" type="curve" smooth="yes"/>
      <point x="108" y="761"/>
      <point x="131" y="786"/>
      <point x="163" y="786" type="curve" smooth="yes"/>
      <point x="200" y="786"/>
      <point x="233" y="763"/>
      <point x="283" y="763" type="curve" smooth="yes"/>
      <point x="308" y="763"/>
      <point x="334" y="770"/>
      <point x="350" y="781" type="curve"/>
      <point x="350" y="-172" type="line" smooth="yes"/>
      <point x="350" y="-265"/>
      <point x="325" y="-316"/>
      <point x="275" y="-316" type="curve" smooth="yes"/>
      <point x="238" y="-316"/>
      <point x="220" y="-294"/>
      <point x="220" y="-257" type="curve" smooth="yes"/>
      <point x="220" y="-187"/>
      <point x="274" y="-115"/>
      <point x="359" y="-25" type="curve" smooth="yes"/>
      <point x="401" y="20"/>
      <point x="488" y="91"/>
      <point x="589" y="164" type="curve" smooth="yes"/>
      <point x="605" y="176"/>
      <point x="608" y="189"/>
      <point x="596" y="208" type="curve" smooth="yes"/>
      <point x="583" y="230"/>
      <point x="570" y="234"/>
      <point x="551" y="221" type="curve" smooth="yes"/>
      <point x="468" y="163"/>
      <point x="384" y="96"/>
      <point x="330" y="46" type="curve" smooth="yes"/>
      <point x="213" y="-65"/>
      <point x="133" y="-170"/>
      <point x="133" y="-266" type="curve" smooth="yes"/>
      <point x="133" y="-344"/>
      <point x="185" y="-394"/>
    </contour>
  </outline>
</glyph>
<glyph name="L.dec" format="2">
  <advance width="805"/>
  <anchor x="550" y="413" name="CAT"/>
  <anchor x="506" y="0" name="bottom"/>
  <anchor x="289" y="350" name="center"/>
  <anchor x="481" y="838" name="top"/>
  <anchor x="650" y="875" name="topright"/>
  <outline>
    <contour>
      <point x="546" y="-11" type="curve" smooth="yes"/>
      <point x="675" y="-11"/>
      <point x="768" y="51"/>
      <point x="791" y="154" type="curve" smooth="yes"/>
      <point x="795" y="175"/>
      <point x="786" y="188"/>
      <point x="764" y="195" type="curve" smooth="yes"/>
      <point x="738" y="204"/>
      <point x="719" y="196"/>
      <point x="714" y="175" type="curve" smooth="yes"/>
      <point x="698" y="113"/>
      <point x="636" y="73"/>
      <point x="554" y="73" type="curve" smooth="yes"/>
      <point x="389" y="73"/>
      <point x="295" y="203"/>
      <point x="170" y="203" type="curve" smooth="yes"/>
      <point x="96" y="203"/>
      <point x="39" y="159"/>
      <point x="39" y="86" type="curve" smooth="yes"/>
      <point x="39" y="26"/>
      <point x="86" y="-17"/>
      <point x="168" y="-17" type="curve" smooth="yes"/>
      <point x="271" y="-17"/>
      <point x="336" y="50"/>
      <point x="336" y="161" type="curve" smooth="yes"/>
      <point x="336" y="556" type="line" smooth="yes"/>
      <point x="336" y="715"/>
      <point x="390" y="806"/>
      <point x="498" y="806" type="curve" smooth="yes"/>
      <point x="558" y="806"/>
      <point x="599" y="779"/>
      <point x="599" y="726" type="curve" smooth="yes"/>
      <point x="599" y="658"/>
      <point x="549" y="613"/>
      <point x="433" y="613" type="curve" smooth="yes"/>
      <point x="300" y="613"/>
      <point x="183" y="659"/>
      <point x="103" y="718" type="curve" smooth="yes"/>
      <point x="85" y="731"/>
      <point x="68" y="728"/>
      <point x="51" y="704" type="curve" smooth="yes"/>
      <point x="36" y="683"/>
      <point x="41" y="665"/>
      <point x="58" y="653" type="curve" smooth="yes"/>
      <point x="148" y="583"/>
      <point x="279" y="530"/>
      <point x="433" y="530" type="curve" smooth="yes"/>
      <point x="594" y="530"/>
      <point x="690" y="616"/>
      <point x="690" y="730" type="curve" smooth="yes"/>
      <point x="690" y="825"/>
      <point x="608" y="890"/>
      <point x="500" y="890" type="curve" smooth="yes"/>
      <point x="339" y="890"/>
      <point x="249" y="766"/>
      <point x="249" y="566" type="curve" smooth="yes"/>
      <point x="249" y="161" type="line" smooth="yes"/>
      <point x="249" y="104"/>
      <point x="230" y="63"/>
      <point x="171" y="63" type="curve" smooth="yes"/>
      <point x="144" y="63"/>
      <point x="131" y="75"/>
      <point x="131" y="91" type="curve" smooth="yes"/>
      <point x="131" y="109"/>
      <point x="141" y="123"/>
      <point x="174" y="123" type="curve" smooth="yes"/>
      <point x="269" y="123"/>
      <point x="356" y="-11"/>
    </contour>
  </outline>
</glyph>
<glyph name="L.dec.ini" format="2">
  <advance width="773"/>
  <anchor x="550" y="413" name="CAT"/>
  <anchor x="506" y="0" name="bottom"/>
  <anchor x="289" y="363" name="center"/>
  <anchor x="773" y="0" name="cnct"/>
  <anchor x="481" y="838" name="top"/>
  <anchor x="650" y="875" name="topright"/>
  <outline>
    <contour>
      <point x="178" y="-21" type="curve" smooth="yes"/>
      <point x="274" y="-21"/>
      <point x="336" y="50"/>
      <point x="336" y="161" type="curve" smooth="yes"/>
      <point x="336" y="556" type="line" smooth="yes"/>
      <point x="336" y="715"/>
      <point x="390" y="806"/>
      <point x="498" y="806" type="curve" smooth="yes"/>
      <point x="558" y="806"/>
      <point x="599" y="779"/>
      <point x="599" y="726" type="curve" smooth="yes"/>
      <point x="599" y="658"/>
      <point x="549" y="613"/>
      <point x="433" y="613" type="curve" smooth="yes"/>
      <point x="300" y="613"/>
      <point x="183" y="659"/>
      <point x="103" y="718" type="curve" smooth="yes"/>
      <point x="85" y="731"/>
      <point x="68" y="728"/>
      <point x="51" y="704" type="curve" smooth="yes"/>
      <point x="36" y="683"/>
      <point x="41" y="665"/>
      <point x="58" y="653" type="curve" smooth="yes"/>
      <point x="148" y="583"/>
      <point x="279" y="530"/>
      <point x="433" y="530" type="curve" smooth="yes"/>
      <point x="594" y="530"/>
      <point x="690" y="616"/>
      <point x="690" y="730" type="curve" smooth="yes"/>
      <point x="690" y="825"/>
      <point x="608" y="890"/>
      <point x="500" y="890" type="curve" smooth="yes"/>
      <point x="339" y="890"/>
      <point x="249" y="766"/>
      <point x="249" y="566" type="curve" smooth="yes"/>
      <point x="249" y="161" type="line" smooth="yes"/>
      <point x="249" y="99"/>
      <point x="220" y="54"/>
      <point x="173" y="54" type="curve" smooth="yes"/>
      <point x="150" y="54"/>
      <point x="130" y="69"/>
      <point x="130" y="88" type="curve" smooth="yes"/>
      <point x="130" y="106"/>
      <point x="154" y="121"/>
      <point x="178" y="121" type="curve" smooth="yes"/>
      <point x="333" y="121"/>
      <point x="469" y="-17"/>
      <point x="698" y="-17" type="curve" smooth="yes"/>
      <point x="749" y="-17"/>
      <point x="768" y="58"/>
      <point x="718" y="58" type="curve" smooth="yes"/>
      <point x="531" y="58"/>
      <point x="373" y="199"/>
      <point x="184" y="199" type="curve" smooth="yes"/>
      <point x="111" y="199"/>
      <point x="49" y="150"/>
      <point x="49" y="81" type="curve" smooth="yes"/>
      <point x="49" y="14"/>
      <point x="101" y="-21"/>
    </contour>
  </outline>
</glyph>
<glyph name="M.cur.ini" format="2">
  <advance width="1290"/>
  <anchor x="683" y="0" name="bottom"/>
  <anchor x="1290" y="0" name="cnct"/>
  <anchor x="696" y="838" name="top"/>
  <outline>
    <contour>
      <point x="1215" y="-17" type="curve" smooth="yes"/>
      <point x="1265" y="-17"/>
      <point x="1283" y="58"/>
      <point x="1233" y="58" type="curve" smooth="yes"/>
      <point x="1163" y="58"/>
      <point x="1131" y="93"/>
      <point x="1131" y="168" type="curve" smooth="yes"/>
      <point x="1131" y="686" type="line" smooth="yes"/>
      <point x="1131" y="823"/>
      <point x="1065" y="890"/>
      <point x="940" y="890" type="curve" smooth="yes"/>
      <point x="825" y="890"/>
      <point x="720" y="801"/>
      <point x="691" y="680" type="curve"/>
      <point x="707" y="569" type="line"/>
      <point x="731" y="706"/>
      <point x="827" y="805"/>
      <point x="935" y="805" type="curve" smooth="yes"/>
      <point x="1007" y="805"/>
      <point x="1043" y="768"/>
      <point x="1043" y="679" type="curve" smooth="yes"/>
      <point x="1043" y="166" type="line" smooth="yes"/>
      <point x="1043" y="41"/>
      <point x="1098" y="-17"/>
    </contour>
    <contour>
      <point x="290" y="-15" type="curve" smooth="yes"/>
      <point x="318" y="-15"/>
      <point x="333" y="-6"/>
      <point x="333" y="13" type="curve" smooth="yes"/>
      <point x="333" y="743" type="line" smooth="yes"/>
      <point x="333" y="838"/>
      <point x="292" y="890"/>
      <point x="201" y="890" type="curve" smooth="yes"/>
      <point x="118" y="890"/>
      <point x="63" y="838"/>
      <point x="18" y="770" type="curve" smooth="yes"/>
      <point x="5" y="750"/>
      <point x="3" y="735"/>
      <point x="26" y="720" type="curve" smooth="yes"/>
      <point x="47" y="705"/>
      <point x="63" y="708"/>
      <point x="77" y="726" type="curve" smooth="yes"/>
      <point x="115" y="780"/>
      <point x="152" y="806"/>
      <point x="193" y="806" type="curve" smooth="yes"/>
      <point x="228" y="806"/>
      <point x="246" y="784"/>
      <point x="246" y="743" type="curve" smooth="yes"/>
      <point x="246" y="13" type="line" smooth="yes"/>
      <point x="246" y="-6"/>
      <point x="261" y="-15"/>
    </contour>
    <contour>
      <point x="688" y="-15" type="curve" smooth="yes"/>
      <point x="717" y="-15"/>
      <point x="732" y="-6"/>
      <point x="732" y="13" type="curve" smooth="yes"/>
      <point x="732" y="689" type="line" smooth="yes"/>
      <point x="732" y="818"/>
      <point x="657" y="890"/>
      <point x="525" y="890" type="curve" smooth="yes"/>
      <point x="416" y="890"/>
      <point x="318" y="801"/>
      <point x="291" y="678" type="curve"/>
      <point x="307" y="569" type="line"/>
      <point x="330" y="706"/>
      <point x="420" y="805"/>
      <point x="520" y="805" type="curve" smooth="yes"/>
      <point x="603" y="805"/>
      <point x="645" y="764"/>
      <point x="645" y="681" type="curve" smooth="yes"/>
      <point x="645" y="13" type="line" smooth="yes"/>
      <point x="645" y="-6"/>
      <point x="660" y="-15"/>
    </contour>
  </outline>
</glyph>
<glyph name="M_locl.au" format="2">
  <advance width="1050"/>
  <anchor x="525" y="0" name="bottom"/>
  <anchor x="525" y="838" name="top"/>
  <outline>
    <contour>
      <point x="169" y="-14" type="curve" smooth="yes"/>
      <point x="198" y="-14"/>
      <point x="213" y="-5"/>
      <point x="213" y="14" type="curve" smooth="yes"/>
      <point x="213" y="664" type="line"/>
      <point x="474" y="25" type="line" smooth="yes"/>
      <point x="481" y="6"/>
      <point x="500" y="0"/>
      <point x="526" y="0" type="curve" smooth="yes"/>
      <point x="551" y="0"/>
      <point x="569" y="9"/>
      <point x="576" y="26" type="curve" smooth="yes"/>
      <point x="838" y="664" type="line"/>
      <point x="838" y="14" type="line" smooth="yes"/>
      <point x="838" y="-5"/>
      <point x="853" y="-14"/>
      <point x="881" y="-14" type="curve" smooth="yes"/>
      <point x="910" y="-14"/>
      <point x="925" y="-5"/>
      <point x="925" y="14" type="curve" smooth="yes"/>
      <point x="925" y="860" type="line" smooth="yes"/>
      <point x="925" y="879"/>
      <point x="908" y="890"/>
      <point x="876" y="890" type="curve" smooth="yes"/>
      <point x="848" y="890"/>
      <point x="834" y="876"/>
      <point x="828" y="860" type="curve" smooth="yes"/>
      <point x="525" y="113" type="line"/>
      <point x="223" y="860" type="line" smooth="yes"/>
      <point x="216" y="876"/>
      <point x="203" y="890"/>
      <point x="174" y="890" type="curve" smooth="yes"/>
      <point x="143" y="890"/>
      <point x="125" y="879"/>
      <point x="125" y="860" type="curve" smooth="yes"/>
      <point x="125" y="14" type="line" smooth="yes"/>
      <point x="125" y="-5"/>
      <point x="140" y="-14"/>
    </contour>
  </outline>
</glyph>
<glyph name="N.cur" format="2">
  <advance width="996"/>
  <anchor x="514" y="0" name="bottom"/>
  <anchor x="516" y="838" name="top"/>
  <outline>
    <contour>
      <point x="843" y="-17" type="curve" smooth="yes"/>
      <point x="896" y="-17"/>
      <point x="945" y="13"/>
      <point x="975" y="65" type="curve" smooth="yes"/>
      <point x="989" y="88"/>
      <point x="989" y="106"/>
      <point x="965" y="121" type="curve" smooth="yes"/>
      <point x="941" y="136"/>
      <point x="929" y="128"/>
      <point x="913" y="106" type="curve" smooth="yes"/>
      <point x="895" y="83"/>
      <point x="875" y="68"/>
      <point x="848" y="68" type="curve" smooth="yes"/>
      <point x="810" y="68"/>
      <point x="793" y="98"/>
      <point x="793" y="153" type="curve" smooth="yes"/>
      <point x="793" y="636" type="line" smooth="yes"/>
      <point x="793" y="803"/>
      <point x="713" y="890"/>
      <point x="564" y="890" type="curve" smooth="yes"/>
      <point x="471" y="890"/>
      <point x="382" y="839"/>
      <point x="332" y="760" type="curve"/>
      <point x="332" y="762" type="line" smooth="yes"/>
      <point x="332" y="829"/>
      <point x="294" y="890"/>
      <point x="200" y="890" type="curve" smooth="yes"/>
      <point x="118" y="890"/>
      <point x="63" y="838"/>
      <point x="18" y="770" type="curve" smooth="yes"/>
      <point x="4" y="750"/>
      <point x="3" y="735"/>
      <point x="25" y="720" type="curve" smooth="yes"/>
      <point x="46" y="705"/>
      <point x="63" y="706"/>
      <point x="76" y="726" type="curve" smooth="yes"/>
      <point x="114" y="780"/>
      <point x="151" y="806"/>
      <point x="193" y="806" type="curve" smooth="yes"/>
      <point x="228" y="806"/>
      <point x="245" y="784"/>
      <point x="245" y="743" type="curve" smooth="yes"/>
      <point x="245" y="13" type="line" smooth="yes"/>
      <point x="245" y="-6"/>
      <point x="260" y="-15"/>
      <point x="289" y="-15" type="curve" smooth="yes"/>
      <point x="318" y="-15"/>
      <point x="333" y="-6"/>
      <point x="333" y="13" type="curve" smooth="yes"/>
      <point x="333" y="640" type="line"/>
      <point x="375" y="738"/>
      <point x="463" y="805"/>
      <point x="559" y="805" type="curve" smooth="yes"/>
      <point x="654" y="805"/>
      <point x="705" y="746"/>
      <point x="705" y="636" type="curve" smooth="yes"/>
      <point x="705" y="151" type="line" smooth="yes"/>
      <point x="705" y="44"/>
      <point x="753" y="-17"/>
    </contour>
  </outline>
</glyph>
<glyph name="N.cur.ini" format="2">
  <advance width="953"/>
  <anchor x="515" y="0" name="bottom"/>
  <anchor x="953" y="0" name="cnct"/>
  <anchor x="517" y="838" name="top"/>
  <outline>
    <contour>
      <point x="877" y="-17" type="curve" smooth="yes"/>
      <point x="927" y="-17"/>
      <point x="946" y="58"/>
      <point x="896" y="58" type="curve" smooth="yes"/>
      <point x="826" y="58"/>
      <point x="793" y="93"/>
      <point x="793" y="168" type="curve" smooth="yes"/>
      <point x="793" y="636" type="line" smooth="yes"/>
      <point x="793" y="803"/>
      <point x="713" y="890"/>
      <point x="565" y="890" type="curve" smooth="yes"/>
      <point x="471" y="890"/>
      <point x="383" y="839"/>
      <point x="333" y="760" type="curve"/>
      <point x="333" y="762" type="line" smooth="yes"/>
      <point x="333" y="829"/>
      <point x="295" y="890"/>
      <point x="201" y="890" type="curve" smooth="yes"/>
      <point x="118" y="890"/>
      <point x="63" y="838"/>
      <point x="18" y="770" type="curve" smooth="yes"/>
      <point x="5" y="750"/>
      <point x="3" y="735"/>
      <point x="26" y="720" type="curve" smooth="yes"/>
      <point x="47" y="705"/>
      <point x="63" y="706"/>
      <point x="77" y="726" type="curve" smooth="yes"/>
      <point x="115" y="780"/>
      <point x="151" y="806"/>
      <point x="193" y="806" type="curve" smooth="yes"/>
      <point x="228" y="806"/>
      <point x="246" y="784"/>
      <point x="246" y="743" type="curve" smooth="yes"/>
      <point x="246" y="13" type="line" smooth="yes"/>
      <point x="246" y="-6"/>
      <point x="261" y="-15"/>
      <point x="290" y="-15" type="curve" smooth="yes"/>
      <point x="319" y="-15"/>
      <point x="334" y="-6"/>
      <point x="334" y="13" type="curve" smooth="yes"/>
      <point x="334" y="640" type="line"/>
      <point x="376" y="738"/>
      <point x="463" y="805"/>
      <point x="560" y="805" type="curve" smooth="yes"/>
      <point x="655" y="805"/>
      <point x="706" y="746"/>
      <point x="706" y="636" type="curve" smooth="yes"/>
      <point x="706" y="166" type="line" smooth="yes"/>
      <point x="706" y="41"/>
      <point x="761" y="-17"/>
    </contour>
  </outline>
</glyph>
<glyph name="N.dec" format="2">
  <advance width="1124"/>
  <anchor x="543" y="0" name="bottom"/>
  <anchor x="630" y="838" name="top"/>
  <outline>
    <contour>
      <point x="189" y="-17" type="curve" smooth="yes"/>
      <point x="320" y="-17"/>
      <point x="403" y="94"/>
      <point x="403" y="409" type="curve" smooth="yes"/>
      <point x="403" y="694" type="line"/>
      <point x="778" y="15" type="line" smooth="yes"/>
      <point x="791" y="-10"/>
      <point x="801" y="-14"/>
      <point x="821" y="-14" type="curve" smooth="yes"/>
      <point x="850" y="-14"/>
      <point x="865" y="-5"/>
      <point x="865" y="14" type="curve" smooth="yes"/>
      <point x="865" y="634" type="line" smooth="yes"/>
      <point x="865" y="766"/>
      <point x="895" y="808"/>
      <point x="965" y="808" type="curve" smooth="yes"/>
      <point x="1001" y="808"/>
      <point x="1046" y="789"/>
      <point x="1066" y="778" type="curve" smooth="yes"/>
      <point x="1086" y="766"/>
      <point x="1101" y="768"/>
      <point x="1115" y="785" type="curve" smooth="yes"/>
      <point x="1130" y="804"/>
      <point x="1133" y="823"/>
      <point x="1118" y="835" type="curve" smooth="yes"/>
      <point x="1085" y="865"/>
      <point x="1029" y="890"/>
      <point x="971" y="890" type="curve" smooth="yes"/>
      <point x="838" y="890"/>
      <point x="778" y="809"/>
      <point x="778" y="634" type="curve" smooth="yes"/>
      <point x="778" y="193" type="line"/>
      <point x="409" y="861" type="line" smooth="yes"/>
      <point x="398" y="881"/>
      <point x="383" y="890"/>
      <point x="359" y="890" type="curve" smooth="yes"/>
      <point x="330" y="890"/>
      <point x="315" y="881"/>
      <point x="315" y="863" type="curve" smooth="yes"/>
      <point x="315" y="410" type="line" smooth="yes"/>
      <point x="315" y="155"/>
      <point x="266" y="65"/>
      <point x="195" y="65" type="curve" smooth="yes"/>
      <point x="145" y="65"/>
      <point x="128" y="103"/>
      <point x="128" y="148" type="curve" smooth="yes"/>
      <point x="128" y="180"/>
      <point x="136" y="215"/>
      <point x="148" y="243" type="curve" smooth="yes"/>
      <point x="155" y="263"/>
      <point x="146" y="275"/>
      <point x="120" y="286" type="curve" smooth="yes"/>
      <point x="98" y="296"/>
      <point x="81" y="289"/>
      <point x="71" y="269" type="curve" smooth="yes"/>
      <point x="48" y="223"/>
      <point x="40" y="188"/>
      <point x="40" y="136" type="curve" smooth="yes"/>
      <point x="40" y="63"/>
      <point x="83" y="-17"/>
    </contour>
  </outline>
</glyph>
<glyph name="O.cur" format="2">
  <advance width="929"/>
  <anchor x="463" y="0" name="bottom"/>
  <anchor x="463" y="438" name="center"/>
  <anchor x="591" y="6" name="ogonek"/>
  <anchor x="463" y="838" name="top"/>
  <anchor x="615" y="875" name="topright"/>
  <outline>
    <contour>
      <point x="459" y="-19" type="curve" smooth="yes"/>
      <point x="698" y="-19"/>
      <point x="860" y="171"/>
      <point x="860" y="448" type="curve" smooth="yes"/>
      <point x="860" y="720"/>
      <point x="740" y="890"/>
      <point x="548" y="890" type="curve" smooth="yes"/>
      <point x="414" y="890"/>
      <point x="334" y="825"/>
      <point x="295" y="714" type="curve" smooth="yes"/>
      <point x="285" y="685"/>
      <point x="288" y="670"/>
      <point x="306" y="659" type="curve" smooth="yes"/>
      <point x="333" y="643"/>
      <point x="353" y="650"/>
      <point x="363" y="671" type="curve" smooth="yes"/>
      <point x="403" y="759"/>
      <point x="449" y="806"/>
      <point x="531" y="806" type="curve" smooth="yes"/>
      <point x="683" y="806"/>
      <point x="768" y="675"/>
      <point x="768" y="448" type="curve" smooth="yes"/>
      <point x="768" y="221"/>
      <point x="641" y="66"/>
      <point x="460" y="66" type="curve" smooth="yes"/>
      <point x="280" y="66"/>
      <point x="161" y="209"/>
      <point x="161" y="429" type="curve" smooth="yes"/>
      <point x="161" y="598"/>
      <point x="205" y="706"/>
      <point x="283" y="779" type="curve" smooth="yes"/>
      <point x="300" y="796"/>
      <point x="305" y="811"/>
      <point x="288" y="831" type="curve" smooth="yes"/>
      <point x="268" y="854"/>
      <point x="253" y="851"/>
      <point x="229" y="834" type="curve" smooth="yes"/>
      <point x="114" y="753"/>
      <point x="69" y="573"/>
      <point x="69" y="444" type="curve" smooth="yes"/>
      <point x="69" y="166"/>
      <point x="225" y="-19"/>
    </contour>
  </outline>
</glyph>
<glyph name="P.cur" format="2">
  <advance width="831"/>
  <guideline x="393"/>
  <guideline x="315" y="260" angle="3.92"/>
  <outline>
    <contour>
      <point x="408" y="331" type="curve" smooth="yes"/>
      <point x="650" y="343"/>
      <point x="805" y="468"/>
      <point x="805" y="649" type="curve" smooth="yes"/>
      <point x="805" y="804"/>
      <point x="688" y="890"/>
      <point x="475" y="890" type="curve" smooth="yes"/>
      <point x="300" y="890"/>
      <point x="151" y="836"/>
      <point x="68" y="736" type="curve" smooth="yes"/>
      <point x="51" y="716"/>
      <point x="54" y="698"/>
      <point x="76" y="680" type="curve" smooth="yes"/>
      <point x="96" y="665"/>
      <point x="113" y="670"/>
      <point x="131" y="689" type="curve" smooth="yes"/>
      <point x="210" y="769"/>
      <point x="324" y="810"/>
      <point x="466" y="810" type="curve" smooth="yes"/>
      <point x="615" y="810"/>
      <point x="714" y="759"/>
      <point x="714" y="649" type="curve" smooth="yes"/>
      <point x="714" y="508"/>
      <point x="596" y="413"/>
      <point x="401" y="405" type="curve" smooth="yes"/>
      <point x="381" y="404"/>
      <point x="375" y="388"/>
      <point x="375" y="368" type="curve" smooth="yes"/>
      <point x="375" y="348"/>
      <point x="385" y="330"/>
    </contour>
    <contour>
      <point x="186" y="-17" type="curve" smooth="yes"/>
      <point x="291" y="-17"/>
      <point x="339" y="61"/>
      <point x="339" y="173" type="curve" smooth="yes"/>
      <point x="339" y="699" type="line" smooth="yes"/>
      <point x="339" y="718"/>
      <point x="324" y="726"/>
      <point x="295" y="726" type="curve" smooth="yes"/>
      <point x="266" y="726"/>
      <point x="251" y="718"/>
      <point x="251" y="699" type="curve" smooth="yes"/>
      <point x="251" y="178" type="line" smooth="yes"/>
      <point x="251" y="101"/>
      <point x="233" y="68"/>
      <point x="189" y="68" type="curve" smooth="yes"/>
      <point x="146" y="68"/>
      <point x="124" y="86"/>
      <point x="98" y="110" type="curve" smooth="yes"/>
      <point x="78" y="128"/>
      <point x="65" y="136"/>
      <point x="41" y="121" type="curve" smooth="yes"/>
      <point x="18" y="106"/>
      <point x="18" y="88"/>
      <point x="34" y="65" type="curve" smooth="yes"/>
      <point x="49" y="44"/>
      <point x="103" y="-17"/>
    </contour>
  </outline>
</glyph>
<glyph name="Q.cur.ini" format="2">
  <advance width="941"/>
  <anchor x="941" y="0" name="cnct"/>
  <outline>
    <contour>
      <point x="868" y="-17" type="curve" smooth="yes"/>
      <point x="924" y="-17"/>
      <point x="924" y="58"/>
      <point x="886" y="58" type="curve" smooth="yes"/>
      <point x="685" y="58"/>
      <point x="593" y="284"/>
      <point x="398" y="284" type="curve" smooth="yes"/>
      <point x="289" y="284"/>
      <point x="244" y="214"/>
      <point x="244" y="143" type="curve" smooth="yes"/>
      <point x="244" y="46"/>
      <point x="333" y="-19"/>
      <point x="459" y="-19" type="curve" smooth="yes"/>
      <point x="681" y="-19"/>
      <point x="844" y="173"/>
      <point x="844" y="430" type="curve" smooth="yes"/>
      <point x="844" y="709"/>
      <point x="700" y="890"/>
      <point x="460" y="890" type="curve" smooth="yes"/>
      <point x="230" y="890"/>
      <point x="69" y="703"/>
      <point x="69" y="443" type="curve" smooth="yes"/>
      <point x="69" y="351"/>
      <point x="90" y="255"/>
      <point x="131" y="191" type="curve" smooth="yes"/>
      <point x="150" y="161"/>
      <point x="219" y="181"/>
      <point x="198" y="228" type="curve" smooth="yes"/>
      <point x="173" y="283"/>
      <point x="160" y="371"/>
      <point x="160" y="443" type="curve" smooth="yes"/>
      <point x="160" y="653"/>
      <point x="284" y="805"/>
      <point x="460" y="805" type="curve" smooth="yes"/>
      <point x="646" y="805"/>
      <point x="753" y="658"/>
      <point x="753" y="430" type="curve" smooth="yes"/>
      <point x="753" y="203"/>
      <point x="614" y="64"/>
      <point x="460" y="64" type="curve" smooth="yes"/>
      <point x="391" y="64"/>
      <point x="335" y="89"/>
      <point x="335" y="144" type="curve" smooth="yes"/>
      <point x="335" y="173"/>
      <point x="356" y="200"/>
      <point x="396" y="200" type="curve" smooth="yes"/>
      <point x="539" y="200"/>
      <point x="659" y="-17"/>
    </contour>
  </outline>
</glyph>
<glyph name="Q.cur_locl" format="2">
  <advance width="954"/>
  <guideline x="762"/>
  <anchor x="463" y="0" name="bottom"/>
  <anchor x="463" y="438" name="center"/>
  <anchor x="591" y="6" name="ogonek"/>
  <anchor x="463" y="838" name="top"/>
  <anchor x="568" y="875" name="topright"/>
  <outline>
    <contour>
      <point x="768" y="-102" type="curve" smooth="yes"/>
      <point x="825" y="-102"/>
      <point x="888" y="-74"/>
      <point x="943" y="9" type="curve" smooth="yes"/>
      <point x="959" y="33"/>
      <point x="945" y="53"/>
      <point x="923" y="61" type="curve" smooth="yes"/>
      <point x="903" y="70"/>
      <point x="893" y="65"/>
      <point x="874" y="41" type="curve" smooth="yes"/>
      <point x="836" y="-7"/>
      <point x="814" y="-19"/>
      <point x="769" y="-19" type="curve" smooth="yes"/>
      <point x="651" y="-19"/>
      <point x="585" y="284"/>
      <point x="423" y="284" type="curve" smooth="yes"/>
      <point x="370" y="284"/>
      <point x="369" y="200"/>
      <point x="421" y="200" type="curve" smooth="yes"/>
      <point x="529" y="200"/>
      <point x="596" y="-102"/>
    </contour>
    <component base="O"/>
  </outline>
</glyph>
<glyph name="Q.dec_pt" format="2">
  <advance width="869"/>
  <outline>
    <contour>
      <point x="640" y="420" type="curve" smooth="yes"/>
      <point x="640" y="720" type="line" smooth="yes"/>
      <point x="640" y="738"/>
      <point x="625" y="748"/>
      <point x="596" y="748" type="curve" smooth="yes"/>
      <point x="568" y="748"/>
      <point x="553" y="739"/>
      <point x="553" y="720" type="curve"/>
      <point x="513" y="539"/>
      <point x="421" y="459"/>
      <point x="323" y="459" type="curve" smooth="yes"/>
      <point x="220" y="459"/>
      <point x="203" y="539"/>
      <point x="203" y="614" type="curve" smooth="yes"/>
      <point x="203" y="705"/>
      <point x="253" y="806"/>
      <point x="338" y="806" type="curve" smooth="yes"/>
      <point x="369" y="806"/>
      <point x="389" y="790"/>
      <point x="389" y="759" type="curve" smooth="yes"/>
      <point x="389" y="709"/>
      <point x="333" y="670"/>
      <point x="244" y="670" type="curve" smooth="yes"/>
      <point x="178" y="670"/>
      <point x="121" y="686"/>
      <point x="79" y="703" type="curve" smooth="yes"/>
      <point x="58" y="711"/>
      <point x="36" y="709"/>
      <point x="25" y="684" type="curve" smooth="yes"/>
      <point x="14" y="659"/>
      <point x="24" y="645"/>
      <point x="48" y="633" type="curve" smooth="yes"/>
      <point x="95" y="608"/>
      <point x="155" y="590"/>
      <point x="241" y="590" type="curve" smooth="yes"/>
      <point x="365" y="590"/>
      <point x="480" y="659"/>
      <point x="480" y="763" type="curve" smooth="yes"/>
      <point x="480" y="850"/>
      <point x="420" y="890"/>
      <point x="340" y="890" type="curve" smooth="yes"/>
      <point x="206" y="890"/>
      <point x="111" y="754"/>
      <point x="111" y="614" type="curve" smooth="yes"/>
      <point x="111" y="489"/>
      <point x="180" y="371"/>
      <point x="310" y="371" type="curve" smooth="yes"/>
      <point x="411" y="371"/>
      <point x="497" y="426"/>
      <point x="553" y="533" type="curve"/>
      <point x="553" y="420" type="line" smooth="yes"/>
      <point x="553" y="195"/>
      <point x="454" y="54"/>
      <point x="346" y="54" type="curve" smooth="yes"/>
      <point x="311" y="54"/>
      <point x="293" y="70"/>
      <point x="293" y="90" type="curve" smooth="yes"/>
      <point x="293" y="111"/>
      <point x="304" y="121"/>
      <point x="325" y="121" type="curve" smooth="yes"/>
      <point x="396" y="121"/>
      <point x="468" y="-11"/>
      <point x="619" y="-11" type="curve" smooth="yes"/>
      <point x="710" y="-11"/>
      <point x="784" y="34"/>
      <point x="835" y="124" type="curve" smooth="yes"/>
      <point x="848" y="146"/>
      <point x="845" y="163"/>
      <point x="821" y="178" type="curve" smooth="yes"/>
      <point x="800" y="191"/>
      <point x="785" y="186"/>
      <point x="769" y="165" type="curve" smooth="yes"/>
      <point x="718" y="98"/>
      <point x="676" y="73"/>
      <point x="621" y="73" type="curve" smooth="yes"/>
      <point x="513" y="73"/>
      <point x="445" y="199"/>
      <point x="323" y="199" type="curve" smooth="yes"/>
      <point x="256" y="199"/>
      <point x="211" y="158"/>
      <point x="211" y="94" type="curve" smooth="yes"/>
      <point x="211" y="19"/>
      <point x="279" y="-21"/>
      <point x="343" y="-21" type="curve" smooth="yes"/>
      <point x="508" y="-21"/>
      <point x="640" y="158"/>
    </contour>
  </outline>
</glyph>
<glyph name="R.dec.ini" format="2">
  <advance width="883"/>
  <anchor x="504" y="0" name="bottom"/>
  <anchor x="883" y="0" name="cnct"/>
  <anchor x="491" y="838" name="top"/>
  <outline>
    <contour>
      <point x="258" y="-14" type="curve" smooth="yes"/>
      <point x="290" y="-14"/>
      <point x="301" y="-4"/>
      <point x="301" y="14" type="curve" smooth="yes"/>
      <point x="301" y="465" type="line" smooth="yes"/>
      <point x="301" y="681"/>
      <point x="410" y="808"/>
      <point x="549" y="808" type="curve" smooth="yes"/>
      <point x="640" y="808"/>
      <point x="691" y="754"/>
      <point x="691" y="666" type="curve" smooth="yes"/>
      <point x="691" y="553"/>
      <point x="613" y="471"/>
      <point x="499" y="445" type="curve"/>
      <point x="481" y="461"/>
      <point x="454" y="474"/>
      <point x="428" y="474" type="curve" smooth="yes"/>
      <point x="393" y="474"/>
      <point x="370" y="454"/>
      <point x="370" y="428" type="curve" smooth="yes"/>
      <point x="370" y="400"/>
      <point x="398" y="368"/>
      <point x="455" y="370" type="curve"/>
      <point x="484" y="319"/>
      <point x="505" y="283"/>
      <point x="573" y="179" type="curve" smooth="yes"/>
      <point x="651" y="56"/>
      <point x="710" y="-17"/>
      <point x="809" y="-17" type="curve" smooth="yes"/>
      <point x="859" y="-17"/>
      <point x="875" y="58"/>
      <point x="825" y="58" type="curve" smooth="yes"/>
      <point x="783" y="58"/>
      <point x="741" y="70"/>
      <point x="635" y="230" type="curve" smooth="yes"/>
      <point x="579" y="315"/>
      <point x="560" y="345"/>
      <point x="538" y="384" type="curve"/>
      <point x="688" y="429"/>
      <point x="781" y="530"/>
      <point x="781" y="671" type="curve" smooth="yes"/>
      <point x="781" y="804"/>
      <point x="695" y="890"/>
      <point x="553" y="890" type="curve" smooth="yes"/>
      <point x="448" y="890"/>
      <point x="358" y="840"/>
      <point x="301" y="741" type="curve"/>
      <point x="301" y="863" type="line" smooth="yes"/>
      <point x="301" y="881"/>
      <point x="286" y="890"/>
      <point x="258" y="890" type="curve" smooth="yes"/>
      <point x="229" y="890"/>
      <point x="213" y="888"/>
      <point x="206" y="858" type="curve" smooth="yes"/>
      <point x="186" y="761"/>
      <point x="133" y="683"/>
      <point x="40" y="636" type="curve" smooth="yes"/>
      <point x="15" y="624"/>
      <point x="10" y="608"/>
      <point x="24" y="583" type="curve" smooth="yes"/>
      <point x="38" y="558"/>
      <point x="54" y="553"/>
      <point x="79" y="565" type="curve" smooth="yes"/>
      <point x="140" y="598"/>
      <point x="183" y="634"/>
      <point x="214" y="685" type="curve"/>
      <point x="214" y="14" type="line" smooth="yes"/>
      <point x="214" y="-4"/>
      <point x="229" y="-14"/>
    </contour>
  </outline>
</glyph>
<glyph name="T.cur" format="2">
  <advance width="721"/>
  <anchor x="421" y="0" name="bottom"/>
  <anchor x="274" y="438" name="center"/>
  <anchor x="406" y="838" name="top"/>
  <outline>
    <contour>
      <point x="446" y="-17" type="curve" smooth="yes"/>
      <point x="526" y="-17"/>
      <point x="613" y="10"/>
      <point x="668" y="84" type="curve" smooth="yes"/>
      <point x="684" y="106"/>
      <point x="681" y="125"/>
      <point x="658" y="140" type="curve" smooth="yes"/>
      <point x="641" y="151"/>
      <point x="628" y="148"/>
      <point x="605" y="125" type="curve" smooth="yes"/>
      <point x="566" y="88"/>
      <point x="514" y="68"/>
      <point x="455" y="68" type="curve" smooth="yes"/>
      <point x="348" y="68"/>
      <point x="284" y="146"/>
      <point x="284" y="279" type="curve" smooth="yes"/>
      <point x="284" y="451"/>
      <point x="378" y="684"/>
      <point x="480" y="795" type="curve"/>
      <point x="694" y="795" type="line" smooth="yes"/>
      <point x="714" y="795"/>
      <point x="721" y="805"/>
      <point x="721" y="835" type="curve" smooth="yes"/>
      <point x="721" y="865"/>
      <point x="714" y="875"/>
      <point x="694" y="875" type="curve" smooth="yes"/>
      <point x="213" y="875" type="line" smooth="yes"/>
      <point x="88" y="875"/>
      <point x="24" y="828"/>
      <point x="1" y="739" type="curve" smooth="yes"/>
      <point x="-4" y="716"/>
      <point x="3" y="701"/>
      <point x="25" y="695" type="curve" smooth="yes"/>
      <point x="51" y="688"/>
      <point x="66" y="695"/>
      <point x="73" y="718" type="curve" smooth="yes"/>
      <point x="88" y="771"/>
      <point x="116" y="795"/>
      <point x="193" y="795" type="curve" smooth="yes"/>
      <point x="384" y="795" type="line"/>
      <point x="278" y="669"/>
      <point x="198" y="453"/>
      <point x="198" y="274" type="curve" smooth="yes"/>
      <point x="198" y="91"/>
      <point x="285" y="-17"/>
    </contour>
  </outline>
</glyph>
<glyph name="T.cur.ini" format="2">
  <advance width="671"/>
  <anchor x="421" y="0" name="bottom"/>
  <anchor x="274" y="438" name="center"/>
  <anchor x="671" y="0" name="cnct"/>
  <anchor x="406" y="838" name="top"/>
  <outline>
    <contour>
      <point x="490" y="-17" type="curve" smooth="yes"/>
      <point x="540" y="-17"/>
      <point x="541" y="58"/>
      <point x="491" y="58" type="curve" smooth="yes"/>
      <point x="363" y="58"/>
      <point x="284" y="141"/>
      <point x="284" y="279" type="curve" smooth="yes"/>
      <point x="284" y="451"/>
      <point x="378" y="684"/>
      <point x="480" y="795" type="curve"/>
      <point x="694" y="795" type="line" smooth="yes"/>
      <point x="714" y="795"/>
      <point x="721" y="805"/>
      <point x="721" y="835" type="curve" smooth="yes"/>
      <point x="721" y="865"/>
      <point x="714" y="875"/>
      <point x="694" y="875" type="curve" smooth="yes"/>
      <point x="213" y="875" type="line" smooth="yes"/>
      <point x="88" y="875"/>
      <point x="24" y="828"/>
      <point x="1" y="739" type="curve" smooth="yes"/>
      <point x="-4" y="716"/>
      <point x="3" y="701"/>
      <point x="25" y="695" type="curve" smooth="yes"/>
      <point x="51" y="688"/>
      <point x="66" y="695"/>
      <point x="73" y="718" type="curve" smooth="yes"/>
      <point x="88" y="771"/>
      <point x="116" y="795"/>
      <point x="193" y="795" type="curve" smooth="yes"/>
      <point x="384" y="795" type="line"/>
      <point x="278" y="669"/>
      <point x="198" y="453"/>
      <point x="198" y="274" type="curve" smooth="yes"/>
      <point x="198" y="93"/>
      <point x="309" y="-17"/>
    </contour>
  </outline>
</glyph>
<glyph name="T.cur_locl" format="2">
  <advance width="923"/>
  <anchor x="511" y="0" name="bottom"/>
  <anchor x="347" y="387" name="center"/>
  <anchor x="511" y="838" name="top"/>
  <outline>
    <contour>
      <point x="531" y="-17" type="curve" smooth="yes"/>
      <point x="671" y="-17"/>
      <point x="779" y="46"/>
      <point x="851" y="150" type="curve" smooth="yes"/>
      <point x="865" y="171"/>
      <point x="859" y="190"/>
      <point x="835" y="204" type="curve" smooth="yes"/>
      <point x="813" y="218"/>
      <point x="796" y="211"/>
      <point x="783" y="191" type="curve" smooth="yes"/>
      <point x="729" y="115"/>
      <point x="641" y="68"/>
      <point x="535" y="68" type="curve" smooth="yes"/>
      <point x="424" y="68"/>
      <point x="330" y="139"/>
      <point x="330" y="286" type="curve" smooth="yes"/>
      <point x="330" y="308"/>
      <point x="333" y="328"/>
      <point x="336" y="346" type="curve"/>
      <point x="570" y="346" type="line" smooth="yes"/>
      <point x="588" y="346"/>
      <point x="595" y="360"/>
      <point x="595" y="386" type="curve" smooth="yes"/>
      <point x="595" y="413"/>
      <point x="588" y="426"/>
      <point x="570" y="426" type="curve" smooth="yes"/>
      <point x="368" y="426" type="line"/>
      <point x="451" y="579"/>
      <point x="665" y="664"/>
      <point x="839" y="811" type="curve" smooth="yes"/>
      <point x="851" y="823"/>
      <point x="850" y="843"/>
      <point x="836" y="860" type="curve" smooth="yes"/>
      <point x="823" y="878"/>
      <point x="806" y="879"/>
      <point x="788" y="866" type="curve" smooth="yes"/>
      <point x="751" y="841"/>
      <point x="694" y="816"/>
      <point x="606" y="816" type="curve" smooth="yes"/>
      <point x="458" y="816"/>
      <point x="382" y="890"/>
      <point x="260" y="890" type="curve" smooth="yes"/>
      <point x="120" y="890"/>
      <point x="55" y="795"/>
      <point x="55" y="693" type="curve" smooth="yes"/>
      <point x="55" y="674"/>
      <point x="70" y="663"/>
      <point x="95" y="663" type="curve" smooth="yes"/>
      <point x="120" y="663"/>
      <point x="135" y="674"/>
      <point x="135" y="693" type="curve" smooth="yes"/>
      <point x="135" y="753"/>
      <point x="173" y="808"/>
      <point x="259" y="808" type="curve" smooth="yes"/>
      <point x="359" y="808"/>
      <point x="447" y="736"/>
      <point x="563" y="736" type="curve" smooth="yes"/>
      <point x="589" y="736"/>
      <point x="610" y="739"/>
      <point x="630" y="745" type="curve"/>
      <point x="486" y="658"/>
      <point x="332" y="568"/>
      <point x="270" y="426" type="curve"/>
      <point x="124" y="426" type="line" smooth="yes"/>
      <point x="106" y="426"/>
      <point x="99" y="413"/>
      <point x="99" y="386" type="curve" smooth="yes"/>
      <point x="99" y="360"/>
      <point x="106" y="346"/>
      <point x="124" y="346" type="curve" smooth="yes"/>
      <point x="245" y="346" type="line"/>
      <point x="241" y="328"/>
      <point x="240" y="308"/>
      <point x="240" y="286" type="curve" smooth="yes"/>
      <point x="240" y="85"/>
      <point x="373" y="-17"/>
    </contour>
  </outline>
</glyph>
<glyph name="T.cur_locl.ini" format="2">
  <advance width="748"/>
  <anchor x="511" y="0" name="bottom"/>
  <anchor x="347" y="387" name="center"/>
  <anchor x="748" y="0" name="cnct"/>
  <anchor x="511" y="838" name="top"/>
  <outline>
    <contour>
      <point x="566" y="-17" type="curve" smooth="yes"/>
      <point x="616" y="-17"/>
      <point x="618" y="58"/>
      <point x="568" y="58" type="curve" smooth="yes"/>
      <point x="423" y="58"/>
      <point x="350" y="147"/>
      <point x="350" y="286" type="curve" smooth="yes"/>
      <point x="350" y="308"/>
      <point x="352" y="328"/>
      <point x="356" y="346" type="curve"/>
      <point x="570" y="346" type="line" smooth="yes"/>
      <point x="588" y="346"/>
      <point x="595" y="360"/>
      <point x="595" y="386" type="curve" smooth="yes"/>
      <point x="595" y="413"/>
      <point x="588" y="426"/>
      <point x="570" y="426" type="curve" smooth="yes"/>
      <point x="385" y="426" type="line"/>
      <point x="466" y="580"/>
      <point x="656" y="663"/>
      <point x="832" y="811" type="curve" smooth="yes"/>
      <point x="844" y="823"/>
      <point x="843" y="843"/>
      <point x="829" y="860" type="curve" smooth="yes"/>
      <point x="816" y="878"/>
      <point x="799" y="879"/>
      <point x="781" y="866" type="curve" smooth="yes"/>
      <point x="744" y="841"/>
      <point x="694" y="816"/>
      <point x="606" y="816" type="curve" smooth="yes"/>
      <point x="458" y="816"/>
      <point x="382" y="890"/>
      <point x="260" y="890" type="curve" smooth="yes"/>
      <point x="120" y="890"/>
      <point x="55" y="795"/>
      <point x="55" y="693" type="curve" smooth="yes"/>
      <point x="55" y="674"/>
      <point x="70" y="663"/>
      <point x="95" y="663" type="curve" smooth="yes"/>
      <point x="120" y="663"/>
      <point x="135" y="674"/>
      <point x="135" y="693" type="curve" smooth="yes"/>
      <point x="135" y="753"/>
      <point x="173" y="808"/>
      <point x="259" y="808" type="curve" smooth="yes"/>
      <point x="359" y="808"/>
      <point x="447" y="736"/>
      <point x="563" y="736" type="curve" smooth="yes"/>
      <point x="590" y="736"/>
      <point x="608" y="739"/>
      <point x="628" y="746" type="curve"/>
      <point x="489" y="658"/>
      <point x="349" y="566"/>
      <point x="290" y="426" type="curve"/>
      <point x="124" y="426" type="line" smooth="yes"/>
      <point x="106" y="426"/>
      <point x="99" y="413"/>
      <point x="99" y="386" type="curve" smooth="yes"/>
      <point x="99" y="360"/>
      <point x="106" y="346"/>
      <point x="124" y="346" type="curve" smooth="yes"/>
      <point x="265" y="346" type="line"/>
      <point x="261" y="328"/>
      <point x="260" y="308"/>
      <point x="260" y="286" type="curve" smooth="yes"/>
      <point x="260" y="101"/>
      <point x="366" y="-17"/>
    </contour>
  </outline>
</glyph>
<glyph name="U.cur.ini" format="2">
  <advance width="935"/>
  <anchor x="526" y="0" name="bottom"/>
  <anchor x="935" y="0" name="cnct"/>
  <anchor x="884" y="13" name="ogonek"/>
  <anchor x="497" y="838" name="top"/>
  <anchor x="732" y="888" name="topright"/>
  <outline>
    <contour>
      <point x="479" y="-17" type="curve" smooth="yes"/>
      <point x="605" y="-17"/>
      <point x="697" y="58"/>
      <point x="727" y="183" type="curve"/>
      <point x="711" y="270" type="line"/>
      <point x="686" y="144"/>
      <point x="601" y="68"/>
      <point x="484" y="68" type="curve" smooth="yes"/>
      <point x="382" y="68"/>
      <point x="327" y="123"/>
      <point x="327" y="263" type="curve" smooth="yes"/>
      <point x="327" y="743" type="line" smooth="yes"/>
      <point x="327" y="838"/>
      <point x="287" y="890"/>
      <point x="197" y="890" type="curve" smooth="yes"/>
      <point x="116" y="890"/>
      <point x="61" y="838"/>
      <point x="16" y="770" type="curve" smooth="yes"/>
      <point x="2" y="750"/>
      <point x="1" y="734"/>
      <point x="24" y="719" type="curve" smooth="yes"/>
      <point x="45" y="704"/>
      <point x="64" y="706"/>
      <point x="77" y="726" type="curve" smooth="yes"/>
      <point x="115" y="780"/>
      <point x="150" y="806"/>
      <point x="190" y="806" type="curve" smooth="yes"/>
      <point x="224" y="806"/>
      <point x="240" y="784"/>
      <point x="240" y="743" type="curve" smooth="yes"/>
      <point x="240" y="255" type="line" smooth="yes"/>
      <point x="240" y="65"/>
      <point x="329" y="-17"/>
    </contour>
    <contour>
      <point x="860" y="-17" type="curve" smooth="yes"/>
      <point x="910" y="-17"/>
      <point x="929" y="58"/>
      <point x="879" y="58" type="curve" smooth="yes"/>
      <point x="809" y="58"/>
      <point x="776" y="91"/>
      <point x="776" y="190" type="curve" smooth="yes"/>
      <point x="776" y="860" type="line" smooth="yes"/>
      <point x="776" y="879"/>
      <point x="761" y="888"/>
      <point x="732" y="888" type="curve" smooth="yes"/>
      <point x="704" y="888"/>
      <point x="689" y="879"/>
      <point x="689" y="860" type="curve" smooth="yes"/>
      <point x="689" y="189" type="line" smooth="yes"/>
      <point x="689" y="44"/>
      <point x="747" y="-17"/>
    </contour>
  </outline>
</glyph>
<glyph name="X.dec_locl" format="2">
  <advance width="1009"/>
  <outline>
    <contour>
      <point x="726" y="-17" type="curve" smooth="yes"/>
      <point x="816" y="-17"/>
      <point x="883" y="26"/>
      <point x="930" y="88" type="curve" smooth="yes"/>
      <point x="948" y="110"/>
      <point x="949" y="130"/>
      <point x="926" y="148" type="curve" smooth="yes"/>
      <point x="903" y="166"/>
      <point x="888" y="163"/>
      <point x="866" y="136" type="curve" smooth="yes"/>
      <point x="845" y="110"/>
      <point x="798" y="65"/>
      <point x="729" y="65" type="curve" smooth="yes"/>
      <point x="585" y="65"/>
      <point x="550" y="238"/>
      <point x="550" y="436" type="curve" smooth="yes"/>
      <point x="550" y="641"/>
      <point x="614" y="808"/>
      <point x="739" y="808" type="curve" smooth="yes"/>
      <point x="815" y="808"/>
      <point x="851" y="760"/>
      <point x="851" y="694" type="curve" smooth="yes"/>
      <point x="851" y="388"/>
      <point x="69" y="580"/>
      <point x="69" y="179" type="curve" smooth="yes"/>
      <point x="69" y="60"/>
      <point x="143" y="-17"/>
      <point x="256" y="-17" type="curve" smooth="yes"/>
      <point x="436" y="-17"/>
      <point x="539" y="191"/>
      <point x="539" y="436" type="curve" smooth="yes"/>
      <point x="539" y="689"/>
      <point x="469" y="890"/>
      <point x="274" y="890" type="curve" smooth="yes"/>
      <point x="191" y="890"/>
      <point x="135" y="851"/>
      <point x="93" y="790" type="curve" smooth="yes"/>
      <point x="73" y="761"/>
      <point x="78" y="743"/>
      <point x="103" y="728" type="curve" smooth="yes"/>
      <point x="125" y="714"/>
      <point x="140" y="719"/>
      <point x="156" y="740" type="curve" smooth="yes"/>
      <point x="174" y="764"/>
      <point x="213" y="808"/>
      <point x="273" y="808" type="curve" smooth="yes"/>
      <point x="415" y="808"/>
      <point x="463" y="641"/>
      <point x="463" y="436" type="curve" smooth="yes"/>
      <point x="463" y="236"/>
      <point x="388" y="65"/>
      <point x="264" y="65" type="curve" smooth="yes"/>
      <point x="198" y="65"/>
      <point x="160" y="109"/>
      <point x="160" y="183" type="curve" smooth="yes"/>
      <point x="160" y="499"/>
      <point x="943" y="299"/>
      <point x="943" y="698" type="curve" smooth="yes"/>
      <point x="943" y="810"/>
      <point x="874" y="890"/>
      <point x="746" y="890" type="curve" smooth="yes"/>
      <point x="564" y="890"/>
      <point x="474" y="689"/>
      <point x="474" y="436" type="curve" smooth="yes"/>
      <point x="474" y="191"/>
      <point x="523" y="-17"/>
    </contour>
  </outline>
</glyph>
<glyph name="X.dec_locl.ini" format="2">
  <advance width="934"/>
  <anchor x="934" y="0" name="cnct"/>
  <outline>
    <contour>
      <point x="753" y="-17" type="curve" smooth="yes"/>
      <point x="803" y="-17"/>
      <point x="804" y="58"/>
      <point x="754" y="58" type="curve" smooth="yes"/>
      <point x="619" y="58"/>
      <point x="550" y="185"/>
      <point x="550" y="436" type="curve" smooth="yes"/>
      <point x="550" y="641"/>
      <point x="614" y="808"/>
      <point x="739" y="808" type="curve" smooth="yes"/>
      <point x="815" y="808"/>
      <point x="851" y="760"/>
      <point x="851" y="694" type="curve" smooth="yes"/>
      <point x="851" y="388"/>
      <point x="69" y="580"/>
      <point x="69" y="179" type="curve" smooth="yes"/>
      <point x="69" y="60"/>
      <point x="143" y="-17"/>
      <point x="256" y="-17" type="curve" smooth="yes"/>
      <point x="436" y="-17"/>
      <point x="539" y="191"/>
      <point x="539" y="436" type="curve" smooth="yes"/>
      <point x="539" y="689"/>
      <point x="469" y="890"/>
      <point x="274" y="890" type="curve" smooth="yes"/>
      <point x="191" y="890"/>
      <point x="135" y="851"/>
      <point x="93" y="790" type="curve" smooth="yes"/>
      <point x="73" y="761"/>
      <point x="78" y="743"/>
      <point x="103" y="728" type="curve" smooth="yes"/>
      <point x="125" y="714"/>
      <point x="140" y="719"/>
      <point x="156" y="740" type="curve" smooth="yes"/>
      <point x="174" y="764"/>
      <point x="213" y="808"/>
      <point x="273" y="808" type="curve" smooth="yes"/>
      <point x="415" y="808"/>
      <point x="463" y="641"/>
      <point x="463" y="436" type="curve" smooth="yes"/>
      <point x="463" y="236"/>
      <point x="388" y="65"/>
      <point x="264" y="65" type="curve" smooth="yes"/>
      <point x="198" y="65"/>
      <point x="160" y="109"/>
      <point x="160" y="183" type="curve" smooth="yes"/>
      <point x="160" y="499"/>
      <point x="943" y="299"/>
      <point x="943" y="698" type="curve" smooth="yes"/>
      <point x="943" y="810"/>
      <point x="874" y="890"/>
      <point x="746" y="890" type="curve" smooth="yes"/>
      <point x="564" y="890"/>
      <point x="474" y="689"/>
      <point x="474" y="436" type="curve" smooth="yes"/>
      <point x="474" y="135"/>
      <point x="568" y="-17"/>
    </contour>
  </outline>
</glyph>
<glyph name="X.dec_ro" format="2">
  <advance width="963"/>
  <outline>
    <contour>
      <point x="285" y="410" type="curve" smooth="yes"/>
      <point x="694" y="410" type="line" smooth="yes"/>
      <point x="711" y="410"/>
      <point x="719" y="424"/>
      <point x="719" y="450" type="curve" smooth="yes"/>
      <point x="719" y="476"/>
      <point x="711" y="490"/>
      <point x="694" y="490" type="curve" smooth="yes"/>
      <point x="285" y="490" type="line" smooth="yes"/>
      <point x="268" y="490"/>
      <point x="260" y="476"/>
      <point x="260" y="450" type="curve" smooth="yes"/>
      <point x="260" y="424"/>
      <point x="268" y="410"/>
    </contour>
    <component base="X.dec"/>
  </outline>
</glyph>
<glyph name="X.dec_ro.ini" format="2">
  <advance width="913"/>
  <anchor x="913" y="0" name="cnct"/>
  <outline>
    <contour>
      <point x="285" y="410" type="curve" smooth="yes"/>
      <point x="694" y="410" type="line" smooth="yes"/>
      <point x="711" y="410"/>
      <point x="719" y="424"/>
      <point x="719" y="450" type="curve" smooth="yes"/>
      <point x="719" y="476"/>
      <point x="711" y="490"/>
      <point x="694" y="490" type="curve" smooth="yes"/>
      <point x="285" y="490" type="line" smooth="yes"/>
      <point x="268" y="490"/>
      <point x="260" y="476"/>
      <point x="260" y="450" type="curve" smooth="yes"/>
      <point x="260" y="424"/>
      <point x="268" y="410"/>
    </contour>
    <component base="X.dec.ini"/>
  </outline>
</glyph>
<glyph name="Y.cur.ini" format="2">
  <advance width="872"/>
  <anchor x="876" y="0" name="bottom"/>
  <anchor x="872" y="0" name="cnct"/>
  <anchor x="476" y="838" name="top"/>
  <outline>
    <contour>
      <point x="478" y="51" type="curve" smooth="yes"/>
      <point x="570" y="51"/>
      <point x="643" y="90"/>
      <point x="688" y="159" type="curve"/>
      <point x="688" y="-172" type="line" smooth="yes"/>
      <point x="688" y="-265"/>
      <point x="660" y="-316"/>
      <point x="601" y="-316" type="curve" smooth="yes"/>
      <point x="555" y="-316"/>
      <point x="533" y="-294"/>
      <point x="533" y="-257" type="curve" smooth="yes"/>
      <point x="533" y="-207"/>
      <point x="446" y="-216"/>
      <point x="446" y="-266" type="curve" smooth="yes"/>
      <point x="446" y="-344"/>
      <point x="503" y="-394"/>
      <point x="595" y="-394" type="curve" smooth="yes"/>
      <point x="713" y="-394"/>
      <point x="776" y="-312"/>
      <point x="776" y="-161" type="curve" smooth="yes"/>
      <point x="776" y="860" type="line" smooth="yes"/>
      <point x="776" y="879"/>
      <point x="761" y="888"/>
      <point x="732" y="888" type="curve" smooth="yes"/>
      <point x="703" y="888"/>
      <point x="688" y="879"/>
      <point x="688" y="860" type="curve" smooth="yes"/>
      <point x="688" y="268" type="line"/>
      <point x="650" y="185"/>
      <point x="577" y="136"/>
      <point x="483" y="136" type="curve" smooth="yes"/>
      <point x="382" y="136"/>
      <point x="327" y="191"/>
      <point x="327" y="331" type="curve" smooth="yes"/>
      <point x="327" y="743" type="line" smooth="yes"/>
      <point x="327" y="838"/>
      <point x="287" y="890"/>
      <point x="197" y="890" type="curve" smooth="yes"/>
      <point x="116" y="890"/>
      <point x="61" y="838"/>
      <point x="16" y="770" type="curve" smooth="yes"/>
      <point x="2" y="750"/>
      <point x="1" y="734"/>
      <point x="23" y="719" type="curve" smooth="yes"/>
      <point x="45" y="704"/>
      <point x="63" y="706"/>
      <point x="77" y="726" type="curve" smooth="yes"/>
      <point x="115" y="780"/>
      <point x="150" y="806"/>
      <point x="190" y="806" type="curve" smooth="yes"/>
      <point x="223" y="806"/>
      <point x="240" y="784"/>
      <point x="240" y="743" type="curve" smooth="yes"/>
      <point x="240" y="324" type="line" smooth="yes"/>
      <point x="240" y="134"/>
      <point x="328" y="51"/>
    </contour>
  </outline>
</glyph>
<glyph name="Z.cur" format="2">
  <advance width="804"/>
  <anchor x="378" y="0" name="bottom"/>
  <anchor x="378" y="438" name="center"/>
  <anchor x="378" y="838" name="top"/>
  <outline>
    <contour>
      <point x="354" y="-394" type="curve" smooth="yes"/>
      <point x="481" y="-394"/>
      <point x="563" y="-275"/>
      <point x="563" y="-80" type="curve" smooth="yes"/>
      <point x="563" y="111"/>
      <point x="515" y="230"/>
      <point x="370" y="235" type="curve"/>
      <point x="379" y="239" type="line"/>
      <point x="538" y="299"/>
      <point x="689" y="415"/>
      <point x="689" y="618" type="curve" smooth="yes"/>
      <point x="689" y="804"/>
      <point x="560" y="890"/>
      <point x="378" y="890" type="curve" smooth="yes"/>
      <point x="248" y="890"/>
      <point x="148" y="853"/>
      <point x="55" y="778" type="curve" smooth="yes"/>
      <point x="39" y="765"/>
      <point x="40" y="744"/>
      <point x="56" y="723" type="curve" smooth="yes"/>
      <point x="71" y="703"/>
      <point x="91" y="698"/>
      <point x="109" y="711" type="curve" smooth="yes"/>
      <point x="168" y="758"/>
      <point x="258" y="805"/>
      <point x="375" y="805" type="curve" smooth="yes"/>
      <point x="508" y="805"/>
      <point x="595" y="746"/>
      <point x="595" y="616" type="curve" smooth="yes"/>
      <point x="595" y="434"/>
      <point x="440" y="331"/>
      <point x="273" y="268" type="curve" smooth="yes"/>
      <point x="234" y="253"/>
      <point x="245" y="176"/>
      <point x="290" y="176" type="curve" smooth="yes"/>
      <point x="459" y="174"/>
      <point x="473" y="74"/>
      <point x="473" y="-82" type="curve" smooth="yes"/>
      <point x="473" y="-244"/>
      <point x="425" y="-309"/>
      <point x="359" y="-309" type="curve" smooth="yes"/>
      <point x="314" y="-309"/>
      <point x="294" y="-279"/>
      <point x="294" y="-236" type="curve" smooth="yes"/>
      <point x="294" y="-120"/>
      <point x="421" y="-5"/>
      <point x="721" y="165" type="curve" smooth="yes"/>
      <point x="744" y="178"/>
      <point x="745" y="195"/>
      <point x="731" y="220" type="curve" smooth="yes"/>
      <point x="718" y="244"/>
      <point x="703" y="248"/>
      <point x="675" y="233" type="curve" smooth="yes"/>
      <point x="344" y="48"/>
      <point x="200" y="-90"/>
      <point x="200" y="-244" type="curve" smooth="yes"/>
      <point x="200" y="-331"/>
      <point x="259" y="-394"/>
    </contour>
  </outline>
</glyph>
<glyph name="Z.dec_locl.ini" format="2">
  <advance width="820"/>
  <anchor x="435" y="0" name="bottom"/>
  <anchor x="435" y="438" name="center"/>
  <anchor x="820" y="0" name="cnct"/>
  <anchor x="435" y="838" name="top"/>
  <outline>
    <contour>
      <point x="639" y="-17" type="curve" smooth="yes"/>
      <point x="689" y="-17"/>
      <point x="690" y="58"/>
      <point x="640" y="58" type="curve" smooth="yes"/>
      <point x="534" y="58"/>
      <point x="381" y="108"/>
      <point x="263" y="108" type="curve" smooth="yes"/>
      <point x="246" y="108"/>
      <point x="230" y="106"/>
      <point x="215" y="104" type="curve"/>
      <point x="446" y="410" type="line"/>
      <point x="663" y="410" type="line" smooth="yes"/>
      <point x="680" y="410"/>
      <point x="688" y="424"/>
      <point x="688" y="450" type="curve" smooth="yes"/>
      <point x="688" y="476"/>
      <point x="680" y="490"/>
      <point x="663" y="490" type="curve" smooth="yes"/>
      <point x="506" y="490" type="line"/>
      <point x="758" y="823" type="line" smooth="yes"/>
      <point x="773" y="843"/>
      <point x="774" y="854"/>
      <point x="756" y="869" type="curve" smooth="yes"/>
      <point x="744" y="879"/>
      <point x="736" y="880"/>
      <point x="710" y="869" type="curve" smooth="yes"/>
      <point x="684" y="858"/>
      <point x="648" y="849"/>
      <point x="603" y="849" type="curve" smooth="yes"/>
      <point x="478" y="849"/>
      <point x="394" y="893"/>
      <point x="283" y="893" type="curve" smooth="yes"/>
      <point x="185" y="893"/>
      <point x="143" y="835"/>
      <point x="108" y="784" type="curve" smooth="yes"/>
      <point x="89" y="756"/>
      <point x="91" y="740"/>
      <point x="115" y="725" type="curve" smooth="yes"/>
      <point x="141" y="709"/>
      <point x="160" y="719"/>
      <point x="168" y="733" type="curve" smooth="yes"/>
      <point x="191" y="773"/>
      <point x="221" y="809"/>
      <point x="285" y="809" type="curve" smooth="yes"/>
      <point x="381" y="809"/>
      <point x="459" y="768"/>
      <point x="563" y="768" type="curve" smooth="yes"/>
      <point x="586" y="768"/>
      <point x="604" y="769"/>
      <point x="619" y="773" type="curve"/>
      <point x="404" y="490" type="line"/>
      <point x="201" y="490" type="line" smooth="yes"/>
      <point x="184" y="490"/>
      <point x="176" y="476"/>
      <point x="176" y="450" type="curve" smooth="yes"/>
      <point x="176" y="424"/>
      <point x="184" y="410"/>
      <point x="201" y="410" type="curve" smooth="yes"/>
      <point x="344" y="410" type="line"/>
      <point x="70" y="50" type="line" smooth="yes"/>
      <point x="50" y="24"/>
      <point x="53" y="14"/>
      <point x="64" y="0" type="curve" smooth="yes"/>
      <point x="74" y="-10"/>
      <point x="91" y="-16"/>
      <point x="125" y="1" type="curve" smooth="yes"/>
      <point x="154" y="16"/>
      <point x="171" y="25"/>
      <point x="213" y="26" type="curve" smooth="yes"/>
      <point x="329" y="29"/>
      <point x="509" y="-17"/>
    </contour>
  </outline>
</glyph>
<glyph name=".notdef" format="2">
  <advance width="845"/>
  <outline>
    <contour>
      <point x="119" y="890" type="line"/>
      <point x="119" y="0" type="line"/>
      <point x="726" y="0" type="line"/>
      <point x="726" y="890" type="line"/>
    </contour>
    <contour>
      <point x="205" y="810" type="line"/>
      <point x="640" y="810" type="line"/>
      <point x="640" y="80" type="line"/>
      <point x="205" y="80" type="line"/>
    </contour>
  </outline>
</glyph>
<glyph name="a.mod.ini" format="2">
  <advance width="635"/>
  <anchor x="293" y="0" name="bottom"/>
  <anchor x="635" y="0" name="cnct"/>
  <anchor x="579" y="0" name="ogonek"/>
  <anchor x="306" y="500" name="top"/>
  <outline>
    <contour>
      <point x="270" y="-17" type="curve" smooth="yes"/>
      <point x="340" y="-17"/>
      <point x="423" y="14"/>
      <point x="470" y="168" type="curve"/>
      <point x="454" y="229" type="line"/>
      <point x="416" y="108"/>
      <point x="354" y="63"/>
      <point x="283" y="63" type="curve" smooth="yes"/>
      <point x="203" y="63"/>
      <point x="164" y="129"/>
      <point x="164" y="239" type="curve" smooth="yes"/>
      <point x="164" y="374"/>
      <point x="221" y="440"/>
      <point x="308" y="440" type="curve" smooth="yes"/>
      <point x="360" y="440"/>
      <point x="406" y="429"/>
      <point x="460" y="386" type="curve"/>
      <point x="460" y="461" type="line"/>
      <point x="415" y="495"/>
      <point x="354" y="519"/>
      <point x="299" y="519" type="curve" smooth="yes"/>
      <point x="159" y="519"/>
      <point x="75" y="409"/>
      <point x="75" y="235" type="curve" smooth="yes"/>
      <point x="75" y="65"/>
      <point x="155" y="-17"/>
    </contour>
    <contour>
      <point x="560" y="-17" type="curve" smooth="yes"/>
      <point x="605" y="-17"/>
      <point x="604" y="58"/>
      <point x="579" y="58" type="curve" smooth="yes"/>
      <point x="530" y="58"/>
      <point x="515" y="80"/>
      <point x="515" y="140" type="curve" smooth="yes"/>
      <point x="515" y="488" type="line" smooth="yes"/>
      <point x="515" y="506"/>
      <point x="501" y="515"/>
      <point x="473" y="515" type="curve" smooth="yes"/>
      <point x="444" y="515"/>
      <point x="429" y="506"/>
      <point x="429" y="486" type="curve" smooth="yes"/>
      <point x="429" y="140" type="line" smooth="yes"/>
      <point x="429" y="34"/>
      <point x="469" y="-17"/>
    </contour>
  </outline>
</glyph>
<glyph name="ae.ful.fin" format="2">
  <advance width="789"/>
  <anchor x="451" y="500" name="top"/>
  <outline>
    <contour>
      <point x="252" y="-17" type="curve" smooth="yes"/>
      <point x="336" y="-17"/>
      <point x="400" y="28"/>
      <point x="455" y="139" type="curve"/>
      <point x="415" y="224" type="line"/>
      <point x="367" y="106"/>
      <point x="319" y="63"/>
      <point x="259" y="63" type="curve" smooth="yes"/>
      <point x="200" y="63"/>
      <point x="165" y="111"/>
      <point x="165" y="218" type="curve" smooth="yes"/>
      <point x="165" y="345"/>
      <point x="241" y="439"/>
      <point x="356" y="439" type="curve" smooth="yes"/>
      <point x="386" y="439"/>
      <point x="416" y="436"/>
      <point x="454" y="424" type="curve"/>
      <point x="517" y="495" type="line"/>
      <point x="445" y="513"/>
      <point x="421" y="519"/>
      <point x="360" y="519" type="curve" smooth="yes"/>
      <point x="179" y="519"/>
      <point x="76" y="376"/>
      <point x="76" y="214" type="curve" smooth="yes"/>
      <point x="76" y="66"/>
      <point x="142" y="-17"/>
    </contour>
    <contour>
      <point x="645" y="-17" type="curve" smooth="yes"/>
      <point x="702" y="-17"/>
      <point x="782" y="9"/>
      <point x="834" y="85" type="curve" smooth="yes"/>
      <point x="846" y="103"/>
      <point x="842" y="119"/>
      <point x="824" y="134" type="curve" smooth="yes"/>
      <point x="805" y="149"/>
      <point x="790" y="151"/>
      <point x="770" y="130" type="curve" smooth="yes"/>
      <point x="729" y="85"/>
      <point x="692" y="63"/>
      <point x="656" y="63" type="curve" smooth="yes"/>
      <point x="570" y="63"/>
      <point x="481" y="169"/>
      <point x="481" y="321" type="curve" smooth="yes"/>
      <point x="481" y="398"/>
      <point x="514" y="440"/>
      <point x="567" y="440" type="curve" smooth="yes"/>
      <point x="610" y="440"/>
      <point x="635" y="414"/>
      <point x="635" y="371" type="curve" smooth="yes"/>
      <point x="635" y="286"/>
      <point x="570" y="240"/>
      <point x="462" y="235" type="curve"/>
      <point x="476" y="164" type="line"/>
      <point x="630" y="181"/>
      <point x="724" y="258"/>
      <point x="724" y="380" type="curve" smooth="yes"/>
      <point x="724" y="466"/>
      <point x="667" y="519"/>
      <point x="576" y="519" type="curve" smooth="yes"/>
      <point x="464" y="519"/>
      <point x="394" y="436"/>
      <point x="394" y="321" type="curve" smooth="yes"/>
      <point x="394" y="135"/>
      <point x="499" y="-17"/>
    </contour>
  </outline>
</glyph>
<glyph name="ae.ful.ini" format="2">
  <advance width="776"/>
  <anchor x="775" y="0" name="cnct"/>
  <anchor x="438" y="500" name="top"/>
  <outline>
    <contour>
      <point x="239" y="-17" type="curve" smooth="yes"/>
      <point x="323" y="-17"/>
      <point x="387" y="28"/>
      <point x="442" y="139" type="curve"/>
      <point x="402" y="224" type="line"/>
      <point x="354" y="106"/>
      <point x="306" y="63"/>
      <point x="246" y="63" type="curve" smooth="yes"/>
      <point x="187" y="63"/>
      <point x="152" y="111"/>
      <point x="152" y="218" type="curve" smooth="yes"/>
      <point x="152" y="345"/>
      <point x="228" y="439"/>
      <point x="343" y="439" type="curve" smooth="yes"/>
      <point x="373" y="439"/>
      <point x="403" y="436"/>
      <point x="441" y="424" type="curve"/>
      <point x="504" y="495" type="line"/>
      <point x="432" y="513"/>
      <point x="408" y="519"/>
      <point x="347" y="519" type="curve" smooth="yes"/>
      <point x="166" y="519"/>
      <point x="63" y="376"/>
      <point x="63" y="214" type="curve" smooth="yes"/>
      <point x="63" y="66"/>
      <point x="129" y="-17"/>
    </contour>
    <contour>
      <point x="551" y="519" type="curve" smooth="yes"/>
      <point x="501" y="519"/>
      <point x="497" y="440"/>
      <point x="547" y="440" type="curve" smooth="yes"/>
      <point x="593" y="440"/>
      <point x="622" y="411"/>
      <point x="622" y="365" type="curve" smooth="yes"/>
      <point x="622" y="295"/>
      <point x="549" y="240"/>
      <point x="449" y="235" type="curve"/>
      <point x="463" y="164" type="line"/>
      <point x="607" y="181"/>
      <point x="711" y="258"/>
      <point x="711" y="376" type="curve" smooth="yes"/>
      <point x="711" y="465"/>
      <point x="651" y="519"/>
    </contour>
  </outline>
</glyph>
<glyph name="ae.ful.med" format="2">
  <advance width="789"/>
  <anchor x="789" y="0" name="cnct"/>
  <anchor x="451" y="500" name="top"/>
  <outline>
    <contour>
      <point x="252" y="-17" type="curve" smooth="yes"/>
      <point x="336" y="-17"/>
      <point x="400" y="28"/>
      <point x="455" y="139" type="curve"/>
      <point x="415" y="224" type="line"/>
      <point x="367" y="106"/>
      <point x="319" y="63"/>
      <point x="259" y="63" type="curve" smooth="yes"/>
      <point x="200" y="63"/>
      <point x="165" y="111"/>
      <point x="165" y="218" type="curve" smooth="yes"/>
      <point x="165" y="345"/>
      <point x="241" y="439"/>
      <point x="356" y="439" type="curve" smooth="yes"/>
      <point x="386" y="439"/>
      <point x="416" y="436"/>
      <point x="454" y="424" type="curve"/>
      <point x="517" y="495" type="line"/>
      <point x="445" y="513"/>
      <point x="421" y="519"/>
      <point x="360" y="519" type="curve" smooth="yes"/>
      <point x="179" y="519"/>
      <point x="76" y="376"/>
      <point x="76" y="214" type="curve" smooth="yes"/>
      <point x="76" y="66"/>
      <point x="142" y="-17"/>
    </contour>
    <contour>
      <point x="564" y="519" type="curve" smooth="yes"/>
      <point x="514" y="519"/>
      <point x="510" y="440"/>
      <point x="560" y="440" type="curve" smooth="yes"/>
      <point x="606" y="440"/>
      <point x="635" y="411"/>
      <point x="635" y="365" type="curve" smooth="yes"/>
      <point x="635" y="295"/>
      <point x="562" y="240"/>
      <point x="462" y="235" type="curve"/>
      <point x="476" y="164" type="line"/>
      <point x="620" y="181"/>
      <point x="724" y="258"/>
      <point x="724" y="376" type="curve" smooth="yes"/>
      <point x="724" y="465"/>
      <point x="664" y="519"/>
    </contour>
  </outline>
</glyph>
<glyph name="b.ful.ini" format="2">
  <advance width="579"/>
  <guideline x="270"/>
  <guideline x="-25" y="325" angle="0"/>
  <guideline x="333" y="286" angle="159.86"/>
  <guideline x="-25" y="204" angle="0"/>
  <guideline x="-25" y="292" angle="0"/>
  <guideline x="278" y="331" angle="332.82"/>
  <anchor x="309" y="0" name="bottom"/>
  <anchor x="309" y="250" name="center"/>
  <anchor x="579" y="0" name="cnct"/>
  <anchor x="309" y="500" name="top"/>
  <outline>
    <contour>
      <point x="279" y="-19" type="curve" smooth="yes"/>
      <point x="434" y="-19"/>
      <point x="506" y="114"/>
      <point x="506" y="255" type="curve" smooth="yes"/>
      <point x="506" y="370"/>
      <point x="473" y="519"/>
      <point x="394" y="519" type="curve" smooth="yes"/>
      <point x="354" y="519"/>
      <point x="341" y="488"/>
      <point x="341" y="466" type="curve" smooth="yes"/>
      <point x="341" y="430"/>
      <point x="365" y="411"/>
      <point x="405" y="390" type="curve"/>
      <point x="416" y="351"/>
      <point x="424" y="306"/>
      <point x="424" y="264" type="curve" smooth="yes"/>
      <point x="424" y="125"/>
      <point x="358" y="61"/>
      <point x="289" y="61" type="curve" smooth="yes"/>
      <point x="220" y="61"/>
      <point x="186" y="99"/>
      <point x="186" y="211" type="curve" smooth="yes"/>
      <point x="186" y="865" type="line" smooth="yes"/>
      <point x="186" y="881"/>
      <point x="174" y="891"/>
      <point x="143" y="891" type="curve" smooth="yes"/>
      <point x="114" y="891"/>
      <point x="100" y="881"/>
      <point x="100" y="865" type="curve" smooth="yes"/>
      <point x="100" y="193" type="line" smooth="yes"/>
      <point x="100" y="53"/>
      <point x="179" y="-19"/>
    </contour>
  </outline>
</glyph>
<glyph name="b.jmc_dk.fin" format="2">
  <advance width="623"/>
  <anchor x="323" y="0" name="bottom"/>
  <anchor x="350" y="250" name="center"/>
  <anchor x="485" y="500" name="top"/>
  <outline>
    <contour>
      <point x="165" y="-15" type="curve" smooth="yes"/>
      <point x="194" y="-15"/>
      <point x="209" y="-6"/>
      <point x="209" y="11" type="curve" smooth="yes"/>
      <point x="209" y="706" type="line" smooth="yes"/>
      <point x="209" y="789"/>
      <point x="223" y="814"/>
      <point x="250" y="814" type="curve" smooth="yes"/>
      <point x="276" y="814"/>
      <point x="289" y="773"/>
      <point x="289" y="731" type="curve" smooth="yes"/>
      <point x="289" y="591"/>
      <point x="204" y="418"/>
      <point x="150" y="319" type="curve"/>
      <point x="154" y="250" type="line"/>
      <point x="302" y="481"/>
      <point x="375" y="603"/>
      <point x="375" y="731" type="curve" smooth="yes"/>
      <point x="375" y="841"/>
      <point x="334" y="894"/>
      <point x="250" y="894" type="curve" smooth="yes"/>
      <point x="163" y="894"/>
      <point x="123" y="834"/>
      <point x="123" y="706" type="curve" smooth="yes"/>
      <point x="123" y="11" type="line" smooth="yes"/>
      <point x="123" y="-6"/>
      <point x="136" y="-15"/>
    </contour>
    <contour>
      <point x="183" y="31" type="curve" smooth="yes"/>
      <point x="244" y="-9"/>
      <point x="283" y="-17"/>
      <point x="327" y="-17" type="curve" smooth="yes"/>
      <point x="474" y="-17"/>
      <point x="558" y="93"/>
      <point x="558" y="266" type="curve" smooth="yes"/>
      <point x="558" y="436"/>
      <point x="478" y="519"/>
      <point x="373" y="519" type="curve" smooth="yes"/>
      <point x="246" y="519"/>
      <point x="170" y="331"/>
      <point x="170" y="312" type="curve"/>
      <point x="209" y="321" type="line"/>
      <point x="240" y="399"/>
      <point x="288" y="439"/>
      <point x="351" y="439" type="curve" smooth="yes"/>
      <point x="431" y="439"/>
      <point x="469" y="373"/>
      <point x="469" y="263" type="curve" smooth="yes"/>
      <point x="469" y="128"/>
      <point x="413" y="58"/>
      <point x="327" y="58" type="curve" smooth="yes"/>
      <point x="287" y="58"/>
      <point x="249" y="68"/>
      <point x="209" y="91" type="curve" smooth="yes"/>
      <point x="176" y="110"/>
      <point x="151" y="52"/>
    </contour>
  </outline>
</glyph>
<glyph name="b.jmc_dk.ini" format="2">
  <advance width="664"/>
  <anchor x="664" y="0" name="cnct"/>
  <anchor x="313" y="0" name="bottom"/>
  <anchor x="385" y="250" name="center"/>
  <anchor x="485" y="500" name="top"/>
  <outline>
    <contour>
      <point x="588" y="-17" type="curve" smooth="yes"/>
      <point x="613" y="-17"/>
      <point x="631" y="58"/>
      <point x="606" y="58" type="curve" smooth="yes"/>
      <point x="555" y="58"/>
      <point x="473" y="70"/>
      <point x="375" y="39" type="curve"/>
      <point x="344" y="-2" type="line"/>
      <point x="419" y="25"/>
      <point x="523" y="-17"/>
    </contour>
    <component base="b.jmc_dk"/>
  </outline>
</glyph>
<glyph name="b.jmc_dk.med" format="2">
  <advance width="623"/>
  <anchor x="623" y="0" name="cnct"/>
  <anchor x="323" y="0" name="bottom"/>
  <anchor x="350" y="250" name="center"/>
  <anchor x="485" y="500" name="top"/>
  <outline>
    <contour>
      <point x="546" y="-17" type="curve" smooth="yes"/>
      <point x="571" y="-17"/>
      <point x="590" y="58"/>
      <point x="565" y="58" type="curve" smooth="yes"/>
      <point x="520" y="58"/>
      <point x="481" y="54"/>
      <point x="404" y="29" type="curve"/>
      <point x="372" y="-12" type="line"/>
      <point x="430" y="9"/>
      <point x="488" y="-17"/>
    </contour>
    <component base="b.jmc_dk.fin"/>
  </outline>
</glyph>
<glyph name="b.lop.fin" format="2">
  <advance width="614"/>
  <anchor x="331" y="0" name="bottom"/>
  <anchor x="331" y="250" name="center"/>
  <anchor x="331" y="500" name="top"/>
  <outline>
    <contour>
      <point x="308" y="-19" type="curve" smooth="yes"/>
      <point x="468" y="-19"/>
      <point x="541" y="114"/>
      <point x="541" y="255" type="curve" smooth="yes"/>
      <point x="541" y="358"/>
      <point x="506" y="449"/>
      <point x="478" y="495" type="curve" smooth="yes"/>
      <point x="468" y="511"/>
      <point x="460" y="519"/>
      <point x="443" y="519" type="curve" smooth="yes"/>
      <point x="411" y="519"/>
      <point x="379" y="496"/>
      <point x="400" y="461" type="curve" smooth="yes"/>
      <point x="439" y="396"/>
      <point x="454" y="321"/>
      <point x="454" y="246" type="curve" smooth="yes"/>
      <point x="454" y="120"/>
      <point x="391" y="61"/>
      <point x="318" y="61" type="curve" smooth="yes"/>
      <point x="248" y="61"/>
      <point x="209" y="99"/>
      <point x="209" y="211" type="curve" smooth="yes"/>
      <point x="209" y="706" type="line" smooth="yes"/>
      <point x="209" y="789"/>
      <point x="223" y="814"/>
      <point x="250" y="814" type="curve" smooth="yes"/>
      <point x="276" y="814"/>
      <point x="289" y="788"/>
      <point x="289" y="731" type="curve" smooth="yes"/>
      <point x="289" y="681"/>
      <point x="375" y="681"/>
      <point x="375" y="731" type="curve" smooth="yes"/>
      <point x="375" y="841"/>
      <point x="335" y="894"/>
      <point x="250" y="894" type="curve" smooth="yes"/>
      <point x="163" y="894"/>
      <point x="123" y="834"/>
      <point x="123" y="706" type="curve" smooth="yes"/>
      <point x="123" y="193" type="line" smooth="yes"/>
      <point x="123" y="53"/>
      <point x="206" y="-19"/>
    </contour>
  </outline>
</glyph>
<glyph name="b.lop.med" format="2">
  <advance width="614"/>
  <anchor x="331" y="0" name="bottom"/>
  <anchor x="331" y="250" name="center"/>
  <anchor x="614" y="0" name="cnct"/>
  <anchor x="331" y="500" name="top"/>
  <outline>
    <contour>
      <point x="308" y="-19" type="curve" smooth="yes"/>
      <point x="466" y="-19"/>
      <point x="541" y="114"/>
      <point x="541" y="255" type="curve" smooth="yes"/>
      <point x="541" y="370"/>
      <point x="508" y="519"/>
      <point x="429" y="519" type="curve" smooth="yes"/>
      <point x="389" y="519"/>
      <point x="376" y="488"/>
      <point x="376" y="466" type="curve" smooth="yes"/>
      <point x="376" y="430"/>
      <point x="400" y="411"/>
      <point x="440" y="390" type="curve"/>
      <point x="451" y="351"/>
      <point x="459" y="306"/>
      <point x="459" y="264" type="curve" smooth="yes"/>
      <point x="459" y="125"/>
      <point x="390" y="61"/>
      <point x="318" y="61" type="curve" smooth="yes"/>
      <point x="245" y="61"/>
      <point x="209" y="99"/>
      <point x="209" y="211" type="curve" smooth="yes"/>
      <point x="209" y="706" type="line" smooth="yes"/>
      <point x="209" y="789"/>
      <point x="223" y="814"/>
      <point x="250" y="814" type="curve" smooth="yes"/>
      <point x="276" y="814"/>
      <point x="289" y="788"/>
      <point x="289" y="731" type="curve" smooth="yes"/>
      <point x="289" y="681"/>
      <point x="375" y="681"/>
      <point x="375" y="731" type="curve" smooth="yes"/>
      <point x="375" y="841"/>
      <point x="335" y="894"/>
      <point x="250" y="894" type="curve" smooth="yes"/>
      <point x="163" y="894"/>
      <point x="123" y="834"/>
      <point x="123" y="706" type="curve" smooth="yes"/>
      <point x="123" y="193" type="line" smooth="yes"/>
      <point x="123" y="53"/>
      <point x="204" y="-19"/>
    </contour>
  </outline>
</glyph>
<glyph name="brevecomb.case" format="2">
  <guideline x="-19" y="559" angle="0"/>
  <guideline x="-48" y="504" angle="0"/>
  <anchor x="0" y="838" name="_top"/>
  <anchor x="0" y="1105" name="top"/>
  <outline>
    <contour>
      <point x="0" y="931" type="curve" smooth="yes"/>
      <point x="96" y="931"/>
      <point x="170" y="996"/>
      <point x="179" y="1110" type="curve" smooth="yes"/>
      <point x="180" y="1126"/>
      <point x="165" y="1139"/>
      <point x="140" y="1139" type="curve" smooth="yes"/>
      <point x="119" y="1139"/>
      <point x="114" y="1129"/>
      <point x="109" y="1110" type="curve" smooth="yes"/>
      <point x="93" y="1050"/>
      <point x="59" y="1020"/>
      <point x="0" y="1020" type="curve" smooth="yes"/>
      <point x="-59" y="1020"/>
      <point x="-92" y="1050"/>
      <point x="-109" y="1110" type="curve" smooth="yes"/>
      <point x="-114" y="1128"/>
      <point x="-120" y="1139"/>
      <point x="-141" y="1139" type="curve" smooth="yes"/>
      <point x="-166" y="1139"/>
      <point x="-180" y="1126"/>
      <point x="-179" y="1110" type="curve" smooth="yes"/>
      <point x="-170" y="990"/>
      <point x="-101" y="931"/>
    </contour>
  </outline>
</glyph>
<glyph name="circumflexcomb_tildecomb.case" format="2">
  <anchor x="0" y="838" name="_top"/>
  <anchor x="5" y="1287" name="top"/>
  <outline>
    <contour>
      <point x="-150" y="931" type="curve" smooth="yes"/>
      <point x="-141" y="931"/>
      <point x="-135" y="936"/>
      <point x="-125" y="944" type="curve" smooth="yes"/>
      <point x="0" y="1040" type="line"/>
      <point x="125" y="944" type="line" smooth="yes"/>
      <point x="135" y="936"/>
      <point x="141" y="931"/>
      <point x="150" y="931" type="curve" smooth="yes"/>
      <point x="163" y="931"/>
      <point x="185" y="951"/>
      <point x="185" y="965" type="curve" smooth="yes"/>
      <point x="185" y="969"/>
      <point x="186" y="974"/>
      <point x="179" y="981" type="curve" smooth="yes"/>
      <point x="43" y="1120" type="line" smooth="yes"/>
      <point x="34" y="1129"/>
      <point x="25" y="1140"/>
      <point x="0" y="1140" type="curve" smooth="yes"/>
      <point x="-26" y="1140"/>
      <point x="-35" y="1129"/>
      <point x="-44" y="1120" type="curve" smooth="yes"/>
      <point x="-179" y="981" type="line" smooth="yes"/>
      <point x="-186" y="974"/>
      <point x="-185" y="969"/>
      <point x="-185" y="965" type="curve" smooth="yes"/>
      <point x="-185" y="951"/>
      <point x="-162" y="931"/>
    </contour>
    <contour>
      <point x="-145" y="1152" type="curve" smooth="yes"/>
      <point x="-122" y="1152"/>
      <point x="-110" y="1160"/>
      <point x="-109" y="1178" type="curve" smooth="yes"/>
      <point x="-106" y="1212"/>
      <point x="-97" y="1229"/>
      <point x="-80" y="1229" type="curve" smooth="yes"/>
      <point x="-41" y="1229"/>
      <point x="6" y="1153"/>
      <point x="84" y="1153" type="curve" smooth="yes"/>
      <point x="149" y="1153"/>
      <point x="183" y="1195"/>
      <point x="184" y="1279" type="curve" smooth="yes"/>
      <point x="184" y="1298"/>
      <point x="173" y="1307"/>
      <point x="148" y="1307" type="curve" smooth="yes"/>
      <point x="125" y="1307"/>
      <point x="115" y="1300"/>
      <point x="114" y="1285" type="curve" smooth="yes"/>
      <point x="111" y="1254"/>
      <point x="101" y="1230"/>
      <point x="84" y="1230" type="curve" smooth="yes"/>
      <point x="41" y="1230"/>
      <point x="0" y="1305"/>
      <point x="-80" y="1305" type="curve" smooth="yes"/>
      <point x="-144" y="1305"/>
      <point x="-177" y="1262"/>
      <point x="-179" y="1178" type="curve" smooth="yes"/>
      <point x="-179" y="1160"/>
      <point x="-167" y="1152"/>
    </contour>
  </outline>
</glyph>
<glyph name="cnct.cnt_C_n" format="2">
  <anchor x="0" y="0" name="_cnct"/>
  <outline>
    <contour>
      <point x="-309" y="-17" type="curve" smooth="yes"/>
      <point x="-32" y="-17"/>
      <point x="51" y="172"/>
      <point x="109" y="307" type="curve" smooth="yes"/>
      <point x="142" y="382"/>
      <point x="173" y="440"/>
      <point x="214" y="440" type="curve" smooth="yes"/>
      <point x="239" y="440"/>
      <point x="241" y="515"/>
      <point x="216" y="515" type="curve" smooth="yes"/>
      <point x="133" y="515"/>
      <point x="91" y="434"/>
      <point x="48" y="340" type="curve" smooth="yes"/>
      <point x="-11" y="211"/>
      <point x="-70" y="58"/>
      <point x="-309" y="58" type="curve" smooth="yes"/>
      <point x="-349" y="58"/>
      <point x="-349" y="-17"/>
    </contour>
  </outline>
</glyph>
<glyph name="cnct.cnt_C_z" format="2">
  <anchor x="0" y="0" name="_cnct"/>
  <outline>
    <contour>
      <point x="-309" y="-17" type="curve" smooth="yes"/>
      <point x="-55" y="-17"/>
      <point x="30" y="135"/>
      <point x="93" y="264" type="curve" smooth="yes"/>
      <point x="139" y="358"/>
      <point x="180" y="440"/>
      <point x="284" y="440" type="curve" smooth="yes"/>
      <point x="306" y="440"/>
      <point x="309" y="519"/>
      <point x="285" y="519" type="curve" smooth="yes"/>
      <point x="139" y="519"/>
      <point x="88" y="419"/>
      <point x="36" y="312" type="curve" smooth="yes"/>
      <point x="-24" y="189"/>
      <point x="-90" y="58"/>
      <point x="-309" y="58" type="curve" smooth="yes"/>
      <point x="-349" y="58"/>
      <point x="-349" y="-17"/>
    </contour>
  </outline>
</glyph>
<glyph name="cnct.cnt_b_z" format="2">
  <anchor x="0" y="0" name="_cnct"/>
  <outline>
    <contour>
      <point x="-24" y="345" type="curve" smooth="yes"/>
      <point x="99" y="345"/>
      <point x="150" y="440"/>
      <point x="243" y="440" type="curve" smooth="yes"/>
      <point x="273" y="440"/>
      <point x="278" y="519"/>
      <point x="241" y="519" type="curve" smooth="yes"/>
      <point x="131" y="519"/>
      <point x="90" y="425"/>
      <point x="-22" y="425" type="curve" smooth="yes"/>
      <point x="-56" y="425"/>
      <point x="-102" y="439"/>
      <point x="-145" y="465" type="curve" smooth="yes"/>
      <point x="-159" y="474"/>
      <point x="-171" y="395"/>
      <point x="-155" y="386" type="curve" smooth="yes"/>
      <point x="-101" y="359"/>
      <point x="-69" y="345"/>
    </contour>
  </outline>
</glyph>
<glyph name="cnct.cnt_e_n" format="2">
  <guideline x="-90"/>
  <anchor x="0" y="0" name="_cnct"/>
  <outline>
    <contour>
      <point x="-112" y="-17" type="curve" smooth="yes"/>
      <point x="50" y="-17"/>
      <point x="115" y="154"/>
      <point x="154" y="310" type="curve" smooth="yes"/>
      <point x="178" y="406"/>
      <point x="200" y="440"/>
      <point x="238" y="440" type="curve" smooth="yes"/>
      <point x="275" y="440"/>
      <point x="279" y="515"/>
      <point x="241" y="515" type="curve" smooth="yes"/>
      <point x="146" y="515"/>
      <point x="114" y="449"/>
      <point x="75" y="304" type="curve" smooth="yes"/>
      <point x="38" y="161"/>
      <point x="0" y="60"/>
      <point x="-110" y="60" type="curve" smooth="yes"/>
      <point x="-205" y="60"/>
      <point x="-307" y="171"/>
      <point x="-307" y="323" type="curve" smooth="yes"/>
      <point x="-307" y="399"/>
      <point x="-274" y="440"/>
      <point x="-229" y="440" type="curve" smooth="yes"/>
      <point x="-191" y="440"/>
      <point x="-187" y="519"/>
      <point x="-225" y="519" type="curve" smooth="yes"/>
      <point x="-325" y="519"/>
      <point x="-396" y="436"/>
      <point x="-396" y="321" type="curve" smooth="yes"/>
      <point x="-396" y="135"/>
      <point x="-266" y="-17"/>
    </contour>
  </outline>
</glyph>
<glyph name="cnct.cnt_f_z" format="2">
  <anchor x="0" y="0" name="_cnct"/>
  <outline>
    <contour>
      <point x="-364" y="-394" type="curve" smooth="yes"/>
      <point x="-314" y="-394"/>
      <point x="-307" y="-319"/>
      <point x="-357" y="-319" type="curve" smooth="yes"/>
      <point x="-382" y="-319"/>
      <point x="-405" y="-305"/>
      <point x="-405" y="-257" type="curve" smooth="yes"/>
      <point x="-405" y="-166"/>
      <point x="-297" y="-100"/>
      <point x="-177" y="-27" type="curve" smooth="yes"/>
      <point x="85" y="134"/>
      <point x="83" y="440"/>
      <point x="241" y="440" type="curve" smooth="yes"/>
      <point x="280" y="440"/>
      <point x="276" y="519"/>
      <point x="240" y="519" type="curve" smooth="yes"/>
      <point x="14" y="519"/>
      <point x="31" y="171"/>
      <point x="-214" y="31" type="curve" smooth="yes"/>
      <point x="-354" y="-49"/>
      <point x="-489" y="-127"/>
      <point x="-489" y="-260" type="curve" smooth="yes"/>
      <point x="-489" y="-342"/>
      <point x="-440" y="-394"/>
    </contour>
  </outline>
</glyph>
<glyph name="cnct.cnt_r_s.mod" format="2">
  <anchor x="0" y="0" name="_cnct"/>
  <outline>
    <contour>
      <point x="29" y="331" type="curve" smooth="yes"/>
      <point x="89" y="331"/>
      <point x="151" y="366"/>
      <point x="181" y="419" type="curve" smooth="yes"/>
      <point x="196" y="445"/>
      <point x="159" y="479"/>
      <point x="138" y="449" type="curve" smooth="yes"/>
      <point x="116" y="419"/>
      <point x="76" y="399"/>
      <point x="34" y="399" type="curve" smooth="yes"/>
      <point x="-7" y="399"/>
      <point x="-24" y="419"/>
      <point x="-24" y="473" type="curve" smooth="yes"/>
      <point x="-24" y="506"/>
      <point x="-42" y="519"/>
      <point x="-74" y="519" type="curve"/>
      <point x="-101" y="484" type="line"/>
      <point x="-101" y="384"/>
      <point x="-66" y="331"/>
    </contour>
  </outline>
</glyph>
<glyph name="cnct.cnt_r_z" format="2">
  <anchor x="0" y="0" name="_cnct"/>
  <outline>
    <contour>
      <point x="16" y="319" type="curve" smooth="yes"/>
      <point x="130" y="319"/>
      <point x="159" y="440"/>
      <point x="241" y="440" type="curve" smooth="yes"/>
      <point x="291" y="440"/>
      <point x="291" y="519"/>
      <point x="241" y="519" type="curve" smooth="yes"/>
      <point x="125" y="519"/>
      <point x="85" y="386"/>
      <point x="21" y="386" type="curve" smooth="yes"/>
      <point x="-9" y="386"/>
      <point x="-24" y="415"/>
      <point x="-24" y="473" type="curve" smooth="yes"/>
      <point x="-24" y="506"/>
      <point x="-42" y="519"/>
      <point x="-74" y="519" type="curve"/>
      <point x="-101" y="484" type="line"/>
      <point x="-101" y="376"/>
      <point x="-62" y="319"/>
    </contour>
  </outline>
</glyph>
<glyph name="cnct.cnt_r_z.mod" format="2">
  <anchor x="0" y="0" name="_cnct"/>
  <outline>
    <contour>
      <point x="34" y="386" type="curve" smooth="yes"/>
      <point x="63" y="386"/>
      <point x="101" y="399"/>
      <point x="129" y="458" type="curve" smooth="yes"/>
      <point x="144" y="488"/>
      <point x="86" y="513"/>
      <point x="74" y="485" type="curve" smooth="yes"/>
      <point x="64" y="463"/>
      <point x="54" y="456"/>
      <point x="43" y="456" type="curve" smooth="yes"/>
      <point x="15" y="456"/>
      <point x="8" y="519"/>
      <point x="-74" y="519" type="curve" smooth="yes"/>
      <point x="-124" y="519"/>
      <point x="-124" y="439"/>
      <point x="-74" y="439" type="curve" smooth="yes"/>
      <point x="-36" y="439"/>
      <point x="-30" y="386"/>
    </contour>
  </outline>
</glyph>
<glyph name="cnct.ful_C_z" format="2">
  <anchor x="0" y="0" name="_cnct"/>
  <outline>
    <contour>
      <point x="-309" y="-17" type="curve" smooth="yes"/>
      <point x="-93" y="-17"/>
      <point x="87" y="136"/>
      <point x="188" y="456" type="curve" smooth="yes"/>
      <point x="199" y="490"/>
      <point x="130" y="501"/>
      <point x="121" y="476" type="curve" smooth="yes"/>
      <point x="20" y="183"/>
      <point x="-129" y="58"/>
      <point x="-309" y="58" type="curve" smooth="yes"/>
      <point x="-349" y="58"/>
      <point x="-349" y="-17"/>
    </contour>
  </outline>
</glyph>
<glyph name="cnct.ful_G_e" format="2">
  <anchor x="0" y="0" name="_cnct"/>
  <outline>
    <contour>
      <point x="-426" y="-266" type="curve" smooth="yes"/>
      <point x="-426" y="-316"/>
      <point x="-339" y="-307"/>
      <point x="-339" y="-257" type="curve" smooth="yes"/>
      <point x="-339" y="-140"/>
      <point x="-186" y="-97"/>
      <point x="-29" y="-55" type="curve" smooth="yes"/>
      <point x="80" y="-24"/>
      <point x="191" y="6"/>
      <point x="258" y="64" type="curve" smooth="yes"/>
      <point x="283" y="86"/>
      <point x="260" y="153"/>
      <point x="228" y="124" type="curve" smooth="yes"/>
      <point x="166" y="69"/>
      <point x="58" y="40"/>
      <point x="-52" y="10" type="curve" smooth="yes"/>
      <point x="-236" y="-39"/>
      <point x="-426" y="-90"/>
    </contour>
  </outline>
</glyph>
<glyph name="cnct.ful_G_f" format="2">
  <anchor x="0" y="0" name="_cnct"/>
  <outline>
    <contour>
      <point x="-426" y="-266" type="curve" smooth="yes"/>
      <point x="-426" y="-316"/>
      <point x="-339" y="-307"/>
      <point x="-339" y="-257" type="curve" smooth="yes"/>
      <point x="-339" y="-174"/>
      <point x="-265" y="-131"/>
      <point x="-4" y="-16" type="curve" smooth="yes"/>
      <point x="340" y="136"/>
      <point x="488" y="351"/>
      <point x="488" y="731" type="curve" smooth="yes"/>
      <point x="488" y="781"/>
      <point x="401" y="781"/>
      <point x="401" y="731" type="curve" smooth="yes"/>
      <point x="401" y="366"/>
      <point x="279" y="185"/>
      <point x="-7" y="58" type="curve" smooth="yes"/>
      <point x="-315" y="-79"/>
      <point x="-426" y="-146"/>
    </contour>
  </outline>
</glyph>
<glyph name="cnct.ful_G_s" format="2">
  <anchor x="0" y="0" name="_cnct"/>
  <outline>
    <contour>
      <point x="-426" y="-266" type="curve" smooth="yes"/>
      <point x="-426" y="-316"/>
      <point x="-339" y="-307"/>
      <point x="-339" y="-257" type="curve" smooth="yes"/>
      <point x="-339" y="-174"/>
      <point x="-276" y="-125"/>
      <point x="-97" y="-45" type="curve" smooth="yes"/>
      <point x="125" y="56"/>
      <point x="241" y="210"/>
      <point x="304" y="469" type="curve" smooth="yes"/>
      <point x="311" y="500"/>
      <point x="253" y="513"/>
      <point x="245" y="483" type="curve" smooth="yes"/>
      <point x="183" y="244"/>
      <point x="74" y="103"/>
      <point x="-115" y="26" type="curve" smooth="yes"/>
      <point x="-329" y="-60"/>
      <point x="-426" y="-146"/>
    </contour>
  </outline>
</glyph>
<glyph name="cnct.ful_b_n" format="2">
  <anchor x="0" y="0" name="_cnct"/>
  <outline>
    <contour>
      <point x="-29" y="383" type="curve" smooth="yes"/>
      <point x="53" y="383"/>
      <point x="125" y="414"/>
      <point x="166" y="465" type="curve" smooth="yes"/>
      <point x="185" y="488"/>
      <point x="151" y="526"/>
      <point x="129" y="501" type="curve" smooth="yes"/>
      <point x="103" y="474"/>
      <point x="33" y="450"/>
      <point x="-30" y="450" type="curve" smooth="yes"/>
      <point x="-71" y="450"/>
      <point x="-110" y="459"/>
      <point x="-139" y="475" type="curve" smooth="yes"/>
      <point x="-156" y="484"/>
      <point x="-190" y="434"/>
      <point x="-160" y="419" type="curve" smooth="yes"/>
      <point x="-111" y="394"/>
      <point x="-74" y="383"/>
    </contour>
  </outline>
</glyph>
<glyph name="cnct.ful_b_x" format="2">
  <anchor x="0" y="0" name="_cnct"/>
  <outline>
    <contour>
      <point x="-16" y="345" type="curve" smooth="yes"/>
      <point x="90" y="345"/>
      <point x="129" y="444"/>
      <point x="185" y="444" type="curve" smooth="yes"/>
      <point x="235" y="444"/>
      <point x="254" y="519"/>
      <point x="204" y="519" type="curve" smooth="yes"/>
      <point x="96" y="519"/>
      <point x="61" y="413"/>
      <point x="-19" y="413" type="curve" smooth="yes"/>
      <point x="-54" y="413"/>
      <point x="-91" y="439"/>
      <point x="-122" y="478" type="curve" smooth="yes"/>
      <point x="-137" y="496"/>
      <point x="-172" y="454"/>
      <point x="-150" y="426" type="curve" smooth="yes"/>
      <point x="-101" y="366"/>
      <point x="-59" y="345"/>
    </contour>
  </outline>
</glyph>
